<svg xmlns="http://www.w3.org/2000/svg" enable-background="new 0 0 1364 960" viewBox="0 0 1364 960"><path fill="#e0f1ff" d="M243.14 513.63c-19.64 5.8-48.6 21.71-38.5 45.27 9.68 18.6 44.26 16.65 56.55 34.05 8.91 12.61 1.18 29.84-11.74 39.47-12.92 9.63-29.75 14.04-45.23 20.19-42.94 13.92-51.89 54.83-8.17 76.53 19.3 8.96 42.05 9.79 63.91 10.43 84.74 5.02 167.67-12.71 251.43-2.24 24.74 16.65-43.33 7.59-43.71 29.05-.49 27.48 66.07 12.85 91.39 18.06 13.05 2.64 25.05 13.94 21.29 25.14-3.89 11.58-22.25 17.86-21.63 29.92-8.75 32.26 228.56 4.31 265.34 8.15 25.49.8 95.11 6.41 98.43-23.98.89-25.07-19.44-36.79-21.81-61.79 1.36-43.53 80.11-21.22 113.06-18.96 32.65.4 65.39-4.95 95.64-15.65 55.59-15.39 72.92-67.25 20.14-101.77-23.96-14.92-54.08-19.72-83.11-24.12 13.3-22.46 0-51.47-23.03-66.87-48.21-31.62-205.71-21.68-167.83-33.89 31.82-10.26 191.65-27.06 155.88-49.49-42.64-26.74-152.78-14.21-251.12-16.34-136.16-2.96-268.61-12.49-337.49 0-30.51 6.79 18.86 42.76-12.06 46.82-56.91 3.51-113.9 12.6-167.63 32.02z"/><linearGradient id="a" x1="177.373" x2="322.938" y1="599.953" y2="720.475" gradientUnits="userSpaceOnUse"><stop offset="0" stop-color="#ffabda"/><stop offset="1" stop-color="#9963eb"/></linearGradient><path fill="url(#a)" d="M260.2 703.66c-10.89-3.76-19.5-12.33-26.09-21.78-6.59-9.45-11.5-19.95-17.56-29.75-6.06-9.8-13.55-19.13-23.68-24.62 18.73-6.05 39.48-6.33 57.96.45 18.48 6.77 34.43 20.8 42.38 38.8 2.46 5.58 4.16 11.58 4.64 17.67.28 3.56.12 7.36-1.54 10.6-3.31 6.42-11.54 8.2-17.98 9.59-6.03 1.3-12.29 1.06-18.13-.96z"/><path fill="#442878" d="M212.54 657.97c-.17 0-.33-.08-.43-.24-7.44-12.02-14.9-19.79-23.5-24.45a.504.504 0 0 1-.2-.68c.13-.24.44-.33.68-.2 8.75 4.74 16.34 12.62 23.87 24.8.15.23.07.54-.16.69a.42.42 0 0 1-.26.08zM293.83 690.27c-.26 0-.48-.2-.5-.46-.45-5.73-2-11.62-4.6-17.51-7.74-17.52-23.08-31.57-42.09-38.53a.505.505 0 0 1-.3-.64c.1-.26.38-.39.64-.3 19.27 7.06 34.82 21.3 42.66 39.07 2.65 5.99 4.22 11.99 4.68 17.84.02.28-.18.52-.46.54 0-.01-.01-.01-.03-.01z"/><path fill="#b3b3b3" d="M288.08 698.03c-.22 0-.42-.14-.48-.36-4.75-16.47-14.53-31.69-27.55-42.85-13.01-11.16-29.54-18.51-46.54-20.69a.503.503 0 0 1-.43-.56c.04-.27.28-.47.56-.43 17.19 2.21 33.91 9.64 47.07 20.93 13.16 11.29 23.05 26.67 27.85 43.33.08.27-.08.54-.34.62-.05 0-.1.01-.14.01z"/><path fill="#b3b3b3" d="M226.42 650.05c-.22 0-.42-.14-.48-.36-.08-.26.07-.54.34-.62a56.042 56.042 0 0 1 25.9-1.33.499.499 0 0 1-.18.98 54.984 54.984 0 0 0-25.43 1.31c-.06.02-.11.02-.15.02zM272.14 667.69c-.03 0-.06 0-.1-.01a.509.509 0 0 1-.4-.59c1.47-7.55-.74-15.86-5.76-21.69a.506.506 0 0 1 .05-.71c.21-.18.52-.16.71.05 5.22 6.05 7.51 14.68 5.99 22.53a.51.51 0 0 1-.49.42zM281.14 682.76c-.06 0-.12-.01-.18-.03-9.61-3.66-20.42-4.43-30.45-2.17a.503.503 0 0 1-.22-.98c10.22-2.3 21.24-1.52 31.02 2.21.26.1.39.39.29.64-.06.21-.25.33-.46.33z"/><linearGradient id="b" x1="781.528" x2="828.661" y1="334.062" y2="334.062" gradientUnits="userSpaceOnUse"><stop offset="0" stop-color="#ffabda"/><stop offset="1" stop-color="#9963eb"/></linearGradient><path fill="url(#b)" d="M825.55 356.82c-1.47-2.33-3.47-4.51-3.79-7.24-.28-2.36.74-4.65 1.28-6.96 1.47-6.34-1.06-13.44-6.22-17.42-3.28-2.53-7.54-3.93-10-7.27-2.98-4.06-2.38-9.61-3.29-14.57a22.97 22.97 0 0 0-5.53-11.2c-1.97-2.18-4.82-4.08-7.67-3.37-3.09.77-4.65 4.15-5.78 7.13-1.66 4.38-3.35 8.94-2.97 13.61.66 8.13 7.5 15.46 5.86 23.45-.49 2.39-1.73 4.6-2.01 7.02-.55 4.7 2.59 9.07 6.25 12.08 2.05 1.68 4.31 3.11 6.21 4.96 1.9 1.85 3.45 4.25 3.57 6.9.07 1.7-.44 3.38-.53 5.08-.27 5.43 4.68 10.54 10.11 10.45l14.33-.26c4.32-6.59 4.4-15.72.18-22.39z"/><path fill="#4e4494" d="M787.44 333.49c-.03 0-.07 0-.1-.01a.507.507 0 0 1-.39-.59c.91-4.43-.87-8.63-2.75-13.07-1.39-3.29-2.83-6.69-3.12-10.24-.4-4.87 1.41-9.63 3-13.83.1-.26.39-.39.64-.29.26.1.39.39.29.64-1.56 4.1-3.32 8.75-2.94 13.39.27 3.39 1.68 6.71 3.04 9.93 1.86 4.39 3.78 8.93 2.81 13.66-.04.24-.25.41-.48.41zM823.04 343.11c-.04 0-.08 0-.11-.01a.49.49 0 0 1-.37-.6c1.42-6.12-1.06-13.07-6.04-16.91-1.16-.9-2.49-1.67-3.77-2.42-2.31-1.35-4.7-2.74-6.32-4.95a.498.498 0 0 1 .11-.7c.22-.16.54-.12.7.11 1.5 2.04 3.7 3.32 6.02 4.68 1.31.76 2.66 1.55 3.88 2.49 5.28 4.07 7.91 11.44 6.4 17.93-.07.23-.27.38-.5.38z"/><path fill="#b3b3b3" d="M809.55 371.11c-.14 0-.27-.06-.37-.17-1.22-1.39-1.82-3.45-1.69-5.81.08-1.47.42-2.91.74-4.31.11-.49.23-.99.33-1.49 1.61-7.74.51-15.89-3.1-22.92-1.56-3.04-3.6-5.88-5.56-8.63-1.52-2.12-3.1-4.32-4.45-6.61-2.7-4.54-5.46-11.32-3.3-17.82.09-.26.36-.4.62-.31.26.09.4.36.31.62-2.04 6.15.62 12.64 3.22 17.01 1.34 2.25 2.9 4.43 4.41 6.54 1.99 2.78 4.05 5.65 5.64 8.75a35.759 35.759 0 0 1 3.19 23.57c-.1.5-.22 1.01-.34 1.51-.31 1.35-.64 2.75-.71 4.14-.12 2.1.4 3.91 1.45 5.1.18.2.16.51-.04.69-.12.1-.23.14-.35.14z"/><linearGradient id="c" x1="815.935" x2="847.083" y1="346.861" y2="346.861" gradientUnits="userSpaceOnUse"><stop offset="0" stop-color="#ff7e3d"/><stop offset="1" stop-color="#ffd473"/></linearGradient><path fill="url(#c)" d="M841.35 341.81c-.86-2.42-.19-5.13.93-7.45 1.12-2.31 2.68-4.4 3.72-6.75.8-1.81 1.29-3.83 1-5.79-.3-1.96-1.48-3.86-3.29-4.66-2.72-1.2-5.91.31-8.09 2.35-3.79 3.56-5.91 8.83-5.63 14.02.24 4.43 2.07 9.15.05 13.1-1.53 3-4.83 4.56-7.43 6.7-6.73 5.52-8.68 16.07-4.37 23.64l16.22-.16c3.91-4.19 7.89-8.49 10.23-13.73 2.34-5.24 2.79-11.67-.3-16.5-1.03-1.59-2.41-2.99-3.04-4.77z"/><path fill="#4e4494" d="M818.23 377.48c-.17 0-.34-.09-.44-.25-4.41-7.73-2.4-18.62 4.49-24.27.21-.17.53-.14.7.07.17.21.14.53-.07.7-6.52 5.35-8.43 15.67-4.25 23 .14.24.05.55-.19.68-.07.04-.16.07-.24.07zM844.68 363.59a.494.494 0 0 1-.45-.7c2.53-5.67 2.43-11.81-.27-16.03-.33-.51-.7-1.01-1.06-1.5-.77-1.04-1.57-2.11-2.02-3.37a.501.501 0 0 1 .94-.34c.4 1.12 1.12 2.09 1.88 3.11.37.5.76 1.02 1.1 1.56 2.88 4.5 3.01 11.01.34 16.98-.09.18-.27.29-.46.29z"/><path fill="#4e4494" d="M841.35 342.31c-.21 0-.4-.13-.47-.33-.99-2.8-.03-5.8.96-7.83.52-1.08 1.14-2.12 1.74-3.12.7-1.16 1.41-2.37 1.97-3.61.11-.25.41-.37.66-.25.25.11.37.41.25.66-.58 1.3-1.31 2.53-2.02 3.72-.59.99-1.2 2-1.7 3.04-.9 1.86-1.79 4.59-.91 7.06.09.26-.04.55-.3.64-.07.02-.13.02-.18.02z"/><path fill="#b3b3b3" d="M833.87 372.07c-.07 0-.15-.02-.22-.05a.496.496 0 0 1-.22-.66c2.53-5.02 5.69-11.27 4.87-17.56-.23-1.81-.8-3.6-1.35-5.33-.44-1.41-.9-2.86-1.2-4.34-.8-4.06-.32-8.38 1.36-12.16.11-.25.4-.36.65-.25.25.11.36.4.25.65a19.55 19.55 0 0 0-1.29 11.57c.28 1.43.73 2.86 1.17 4.24.56 1.77 1.14 3.6 1.38 5.5.85 6.58-2.38 12.98-4.97 18.12-.08.17-.25.27-.43.27z"/><path fill="#7ad3ff" d="M837.33 433.62h-33.39l-6.83-56.8h47.04z"/><path fill="#4e4494" d="M837.33 434.12h-33.39c-.25 0-.47-.19-.5-.44l-4.04-33.6a.51.51 0 0 1 .44-.56c.27-.03.52.16.56.44l3.98 33.16h32.95c.28 0 .5.22.5.5s-.22.5-.5.5z"/><path fill="#d0def5" d="m797.11 376.82 1.6 8.86h7.27c15.35 0 26.95 32.83 24.23 47.93h7.12l6.82-56.8h-47.04z"/><path fill="#7ad3ff" d="M793.91 369.3h52.96v7.52h-52.96z"/><path fill="#4e4494" d="M846.87 377.32h-52.96c-.28 0-.5-.22-.5-.5s.22-.5.5-.5h52.46v-7.02c0-.28.22-.5.5-.5s.5.22.5.5v7.52c0 .28-.22.5-.5.5z"/><path fill="#a3dcff" d="M462.35 458.15c-.08 0-.15 0-.23-.01a2.494 2.494 0 0 1-2.26-2.72l11.54-126.51a2.501 2.501 0 0 1 4.98.46l-11.54 126.51a2.499 2.499 0 0 1-2.49 2.27zM504.55 477.92h-.07a2.502 2.502 0 0 1-2.43-2.57l3.65-129.5c.04-1.38 1.22-2.43 2.57-2.43 1.38.04 2.47 1.19 2.43 2.57l-3.65 129.5a2.506 2.506 0 0 1-2.5 2.43zM590.37 461.72c-1.2 0-2.26-.87-2.46-2.09l-20.98-125.95a2.5 2.5 0 0 1 2.06-2.88 2.5 2.5 0 0 1 2.88 2.06l20.98 125.95a2.5 2.5 0 0 1-2.06 2.88c-.15.02-.28.03-.42.03z"/><ellipse cx="523.27" cy="329.14" fill="#8dc7eb" rx="51.88" ry="26.28"/><path fill="#a3dcff" d="M529.72 199.66h-40.9c-16.06 0-28.85 9.44-28.01 20.69 3.35 21.88 7.38 43.99 6.81 64.48-.2 7.12 5.99 13.02 13.8 13.02h54.6c7.81 0 14.13-5.9 13.8-13.02-.89-18.75 5.19-42.91 7.92-64.48.83-11.25-11.95-20.69-28.02-20.69z"/><path fill="#442878" d="M481.42 298.35c-4.06 0-7.94-1.59-10.65-4.37-2.45-2.52-3.74-5.77-3.65-9.16.24-8.51-.29-17.81-1.64-29.26a.51.51 0 0 1 .44-.56c.28-.04.52.16.56.44 1.36 11.5 1.89 20.84 1.65 29.41-.09 3.12 1.11 6.12 3.37 8.44 2.52 2.59 6.14 4.07 9.93 4.07a.495.495 0 1 1-.01.99z"/><path fill="#a3dcff" d="M496.55 295.2h43.63v7.67h-43.63z"/><ellipse cx="523.27" cy="324.25" fill="#a3dcff" rx="51.88" ry="26.28"/><path fill="#a3dcff" d="M983.44 458.61c-1.28 0-2.37-.97-2.49-2.27l-11.54-126.51c-.13-1.38.89-2.59 2.26-2.72 1.38-.12 2.59.89 2.72 2.26l11.54 126.51c.13 1.38-.89 2.59-2.26 2.72-.08 0-.16.01-.23.01zM941.24 478.37a2.5 2.5 0 0 1-2.5-2.43l-3.65-129.5a2.502 2.502 0 0 1 2.43-2.57 2.515 2.515 0 0 1 2.57 2.43l3.65 129.5a2.502 2.502 0 0 1-2.43 2.57h-.07zM855.42 462.17c-.14 0-.27-.01-.41-.03a2.51 2.51 0 0 1-2.06-2.88l20.98-125.95a2.503 2.503 0 1 1 4.94.82l-20.98 125.95a2.516 2.516 0 0 1-2.47 2.09z"/><ellipse cx="922.52" cy="329.6" fill="#8dc7eb" rx="51.88" ry="26.28"/><path fill="#a3dcff" d="M914.06 198.44h38.89c15.28 0 27.43 9.44 26.64 20.69-3.19 21.88-7.02 43.99-6.48 64.48.19 7.12-5.69 13.02-13.12 13.02h-51.92c-7.42 0-13.44-5.9-13.12-13.02.85-18.75-4.93-42.91-7.53-64.48-.79-11.25 11.37-20.69 26.64-20.69z"/><path fill="#a3dcff" d="M905.61 295.65h43.63v7.67h-43.63z" transform="rotate(-180 927.429 299.486)"/><ellipse cx="922.52" cy="324.71" fill="#a3dcff" rx="51.88" ry="26.28"/><path fill="#ffb157" d="m535.61 469 26.29-2.42s-3.85 15.18-1.49 18.9c2.36 3.71 16.91 7.12 20.39 11.72 6.64 8.79 0 15.83 0 15.83-9.1 2.9-28.99-8.47-34.48-9.38-6.17-1.02-13.55-2.74-14.51-7.43-1.92-9.3 3.8-27.22 3.8-27.22zM626.88 460.41l24.47-4.66s-3.04 8.58.41 11.57c3.46 3 22.81-2.2 28.94 5.02 5.56 6.55 4.06 12.89 4.06 12.89-13.8 4.25-33.24 2.58-36.97 3.3-6.45 1.26-15.48 3.03-17.94-.48-4.17-5.95-2.97-27.64-2.97-27.64z"/><path fill="#442878" d="M647.78 489.04c-.23 0-.44-.17-.49-.4-.05-.27.12-.53.4-.59 1.14-.22 3.53-.23 6.84-.24 7.55-.02 20.12-.06 29.79-2.96.19-1.26.68-6.67-4-12.18a.493.493 0 0 1 .06-.7c.21-.18.53-.15.71.06 5.66 6.67 4.23 13.06 4.16 13.33-.04.17-.17.31-.34.36-9.84 3.04-22.69 3.07-30.37 3.1-3.14.01-5.61.02-6.66.22h-.1zm36.98-3.8h.01-.01z"/><linearGradient id="d" x1="520.208" x2="722.903" y1="427.238" y2="286.76" gradientUnits="userSpaceOnUse"><stop offset="0" stop-color="#3b3b94"/><stop offset="1" stop-color="#9963eb"/></linearGradient><path fill="url(#d)" d="M634.54 342.84c-11.93-21.49-77.81-47.01-77.81-47.01l-37.36 5.72s-2.58 30.48 18.05 44.43c20.63 13.95 53.43 15.3 53.43 15.3l25.68 106.39c14.3 2.34 28.21.39 41.37-9.65.01-.01-14.16-98.59-23.36-115.18z"/><path fill="#442878" d="M626.94 469.04c-3.38 0-6.87-.3-10.49-.89a.49.49 0 0 1-.41-.57c.04-.27.3-.46.57-.41 15.67 2.56 29-.5 40.76-9.38-.51-3.53-5.59-38.29-11.43-68.79-.05-.27.13-.53.4-.59.27-.05.53.13.59.4 6.14 32.03 11.43 68.75 11.48 69.12a.5.5 0 0 1-.19.47c-9.34 7.12-19.65 10.64-31.28 10.64z"/><linearGradient id="e" x1="486.091" x2="573.743" y1="476.195" y2="307.934" gradientUnits="userSpaceOnUse"><stop offset="0" stop-color="#3b3b94"/><stop offset="1" stop-color="#9963eb"/></linearGradient><path fill="url(#e)" d="M583.74 361.74c0-19.05-57.27-64.82-57.27-64.82l-37.21 5.71c-6.05 45.96 17.69 48 42.15 65.84l-3.6 104.8c12.04 6.5 27.66 8.74 43.34 7.12 0 0 12.59-91.96 12.59-118.65z"/><path fill="#8c6fe8" d="M493.04 323.52a.49.49 0 0 1-.48-.38.49.49 0 0 1 .37-.6c8.42-2.08 15.9-7.87 20.03-15.5.13-.24.43-.33.68-.2.24.13.33.43.2.68-4.25 7.87-11.98 13.85-20.67 16-.05-.01-.09 0-.13 0z"/><path fill="#442878" d="M571.15 480.89h-.07a.51.51 0 0 1-.43-.56c.13-.92 12.58-92.23 12.58-118.58 0-18.58-31.14-41.81-31.46-42.04a.496.496 0 0 1-.1-.7c.16-.22.48-.27.7-.1 1.3.96 31.86 23.76 31.86 42.84 0 26.41-12.47 117.8-12.59 118.72-.03.24-.24.42-.49.42z"/><path fill="#8c6fe8" d="M563.19 474.02c-11.54 0-23.02-2.59-33.45-7.58-.25-.12-.35-.42-.24-.67s.42-.35.67-.24c11.57 5.54 24.45 8.08 37.27 7.37.27-.03.51.2.53.47.02.28-.2.51-.47.53-1.44.08-2.87.12-4.31.12zM545.52 371.02h-.02c-3.31-.12-6.73-.25-10.04-.99-3.78-.84-6.83-2.37-9.09-4.53a.495.495 0 0 1-.01-.71c.19-.2.51-.21.71-.01 2.12 2.04 5.02 3.48 8.61 4.28 3.23.72 6.6.84 9.86.96.28.01.49.24.48.52-.01.27-.23.48-.5.48z"/><path fill="#8c6fe8" d="M537.66 377.09c-.09 0-.18-.02-.26-.07a15.193 15.193 0 0 1-6.32-7.84c-.09-.26.04-.55.31-.64.26-.09.55.05.64.31 1.07 3.03 3.16 5.63 5.9 7.32.23.15.31.45.16.69-.1.14-.26.23-.43.23zM591.22 361.65a.495.495 0 0 1-.04-.99 31.8 31.8 0 0 0 10.25-2.48c.25-.11.55.01.66.26.11.25-.01.55-.26.66a32.984 32.984 0 0 1-10.57 2.55h-.04zM596.7 365.86c-1.52 0-3.05-.15-4.56-.45a.495.495 0 0 1-.39-.59c.05-.27.32-.45.59-.39 2.71.54 5.47.57 8.2.1.27-.05.53.14.58.41.05.27-.14.53-.41.58-1.34.23-2.68.34-4.01.34zM551.82 414.55c-.13 0-.25-.05-.35-.14-.2-.19-.2-.51-.01-.71a94.666 94.666 0 0 0 23.76-41.93.51.51 0 0 1 .61-.36c.27.07.43.34.36.61a95.522 95.522 0 0 1-24.01 42.38c-.1.1-.23.15-.36.15zM565.92 416.42c-.13 0-.27-.05-.36-.16-.19-.2-.18-.52.02-.71 1.84-1.73 3.07-4.16 3.38-6.66.03-.27.28-.47.56-.43.27.03.47.28.43.56-.34 2.77-1.65 5.35-3.68 7.27-.1.09-.22.13-.35.13zM620.68 462.69h-.66c-.28 0-.5-.23-.49-.5 0-.27.23-.5.5-.5h.01c11.27.1 22.41-2.77 32.21-8.35.24-.14.55-.05.68.19.14.24.05.54-.19.68a64.982 64.982 0 0 1-32.06 8.48zM628.41 446.02c-.09 0-.19-.03-.28-.08a.498.498 0 0 1-.14-.69c9.72-14.67 12.71-33.55 7.99-50.5-.07-.27.08-.54.35-.62.26-.07.54.08.62.35 4.79 17.23 1.75 36.41-8.12 51.32-.1.14-.25.22-.42.22zM643.77 410.36c-.27 0-.49-.21-.5-.48l-.35-11.01c-.01-.28.21-.51.48-.52.28-.02.51.21.52.48l.35 11.01c.01.28-.21.51-.48.52h-.02z"/><path fill="#ffd2d1" d="M637.4 192.95c-2.81-3.69-8.95 9.75-11.8 10.49-2.85.75-.91-6.42-3.08-6.04-2.17.38-2.33 4.56-2.77 6.93-.45 2.37-3.91 6.15-3.91 6.15l8.15 5.49s1.04-2.6 5.18-4.37c4.15-1.76 12.37-13.22 8.23-18.65z"/><linearGradient id="f" x1="303.823" x2="350.624" y1="721.378" y2="631.508" gradientTransform="rotate(7.862 3755.362 2218.123)" gradientUnits="userSpaceOnUse"><stop offset="0" stop-color="#ff7e3d"/><stop offset="1" stop-color="#ffd473"/></linearGradient><path fill="url(#f)" d="M538.97 189.33s15.88 3.31 22.9 17.2c4.81 9.52 21.9 35.46 21.9 35.46l32.6-34.85 10.99 8.43s-30.29 53.93-45.41 53.36c-10.58-.4-34.17-22.19-34.17-22.19l-8.81-57.41z"/><path fill="#ffd18f" d="M582 252.67c-.09 0-.17-.02-.25-.07a.496.496 0 0 1-.18-.68c1.81-3.11 2.38-6.9 1.55-10.39-.06-.27.1-.54.37-.6.26-.06.54.1.6.37.88 3.75.28 7.8-1.66 11.13-.09.16-.26.24-.43.24zM587.39 250.02a.5.5 0 0 1-.5-.49c-.04-2.91-.87-5.75-2.4-8.23a.51.51 0 0 1 .16-.69.51.51 0 0 1 .69.16c1.62 2.63 2.5 5.65 2.55 8.74 0 .28-.22.51-.5.51z"/><path fill="#442878" d="M583.77 242.5h-.02a.49.49 0 0 1-.37-.18c-.06-.08-6.35-7.83-11.13-17.29a.496.496 0 0 1 .22-.67c.25-.13.55-.02.67.22 4.08 8.07 9.26 14.89 10.66 16.67l32.2-34.43c.19-.2.51-.21.71-.02.2.19.21.5.02.71l-32.6 34.85c-.09.08-.23.14-.36.14z"/><linearGradient id="g" x1="483.764" x2="567.764" y1="323.989" y2="175.815" gradientUnits="userSpaceOnUse"><stop offset="0" stop-color="#ff7e3d"/><stop offset="1" stop-color="#ffd473"/></linearGradient><path fill="url(#g)" d="M521.05 186.21c-30.3 2.21-39.3 33.64-36.8 61.2s4.41 55.09 4.41 55.09c20.53 9.18 45.6 1.03 69.69-4.86 0 0-6.35-22.68-1.07-38.34 11-32.63 5.25-62.32-17.65-70.9l-18.58-2.19z"/><path fill="#442878" d="M519.01 257.64h52.48v62.81h-52.48z" transform="rotate(24.55 545.267 289.064)"/><path fill="#ffc3c2" d="m523.6 173.16-2.26 13.03c6 4.89 11.57 6.98 16.02 1.88l-1.07-11.26-12.69-3.65z"/><path fill="#442878" d="M537.89 134.26c-6.77-2.92-15.86-2.88-19.17 4.48-2.39-.57-11.07 6.2-7.3 19.18 1.29 4.44 5.32 7.48 9.3 9.84l29.7-17.49c6.24-3.13 5.72-10.79 3.45-13.89-4-5.5-11.63-.24-15.98-2.12z"/><path fill="#ffd2d1" d="M527.86 145.53c-3.34.81-2.72 9.57-5.92 9.85-2.01-3.83-4.24-3.61-5.48-1.81-1.6 2.31-1.26 5.96 2.88 9.44-.72 10.73 8.86 18.8 16.98 18.08 13.64-1.21 15.2-26.73 13.32-33.45.01.01-13.22-4.19-21.78-2.11z"/><ellipse cx="530.6" cy="162.63" fill="#4a3e9c" rx="2.24" ry="1.41" transform="rotate(-83.368 530.59 162.642)"/><ellipse cx="530.6" cy="162.63" fill="#2e2373" rx="1.45" ry=".92" transform="rotate(-83.368 530.59 162.642)"/><ellipse cx="530.08" cy="162" fill="#fff" rx=".44" ry=".38" transform="rotate(-78.089 530.047 162.003)"/><ellipse cx="543.71" cy="162.92" fill="#4a3e9c" rx="2.24" ry="1.41" transform="rotate(-86.715 543.692 162.906)"/><ellipse cx="543.71" cy="162.92" fill="#2e2373" rx="1.45" ry=".92" transform="rotate(-86.715 543.692 162.906)"/><ellipse cx="543.15" cy="162.32" fill="#fff" rx=".44" ry=".38" transform="rotate(-81.437 543.127 162.308)"/><path fill="#2e2373" d="M532.87 158.52c-.59-.43-1.44-.55-2.15-.47-.35.04-.71.12-1.03.28-.33.16-.6.38-.88.63-.1.09 0 .27.13.18.27-.18.57-.27.88-.35.3-.07.6-.12.91-.12.3 0 .59.04.88.11.31.08.57.23.85.36.38.17.77-.36.41-.62zM545.37 158.67c-.28-.19-.59-.3-.91-.38-.31-.08-.64-.1-.96-.09-.33.01-.72.05-1 .24-.32.22-.07.69.27.66.14-.01.33-.09.43-.11.08-.02.26-.05.38-.07.27-.03.48-.02.76.02.26.04.5.11.75.2.13.04.24.11.36.17.11.06.26.14.39.11.05-.01.1-.05.1-.1.02-.31-.34-.5-.57-.65z"/><path fill="#e0a3a2" d="M537.99 166.02c-.71-1.23-1-2.57-.71-3.98.04-.18-.21-.24-.27-.07a5.2 5.2 0 0 0 .07 3.46c.2.51.62 1 .71 1.55.13.76-.74 1.09-1.3 1.33-.52.22-.21.97.31.72.58-.28 1.2-.67 1.46-1.29.25-.62.05-1.17-.27-1.72z"/><path fill="#a84a49" d="M540.06 171.43s-2.53 2.25-7.61-.12c0 0 .12 4.39 4.13 4.33 2.94-.05 3.48-4.21 3.48-4.21z"/><path fill="#ffd2d1" d="M572.53 294.93c-1.1-3.41-9.84 4.45-15.46-1.19-1.25-1.26 5.82-1.6 4.99-3.72-.83-2.12-11.45-.06-11.45-.06l-3.9 10.96s10.72 6.99 17.37 6.36c5.16-.51 9.54-8.94 8.45-12.35z"/><linearGradient id="h" x1="-63.204" x2="18.269" y1="1731.943" y2="1588.227" gradientTransform="rotate(27.489 3115.952 2056.06)" gradientUnits="userSpaceOnUse"><stop offset="0" stop-color="#ff7e3d"/><stop offset="1" stop-color="#ffd473"/></linearGradient><path fill="url(#h)" d="M493.51 204.72c-8.21 11.51-18.57 68.46-12.18 76.91 10.7 14.13 65.6 20.91 65.6 20.91l4.86-14.24-43.27-18.08s14.45-42.14 16.41-47.54c9.52-26.3-17.71-37.19-31.42-17.96z"/><path fill="#ffd18f" d="M551.8 288.8c-.06 0-.13-.01-.19-.04l-43.27-18.08a.494.494 0 0 1-.28-.62c.14-.42 14.48-42.2 16.41-47.55a.501.501 0 0 1 .94.34c-1.82 5.04-14.7 42.56-16.25 47.09l42.83 17.9a.5.5 0 0 1-.19.96z"/><path fill="#ffd18f" d="M498.1 272.61c-.37 0-.74-.01-1.11-.02a.496.496 0 0 1-.48-.52c.01-.28.27-.49.52-.48 3.85.16 7.75-.54 11.3-2.03.25-.1.55.01.65.27.11.25-.01.55-.27.65-3.34 1.4-6.98 2.13-10.61 2.13z"/><path fill="#ffd18f" d="M504.49 277.48a.5.5 0 0 1-.29-.91c2.12-1.52 3.72-3.84 4.37-6.37.07-.27.34-.43.61-.36.27.07.43.34.36.61-.71 2.75-2.44 5.28-4.76 6.93-.09.07-.19.1-.29.1z"/><path fill="#442878" d="M546.94 303.04h-.06c-2.25-.28-55.24-6.97-65.94-21.1-6.58-8.69 3.77-65.73 12.17-77.5.16-.23.47-.28.7-.12.23.16.28.47.12.7-8.02 11.25-18.4 68.11-12.19 76.32 10.45 13.8 64.72 20.65 65.27 20.72.27.03.47.28.43.56-.04.23-.25.42-.5.42zM550.13 150.46s-1.42-4.56-5-3.69c-3.26.79-4.39 4.35-10.31 3.34-10.8-1.84-9.81 5.35-12.87 5.27-2.21-8.27 4.34-16.83 9.73-14.64.34.14 20.08-3.05 18.45 9.72z"/><path fill="#ffd18f" d="M533.92 194.81c-5.54 0-11.07-1.96-15.33-5.54a.494.494 0 0 1-.06-.7c.18-.21.49-.24.7-.06 4.99 4.2 11.81 6.08 18.24 5.02.27-.04.53.14.57.41.04.27-.14.53-.41.57-1.22.2-2.47.3-3.71.3zM535.01 236.34c-.21 0-.41-.13-.48-.34a.5.5 0 0 1 .32-.63c7.9-2.58 14.74-8.6 18.3-16.11.12-.25.42-.35.67-.24.25.12.36.42.24.67-3.67 7.75-10.74 13.97-18.89 16.63-.05.01-.11.02-.16.02zM544.12 237.79c-.17 0-.34-.09-.44-.25a.494.494 0 0 1 .19-.68c2.6-1.46 4.82-3.57 6.42-6.09a.5.5 0 0 1 .69-.15c.23.15.3.46.15.69a19.135 19.135 0 0 1-6.78 6.42c-.07.04-.15.06-.23.06z"/><path fill="#442878" d="M513.04 160.52c-.13 0-.25-.05-.35-.14-3.38-3.26-4.75-8.48-3.41-12.98 1.24-4.15 4.74-7.55 8.9-8.74-.56-.31-1.23-.47-2.05-.52-1.16-.06-2.36.16-3.51.37a.499.499 0 0 1-.18-.98c1.21-.23 2.47-.46 3.75-.39 1.48.08 2.63.54 3.5 1.4.13.13.18.32.13.5-.05.18-.2.31-.38.35-4.26.81-7.95 4.14-9.19 8.29-1.24 4.15.02 8.96 3.14 11.97.2.19.2.51.01.71a.48.48 0 0 1-.36.16z"/><path fill="#442878" d="M519.64 139.37c-.24 0-.45-.17-.49-.41a7.531 7.531 0 0 0-1.59-3.42c-.34-.41-.63-.62-.9-.64a.5.5 0 0 1-.45-.54.5.5 0 0 1 .54-.45c.73.07 1.25.6 1.58 1a8.469 8.469 0 0 1 1.81 3.88c.05.27-.13.53-.4.58h-.1z"/><path fill="#ffd2d1" d="M837.7 200.1c2.55-.5 5.6 9.92 11.17 11.5 1.24.35-1.04-4.26.6-4.48 1.64-.22 4.08 7.25 4.08 7.25l-5.58 6.34s-4.4-2.78-8.43-6.95c-2.63-2.71-4.39-13.16-1.84-13.66z"/><linearGradient id="i" x1="6260.078" x2="6200.287" y1="611.933" y2="738.797" gradientTransform="scale(-1 1) rotate(-9.381 9.27 43870.548)" gradientUnits="userSpaceOnUse"><stop offset="0" stop-color="#ff8ac1"/><stop offset="1" stop-color="#e64a6e"/></linearGradient><path fill="url(#i)" d="M925.83 218.93c-3.3 9.72-34.2 41.86-41.82 40.78-12.74-1.81-37.16-38.57-37.16-38.57l7.33-8.11 29 22.87s20.35-26.92 23.1-30.07c13.32-15.31 24.66-1.95 19.55 13.1z"/><path fill="#442878" d="M964.6 175.02c-1.13-10.9-8.22-9.97-8.3-18.32-.08-9.09-7.14-12.04-13.49-11.06-4.11.63-6.64 3.64-6.64 3.64l4.21 3.74c5.95-3.35 10.52 7.46 9.35 11.15-1.12 3.53-5.09 7.12-2.57 14.83 2.51 7.71-4.09 10.06-5.6 15.68-1.51 5.62 6.92 11.06 12.36 11.16 5.44.1 10.27-9.4 8.24-15.93-2.03-6.52 3.29-6.66 2.44-14.89z"/><path fill="#442878" d="M920.11 148.82c-13.22 4.36-7.08 16.17-7.08 16.17l27.02 13.04s6.57-2.22 7.07-11.66c.76-14.19-13.79-21.9-27.01-17.55z"/><path fill="#fabfbe" d="m854.6 356.55 40.16 97.61 15.75-6.04c-7.55-42.18-7.64-52.71-25.61-95.74l34.42-59.7-25.38 5.21-39.34 58.66z"/><path fill="#ffd2d1" d="M856.73 320.01c4.78-9.03 69.39-16.63 69.39-16.63l28.02 3.41c8.71 47.88-47.36 35.12-80.17 43.03-5.92 35.69-35.99 93.32-35.99 93.32l-13.88-7.36c-.01 0 20.47-92.78 32.63-115.77z"/><path fill="#442878" d="M850.63 417.36c-.07 0-.14-.01-.21-.04a.502.502 0 0 1-.25-.66c8.78-19.37 19.94-46.71 23.29-66.91.04-.27.3-.46.57-.41.27.04.46.3.41.57-3.37 20.31-14.56 47.74-23.36 67.16-.08.18-.26.29-.45.29z"/><linearGradient id="j" x1="949.242" x2="885.264" y1="363.688" y2="287.971" gradientUnits="userSpaceOnUse"><stop offset="0" stop-color="#3b3b94"/><stop offset="1" stop-color="#9963eb"/></linearGradient><path fill="url(#j)" d="M954.48 301.5s7.67 19.31-2.75 33.2c-14.66 19.53-65.87 19.97-65.87 19.97-.22-9.68-31.26-28.16-29.13-34.66 1.15-3.51 40.73-26.53 40.73-26.53l57.02 8.02z"/><path fill="#442878" d="M885.86 355.17c-.27 0-.5-.22-.5-.5s.22-.5.5-.5c.51 0 51.13-.66 65.47-19.77 3.16-4.21 4.95-9.36 5.31-15.31.02-.28.26-.48.53-.47.28.02.49.25.47.53-.37 6.15-2.22 11.48-5.5 15.85-14.65 19.51-64.17 20.15-66.28 20.17z"/><linearGradient id="k" x1="886.38" x2="979.902" y1="202.66" y2="316.53" gradientUnits="userSpaceOnUse"><stop offset="0" stop-color="#ff8ac1"/><stop offset="1" stop-color="#e64a6e"/></linearGradient><path fill="url(#k)" d="M935.59 194.75s22.15 6.93 25.16 20.85c6.41 29.67-11.51 62.86-6.27 85.9-25.9 13.19-38.89-2.5-59.03-7.26 0 0 8.97-19.3 6.29-34.53-6.98-39.65-.84-55.45 21.35-65.04l12.5.08z"/><path fill="#442878" d="M895.45 294.74c-.07 0-.14-.01-.21-.05a.493.493 0 0 1-.24-.66c.09-.19 8.87-19.34 6.25-34.23-1.87-10.62-2.76-19.35-2.74-26.68 0-.28.22-.5.5-.5s.5.23.5.5c-.03 7.27.86 15.94 2.72 26.5 2.68 15.21-6.23 34.63-6.33 34.83-.08.18-.26.29-.45.29z"/><path fill="#ffc8c7" d="m925.21 183.3 9.36-.61 1.6 12.28c-9.93 8.88-13.66 7.77-13.08-.29l2.12-11.38z"/><path fill="#ffd2d1" d="M935.14 156.01c2.98 1.16.97 11.25 3.89 11.91 2.32-3.28 4.35-2.8 5.28-.99 1.19 2.33.42 5.65-3.83 8.35-.66 9.98-10.11 16.01-17.5 14.34-12.42-2.81-10.74-28.41-8.18-34.37-.01.02 12.71-2.21 20.34.76z"/><path fill="#442878" d="M929.83 163.78c2.87 1.65 5.66 6.46 6.14 9.43 9.27-9.61-.99-23.65-13.58-22.52-3.2.29-5.66 3.26-3.62 6.01 2.57 3.64 7.4 4.93 11.06 7.08z"/><path fill="#442878" d="M920.09 151.32s.49 4.5-3.42 8.22c-2.47 2.34-3.64 5.46-3.64 5.46s-1.89-4.64-.8-8.09c1.45-4.57 5.18-6.79 7.86-5.59z"/><path fill="#ffd2d1" d="M824.09 435.78c-5.18 5.66-27.13 12.5-30.12 16.47-5.23 6.94 40.48-3.08 44.01-9.11l-13.89-7.36z"/><path fill="#492885" d="M798.91 449.23s-15.43 1.24-11.73 9.63c3.7 8.39 28.81 1.6 37.89.86 4.91-.4 10.92.07 12.78-2.87 1.86-2.93.42-14.05.42-14.05s-15.78 8.1-26.26 9.09c-10.47.99-13.1-2.66-13.1-2.66z"/><path fill="#fabfbe" d="M892.13 448.97c-.2 9.01-18.37 19.48-19.66 24.28-2.25 8.39 36.38-18.02 37.39-24.92l-17.73.64z"/><path fill="#492885" d="M875.93 468.6s-13.85 6.93-7.27 13.32 27.31-9.3 35.45-13.39c4.4-2.21 10.15-4.03 10.78-7.44.62-3.42-4.87-13.19-4.87-13.19s-11.6 13.42-20.94 18.26c-9.34 4.83-13.15 2.44-13.15 2.44z"/><path fill="#ffd2d1" d="M880.89 313.49c1.3-.74 6.06-3.32 6.8-3.81-.92.35-5.82-.41-2.37-2.32 1.94-1.08 8.45-2.33 10.16-3.35 3.72-2.21 6.63-3.76 6.63-3.76l8.95 7.06s-2.76 1.92-6.14 4.81c-3.39 2.9-3.89 3.67-8.13 5.76-4.24 2.08-6.85 2.1-9.41 1.68-3.23-.53-12.69-2.55-6.49-6.07z"/><linearGradient id="l" x1="884.467" x2="977.989" y1="204.231" y2="318.101" gradientUnits="userSpaceOnUse"><stop offset="0" stop-color="#ff8ac1"/><stop offset="1" stop-color="#e64a6e"/></linearGradient><path fill="url(#l)" d="M963.5 223.44c1.62 6.31 5.64 51.68-1.06 62.4-6.09 9.73-56.14 27.75-56.14 27.75l-6.42-13.8 44.31-25.69s-12.19-41.37-10.5-52.53c2.23-14.75 22.32-27.22 29.81 1.87z"/><path fill="#d64079" d="M930.83 282.34c-.17 0-.34-.09-.43-.25a.493.493 0 0 1 .18-.68l13.02-7.54c-1.29-4.43-12.02-41.67-10.4-52.37a.5.5 0 1 1 .99.15c-1.65 10.92 10.36 51.9 10.49 52.31.07.22-.03.46-.23.57l-13.35 7.74c-.1.05-.18.07-.27.07z"/><path fill="#442878" d="M906.29 314.09a.501.501 0 0 1-.17-.97c.5-.18 49.96-18.07 55.89-27.54 6.59-10.52 2.66-55.58 1-62.01-.07-.27.09-.54.36-.61.27-.07.54.09.61.36 1.67 6.49 5.59 52.06-1.13 62.79-6.11 9.76-54.35 27.21-56.4 27.95a.38.38 0 0 1-.16.03z"/><ellipse cx="930.18" cy="172.34" fill="#4a3e9c" rx="1.31" ry="2.08" transform="rotate(-1.478 930.706 172.43)"/><ellipse cx="930.18" cy="172.34" fill="#2e2373" rx=".85" ry="1.35" transform="rotate(-1.478 930.706 172.43)"/><ellipse cx="930.72" cy="171.8" fill="#fff" rx=".35" ry=".41" transform="rotate(-6.759 930.598 171.782)"/><ellipse cx="918.03" cy="171.51" fill="#4a3e9c" rx="2.08" ry="1.31" transform="rotate(-88.126 918.02 171.49)"/><ellipse cx="918.03" cy="171.51" fill="#2e2373" rx="1.35" ry=".85" transform="rotate(-88.126 918.02 171.49)"/><ellipse cx="918.59" cy="171" fill="#fff" rx=".35" ry=".41" transform="rotate(-3.405 919.229 171.099)"/><path fill="#2e2373" d="M928.42 168.34c.58-.35 1.38-.39 2.03-.26.32.07.65.17.93.34.29.18.53.41.76.65.09.09-.02.25-.13.16-.23-.19-.51-.3-.79-.39a3.94 3.94 0 0 0-.84-.19c-.27-.03-.55-.02-.82.03-.29.05-.54.16-.82.26-.35.14-.67-.39-.32-.6zM916.84 167.44c.27-.15.57-.23.87-.28.3-.05.6-.04.9-.01.31.04.66.11.9.31.27.23.01.64-.31.59-.13-.02-.3-.11-.39-.14-.07-.03-.24-.07-.35-.09-.25-.05-.44-.06-.71-.04-.24.01-.47.06-.71.12-.12.03-.23.08-.34.13-.11.05-.25.11-.37.07-.04-.01-.09-.05-.09-.1.03-.29.38-.44.6-.56z"/><path fill="#e0a3a2" d="M923.06 174.86c.76-1.08 1.14-2.3.99-3.62-.02-.17.22-.21.26-.04.25 1.05.13 2.23-.36 3.2-.23.45-.66.88-.78 1.37-.18.69.59 1.07 1.09 1.33.46.25.11.91-.34.64-.52-.31-1.05-.72-1.24-1.32-.19-.59.04-1.08.38-1.56z"/><path fill="#a84a49" d="M928.25 180.36c-1.35-.96-3.25 1.35-5.71.58-2.46-.77-.6 3.26 1.9 3.27 3.78.01 4.54-3.33 3.81-3.85z"/><path fill="#442878" d="M955.58 205.85a.498.498 0 0 1-.16-.97c2.67-.94 4.8-2.42 6.16-4.27 1.57-2.13 2.07-4.82 1.31-7.02-.17-.49-.4-.97-.64-1.47-.47-.98-.96-1.98-.98-3.13-.03-1.5.71-2.79 1.55-4.1 1.87-2.94 4-6.27 3.44-9.67-.37-2.27-1.89-4.23-3.23-5.96l-7.21-9.3a.496.496 0 0 1 .09-.7c.22-.17.53-.13.7.09l7.21 9.3c1.35 1.73 3.02 3.89 3.43 6.41.61 3.78-1.62 7.28-3.59 10.37-.75 1.18-1.42 2.33-1.39 3.55.02.93.44 1.8.88 2.72.24.51.5 1.03.69 1.58.86 2.51.31 5.55-1.45 7.94-1.48 2.01-3.78 3.61-6.64 4.62-.06 0-.11.01-.17.01zM935.65 150a.507.507 0 0 1-.44-.74c1.51-2.84 4.43-4.87 7.62-5.28 3.2-.42 6.53.79 8.72 3.15.19.2.18.52-.03.71-.2.19-.52.17-.71-.03-1.97-2.13-4.98-3.21-7.86-2.84-2.88.38-5.51 2.2-6.87 4.76-.08.18-.26.27-.43.27z"/><path fill="#d64079" d="M882.13 244.86c-.28 0-.5-.23-.5-.51.03-2.95.5-5.88 1.38-8.69.08-.26.36-.41.63-.33.26.08.41.36.33.63-.85 2.72-1.3 5.55-1.33 8.4a.51.51 0 0 1-.51.5zM878 239.62a.51.51 0 0 1-.31-.11.496.496 0 0 1-.08-.7c1.16-1.47 2.49-2.81 3.94-3.99.21-.17.53-.14.7.07.17.21.14.53-.07.7-1.4 1.14-2.67 2.43-3.79 3.83-.09.13-.24.2-.39.2zM925.83 205.53c-.31 0-.61-.01-.89-.01-1.03-.02-2.21-.05-3.26-.55-1.08-.51-1.96-1.5-2.47-2.77-.4-1-.58-2.16-.55-3.57.01-.28.21-.48.51-.49.28.01.49.23.49.51-.03 1.27.13 2.3.47 3.17.41 1.02 1.13 1.84 1.97 2.24.86.41 1.92.43 2.85.45 1.76.05 3.32.01 4.5-.82.23-.16.54-.1.7.12.16.23.1.54-.12.7-1.26.88-2.84 1.02-4.2 1.02zM931.9 204.37c-.14 0-.28-.06-.38-.18a.493.493 0 0 1 .06-.7l3.88-3.26c.21-.18.53-.15.7.06.18.21.15.53-.06.7l-3.88 3.26a.49.49 0 0 1-.32.12zM913.34 270.64c-.18 0-.35-.1-.44-.27a.501.501 0 0 1 .21-.68 43.409 43.409 0 0 0 15.93-14.52.498.498 0 0 1 .83.55 44.555 44.555 0 0 1-16.3 14.85c-.07.06-.15.07-.23.07zM924.38 270.99a.501.501 0 0 1-.37-.84l6.04-6.6c.19-.2.5-.22.71-.03.2.19.22.5.03.71l-6.04 6.6a.5.5 0 0 1-.37.16z"/><path fill="#8c6fe8" d="M917.68 345.01c-.22 0-.42-.15-.48-.37-.07-.27.08-.54.35-.62 14.22-3.96 26.49-13.63 33.64-26.55.13-.24.44-.33.68-.2.24.13.33.44.2.68-7.28 13.15-19.76 23-34.25 27.03-.05.03-.1.03-.14.03z"/><path fill="#a3dcff" d="M428.02 697.27c-1.28 0-2.37-.97-2.49-2.27l-13.45-147.38c-.13-1.38.89-2.59 2.26-2.72 1.37-.14 2.59.89 2.72 2.26l13.45 147.38c.13 1.38-.89 2.59-2.26 2.72-.08.01-.16.01-.23.01zM378.86 720.3a2.5 2.5 0 0 1-2.5-2.43L372.11 567a2.502 2.502 0 0 1 2.43-2.57h.07a2.5 2.5 0 0 1 2.5 2.43l4.25 150.87a2.502 2.502 0 0 1-2.43 2.57h-.07zM292.59 701.42c-.06 0-.12 0-.18-.01a2.5 2.5 0 0 1-2.31-2.68l10.73-146.72c.1-1.38 1.3-2.42 2.68-2.31a2.5 2.5 0 0 1 2.31 2.68L295.09 699.1a2.515 2.515 0 0 1-2.5 2.32zM345.41 677.01a2.5 2.5 0 0 1-2.5-2.5V536.98a2.5 2.5 0 0 1 5 0v137.53c0 1.39-1.12 2.5-2.5 2.5z"/><ellipse cx="357.05" cy="549.19" fill="#85c1e6" rx="60.44" ry="20.48"/><ellipse cx="357.05" cy="543.75" fill="#a3dcff" rx="60.44" ry="21.59"/><linearGradient id="m" x1="455.404" x2="379.73" y1="645.895" y2="407.231" gradientUnits="userSpaceOnUse"><stop offset="0" stop-color="#ff7e3d"/><stop offset="1" stop-color="#ffd473"/></linearGradient><path fill="url(#m)" d="m451.9 463.15-4.02 41.26-.53-.7c-9.94 9.03-60.9 51.05-83.63 24.72l15.98-50.34s55.21-17.91 72.2-14.94z"/><path fill="#442878" d="m444.34 650.36 23.2-3.88s-3.05 8.04.15 10.93c3.2 2.9 21.58-1.59 27.22 5.35 5.11 6.3 3.56 12.26 3.56 12.26-13.12 3.73-31.43 1.74-34.97 2.34-6.12 1.05-14.68 2.53-16.92-.83-3.83-5.72-2.24-26.17-2.24-26.17z"/><linearGradient id="n" x1="404.413" x2="368.193" y1="461.248" y2="717.376" gradientUnits="userSpaceOnUse"><stop offset="0" stop-color="#ff7e3d"/><stop offset="1" stop-color="#ffd473"/></linearGradient><path fill="url(#n)" d="M456.63 510.34c-10.04-13.8-76.5-24.05-76.5-24.05l-79.71 25.6c0 1.68 1.83 46.75 72.5 34.63 32.49-5.57 42.24-5.74 42.24-5.74l20.69 116.1c13.21 1.76 26.06.2 38.49-5.29-.01.01-1.62-119.12-17.71-141.25z"/><path fill="#ffd18f" d="M414.41 540.86c-.18 0-.35-.1-.44-.26a.506.506 0 0 1 .2-.68c6.23-3.35 11.08-9.42 12.97-16.23.07-.27.35-.42.62-.35s.42.35.35.62c-1.97 7.07-7 13.37-13.46 16.85-.08.04-.16.05-.24.05zM416.19 544.3a.502.502 0 0 1-.06-1c4.95-.52 9.68-2.97 12.98-6.7.18-.21.5-.23.71-.04.21.18.23.5.04.71-3.46 3.92-8.42 6.49-13.62 7.04-.01-.01-.03-.01-.05-.01z"/><path fill="#442878" d="M435.84 657.39c-.24 0-.45-.17-.49-.41l-20.61-115.67c-2.2.1-13.28.84-41.74 5.71a.506.506 0 0 1-.58-.41c-.05-.27.14-.53.41-.58 32.16-5.51 42.21-5.74 42.31-5.74.23-.04.46.17.5.41l20.69 116.1c.05.27-.13.53-.4.58-.03.01-.06.01-.09.01z"/><linearGradient id="o" x1="385.524" x2="267.642" y1="368.053" y2="548.607" gradientUnits="userSpaceOnUse"><stop offset="0" stop-color="#ff8ac1"/><stop offset="1" stop-color="#e64a6e"/></linearGradient><path fill="url(#o)" d="M350.63 359.88s26.08 7.9 28.23 41.95c1.72 27.29-17.3 28.76 11.01 87.37-29.91 2.38-48.33 35.24-89.46 22.7-.03-62.28-14.81-96.91-3.67-132.26 9.4-29.82 38.98-33.2 38.98-33.2l14.91 13.44z"/><path fill="#ffd2d1" d="m331.53 357.42.54-20.06 17.89.93.67 18.65z"/><path fill="#ffd2d1" d="M364.05 305.11c-.16.1 11.01 31.12.8 39.27-8.79 7.01-27.34 2.51-27.69 1.22-.36-1.29 7.15-47.87 7.15-47.87l19.74 7.38z"/><path fill="#442878" d="m490.51 592.33 21.03-14.68s.76 9.34 5.26 10.7c4.51 1.36 20.51-11.67 29.31-7.47 7.99 3.81 9.24 10.4 9.24 10.4-11.17 9.81-30.15 16.42-33.35 18.67-5.54 3.9-13.27 9.36-17.06 7.1-6.42-3.83-14.43-24.72-14.43-24.72z"/><linearGradient id="p" x1="505.478" x2="429.102" y1="631.725" y2="390.845" gradientUnits="userSpaceOnUse"><stop offset="0" stop-color="#ff7e3d"/><stop offset="1" stop-color="#ffd473"/></linearGradient><path fill="url(#p)" d="M518.33 578.82c-7.99 9.4-19.14 15.72-32.36 20.02l-52.39-100.47s18.26-35.25 18.33-35.22c27.7 11.04 66.42 115.67 66.42 115.67z"/><path fill="#442878" d="M485.96 599.34c-.18 0-.35-.1-.44-.27L433.13 498.6a.493.493 0 0 1 .21-.67c.25-.13.55-.03.67.21l52.39 100.47c.13.25.03.55-.21.67-.07.04-.15.06-.23.06z"/><path fill="#ffd2d1" d="M446.43 458.97c-9.58-.33-23.59 7.05-23.59 7.05l1.45 14.11s6.13-1.7 11.23-2.73c5.1-1.03 7.43-4.94 12.24-7.42 4.81-2.48 13 .1 14.16-3.56 1.16-3.66-5.56-7.1-15.49-7.45z"/><linearGradient id="q" x1="1097.218" x2="1020.378" y1="-335.102" y2="-187.683" gradientTransform="rotate(-17.312 3025.035 2308.544)" gradientUnits="userSpaceOnUse"><stop offset="0" stop-color="#ff8ac1"/><stop offset="1" stop-color="#e64a6e"/></linearGradient><path fill="url(#q)" d="M339 397.96c-3.28 32.63 9.56 81.86 24.72 85.99 13.76 3.75 63.95-3.82 63.95-3.82l-2.23-16.11-41.17-7.25s-4.06-37.22-9.26-72.11c-2.74-18.35-32.27-23.85-36.01 13.3z"/><path fill="#442878" d="M375.63 485.5c-5 0-9.25-.3-12.05-1.07a.496.496 0 1 1 .26-.96c13.5 3.68 63.24-3.76 63.74-3.83.27-.04.53.15.57.42.04.27-.15.53-.42.57-1.63.24-32.6 4.87-52.1 4.87zM359.53 287.73c4.74 2.36 12.4 11.98 5.79 20.4-6.62 8.41-16.01 7-17.4 15.2 0 0-4.83-6.7-7.1-3.54-2.27 3.16-1.07 7.1 2.63 11.89 0 0 1.59 7.6 5.41 10.36 3.82 2.76 20.74 21.61 8.2 31.01-12.55 9.39-53.73 9.3-53.73-15.62 0-20.07 6.2-47 20.94-61.88 6.7-6.79 21.48-14.69 35.26-7.82z"/><path fill="#a3dcff" d="m307.07 547.42 25.02 7.45 1.66-44.09-26.68-3.52z"/><path fill="#a3dcff" d="M343.04 527.56c27.4 0 39.62-15.63 28.9-53.53-8.21-29.03 25.48-57.94-2.78-87.86-19.96-21.13-88.73-27.32-94.99-9.06-6.26 18.26 13.57 44.93 6.78 65.23-6.67 19.95-10.29 54.89 4.58 66.63 14.21 11.21 43.06 18.59 57.51 18.59z"/><path fill="#442878" d="M371.93 474.52c-.22 0-.42-.14-.48-.36-3.35-11.83.23-23.79 3.68-35.35 5.09-17.03 10.34-34.63-6.34-52.3-.19-.2-.18-.52.02-.71.2-.19.52-.18.71.02 17.08 18.08 11.74 35.97 6.57 53.27-3.41 11.43-6.94 23.25-3.68 34.79.08.27-.08.54-.34.62-.05.02-.09.02-.14.02z"/><path fill="#bae5ff" d="M361.65 515.63c-14.45 0-43.29-7.37-57.51-18.59-14.87-11.74-11.25-46.68-4.58-66.63 6.53-19.55-11.61-45.02-7.36-63.18-9.37 1.45-16.25 4.67-18.03 9.88-6.26 18.26 13.57 44.93 6.78 65.23-6.67 19.95-10.29 54.89 4.58 66.63 14.21 11.22 43.06 18.59 57.51 18.59 13.83 0 23.79-3.99 28.89-12.81-3.14.59-6.57.88-10.28.88z"/><path fill="#442878" d="M343.04 528.06c-14.25 0-43.14-7.11-57.82-18.7-14.84-11.72-11.71-46.34-4.75-67.18a.5.5 0 0 1 .63-.32c.26.09.4.37.32.63-6.87 20.57-10.04 54.66 4.42 66.08 14.29 11.29 43.42 18.49 57.2 18.49.28 0 .5.22.5.5s-.23.5-.5.5z"/><path fill="#ffd18f" d="M436.08 650.15c-.27 0-.49-.22-.5-.49-.01-.28.21-.5.49-.51 11.96-.24 23.81-2.16 35.23-5.71.27-.08.54.07.63.33.08.26-.07.54-.33.63a128.134 128.134 0 0 1-35.51 5.76l-.01-.01zM483.5 590.54c-.23 0-.44-.17-.49-.4-.05-.27.12-.53.39-.59 11.99-2.35 22.41-8.14 30.97-17.22.19-.2.51-.21.71-.02.2.19.21.51.02.71-8.7 9.23-19.3 15.13-31.5 17.52h-.1z"/><path fill="#442878" d="M349.04 319.29a.501.501 0 0 1-.37-.84c1.32-1.44 4.55-2.77 6.32-3.22.63-.16 1.26-.29 1.89-.42 1.09-.23 2.23-.46 3.28-.84 3.36-1.21 6.14-4.07 7.24-7.47 1.1-3.4.54-7.34-1.47-10.3-.16-.23-.1-.54.13-.69s.54-.1.69.13c2.18 3.2 2.79 7.48 1.59 11.17-1.2 3.68-4.21 6.79-7.85 8.1-1.12.4-2.29.64-3.41.88-.62.13-1.24.26-1.85.41-1.67.42-4.71 1.71-5.83 2.93a.5.5 0 0 1-.36.16zM356.42 371.88c-.27 0-.49-.22-.5-.49a.49.49 0 0 1 .49-.51c1.55-.04 3.15-.88 4.28-2.25.99-1.21 1.64-2.79 1.94-4.71.67-4.25-.73-8.85-3.66-12-1.82-1.97-4.2-3.41-6.49-4.81-.59-.36-1.17-.72-1.75-1.08-2.63-1.66-5.84-4.02-7.3-7.46-.11-.25.01-.55.27-.66.25-.11.55.01.66.27 1.35 3.19 4.4 5.42 6.91 7 .57.36 1.16.72 1.74 1.07 2.35 1.43 4.79 2.92 6.71 4.99 3.13 3.38 4.63 8.29 3.91 12.84-.33 2.09-1.05 3.84-2.16 5.18-1.31 1.6-3.19 2.58-5.03 2.62h-.02z"/><path fill="#492885" d="m1032.88 634.77-23.5-1.09s3.98 7.62 1.16 10.87c-2.83 3.27-21.62.99-26.38 8.55-4.33 6.87-2.07 12.59-2.07 12.59 13.47 2.14 31.42-2.03 35-1.84 6.2.31 14.88.76 16.7-2.84 3.1-6.12-.91-26.24-.91-26.24z"/><linearGradient id="r" x1="5748.816" x2="5561.22" y1="615.767" y2="520.086" gradientTransform="matrix(-1 0 0 1 6671.401 0)" gradientUnits="userSpaceOnUse"><stop offset="0" stop-color="#ff7e3d"/><stop offset="1" stop-color="#ffd473"/></linearGradient><path fill="url(#r)" d="M993.16 497.44c10.04-13.8 68.06-27.16 68.06-27.16l46.2 25.6c1.57 34.75-60.67 32.04-74.09 32.31l7.84 111.98c-13.85 3.51-27.38 4.46-40.54 2.46 0 .01-23.57-123.06-7.47-145.19z"/><path fill="#ffd18f" d="M1015.83 638c-3.78 0-7.56-.19-11.33-.56a.504.504 0 0 1-.45-.55.51.51 0 0 1 .55-.45c9.92.99 19.91.66 29.69-.96.27-.05.53.14.58.41s-.14.53-.41.58a113.85 113.85 0 0 1-18.63 1.53z"/><path fill="#442878" d="M1014.4 644.16c-4.71 0-9.33-.34-13.84-1.03a.5.5 0 0 1-.42-.4c-.03-.15-2.96-15.52-6.01-36.05a.5.5 0 1 1 .99-.15c2.79 18.8 5.49 33.27 5.94 35.66 12.62 1.87 26.07 1.02 39.99-2.5.27-.07.54.09.61.36.07.27-.09.54-.36.61-9.21 2.33-18.2 3.5-26.9 3.5z"/><path fill="#ffd2d1" d="m1072.11 330.43-4.86-19.47-17.27 4.78 3.38 18.35c6.78 5.83 13.14 6.1 18.75-3.66z"/><path fill="#ffd2d1" d="M1029.05 286.39c.18.06-4.02 32.77 7.72 38.51 10.1 4.94 27.23-3.46 27.3-4.8.07-1.34-17.34-45.19-17.34-45.19l-17.68 11.48z"/><path fill="#442878" d="M1023.98 264.11s-7.3 17.87 5.06 22.28c13.47 4.8 11.98 1.45 11.17 9.97-.81 8.52 7.59-.51 10.21 2.16 3.32 3.38 1.14 8.77-3.12 11.8-1.37.33.81 9.65 8.03 10.36 10.9 1.07 27.43-4.64 29.02-25.83 1.59-21.19-7.05-20.5-7.05-20.5s-1.9-7.82-7.69-11.22c-9.41-5.52-21.27-3.8-30.34 1.68-5.85 3.53-9.59 3.5-15.29-.7z"/><path fill="#a3dcff" d="M981.5 685.87c-.08 0-.15 0-.23-.01a2.494 2.494 0 0 1-2.26-2.72l13.45-147.38c.13-1.37 1.34-2.4 2.72-2.26 1.38.13 2.39 1.34 2.26 2.72L983.99 683.6a2.499 2.499 0 0 1-2.49 2.27zM1030.66 708.9h-.07a2.502 2.502 0 0 1-2.43-2.57l4.25-150.87c.04-1.38 1.19-2.48 2.57-2.43 1.38.04 2.47 1.19 2.43 2.57l-4.25 150.87a2.506 2.506 0 0 1-2.5 2.43zM1130.64 690.02c-1.2 0-2.26-.87-2.46-2.09l-24.44-146.72a2.5 2.5 0 0 1 2.06-2.88c1.36-.23 2.65.69 2.88 2.05l24.44 146.72a2.5 2.5 0 0 1-2.06 2.88c-.15.03-.29.04-.42.04zM1076.28 666.56c-1.23 0-2.31-.91-2.48-2.17l-18.86-140.81c-.18-1.37.78-2.63 2.15-2.81 1.37-.19 2.63.78 2.81 2.15l18.86 140.81c.18 1.37-.78 2.63-2.15 2.81-.11.02-.22.02-.33.02z"/><ellipse cx="1052.47" cy="535.38" fill="#8dc7eb" rx="64.92" ry="24.01"/><ellipse cx="1052.47" cy="530.91" fill="#a3dcff" rx="64.92" ry="24.01"/><path fill="#492885" d="m955.42 647.39-23.2-3.88s1.65 6.39-1.54 9.28c-3.2 2.9-20.19.06-25.82 6.99-5.11 6.3-3.56 12.26-3.56 12.26 13.12 3.73 31.43 1.74 34.97 2.34 6.12 1.05 14.68 2.53 16.92-.83 3.82-5.71 2.23-26.16 2.23-26.16z"/><linearGradient id="s" x1="5842.672" x2="5573.769" y1="640.771" y2="503.62" gradientTransform="matrix(-1 0 0 1 6671.401 0)" gradientUnits="userSpaceOnUse"><stop offset="0" stop-color="#ff7e3d"/><stop offset="1" stop-color="#ffd473"/></linearGradient><path fill="url(#s)" d="M951.2 494.33c10.04-13.8 83.53-17.03 83.53-17.03l72.69 18.58c8.6 19.22-1.39 35.56-35.3 40.12-36.87 4.96-84.56-5.08-84.56-5.08l-21.19 125.05c-16.38.49-30.87-1.61-41.93-8.4-.02 0 10.67-131.11 26.76-153.24z"/><path fill="#442878" d="M966.36 656.46c-.03 0-.06 0-.08-.01a.5.5 0 0 1-.41-.58l21.19-125.05c.02-.13.1-.25.21-.33.11-.08.25-.1.38-.08.29.06 29.74 6.19 59.84 6.44.28 0 .5.23.5.5 0 .28-.23.5-.5.5-28.02-.23-55.48-5.54-59.53-6.36l-21.1 124.54c-.05.26-.26.43-.5.43z"/><linearGradient id="t" x1="1088.995" x2="1021.379" y1="461.508" y2="334.88" gradientUnits="userSpaceOnUse"><stop offset="0" stop-color="#3b3b94"/><stop offset="1" stop-color="#9963eb"/></linearGradient><path fill="url(#t)" d="M1053.36 334.08s-19.43 4.36-27.22 14.92c-6.36 8.62-1.97 21.27 2.32 39.91 5.16 22.42 4.18 74.36-6.81 89.21-4.18 5.64 44.37 30.03 85.77 17.75 9.7-36.18 23.03-85.69 6.1-131.87-10.76-29.36-41.4-33.58-41.4-33.58-4.75 7.45-11.07 8.38-18.76 3.66z"/><path fill="#ffd2d1" d="M918.98 377.71c3.52-1.72 11.99 12.26 20.7 12.4 1.94.03-3.16-5.79-.86-6.75 2.3-.96 8.74 8.96 8.74 8.96l-5.66 11.39s-7.48-2.35-14.96-6.84c-4.87-2.92-11.48-17.43-7.96-19.16z"/><linearGradient id="u" x1="1053.511" x2="986.667" y1="480.962" y2="355.782" gradientUnits="userSpaceOnUse"><stop offset="0" stop-color="#3b3b94"/><stop offset="1" stop-color="#9963eb"/></linearGradient><path fill="url(#u)" d="M1059.87 380.43c-4.44 14.8-40.54 61.22-52.04 62.6-19.24 2.31-67.4-38.26-67.4-38.26l7.51-14.63 47.07 20.32s22.58-49.47 26.38-54.48c23.5-31.03 46.53-2.37 38.48 24.45z"/><path fill="#9879fc" d="M943.82 407.47c-.08 0-.17-.02-.25-.06a.497.497 0 0 1-.19-.68l7.7-13.66c.14-.24.44-.33.68-.19.24.14.33.44.19.68l-7.7 13.66c-.08.16-.25.25-.43.25z"/><path fill="#442878" d="M1006.17 443.63c-20.15 0-64.14-36.85-66.06-38.47a.494.494 0 0 1-.06-.7c.18-.21.49-.24.7-.06.48.4 48.2 40.38 67.02 38.14 10.76-1.29 47.03-46.92 51.62-62.24.08-.26.36-.41.62-.34.26.08.41.36.34.62-4.28 14.27-40.25 61.49-52.46 62.95-.55.06-1.13.1-1.72.1z"/><path fill="#b3e2ff" d="M1057.42 520.13c-15.52.64-34.97-15.87-19.32-52.02 15.65-36.15-26.35-70.58 6-96.02 32.35-25.44 77.68-17.35 83.94.91 6.26 18.26-9.62 44.87-1.9 72.84 5.6 20.28 9.83 50.11 1.96 57.07-13.56 11.99-55.53 16.59-70.68 17.22z"/><path fill="#a3dcff" d="M1126.14 445.84c-7.72-27.97 8.16-54.58 1.9-72.84-2.1-6.12-8.59-11.1-17.51-14.05 5.14 18.21-9.83 44.23-2.29 71.56 5.6 20.28 9.83 50.11 1.96 57.07-13.57 12-55.53 16.59-70.68 17.22-1.68.07-3.4-.07-5.11-.41 4.25 11 14.25 16.1 23.01 15.74 15.15-.63 57.12-5.22 70.68-17.22 7.87-6.96 3.64-36.79-1.96-57.07z"/><path fill="#a3dcff" d="m1102.96 541.5-25.01 7.45-1.67-44.09 26.68-3.52z"/><path fill="#442878" d="M1057.42 520.63c-.27 0-.49-.21-.5-.48-.01-.28.2-.51.48-.52 13.89-.57 56.64-4.95 70.37-17.09 7.05-6.23 4.17-33.79-2.11-56.56-.07-.27.08-.54.35-.62.26-.07.54.08.61.35 5.28 19.12 10.11 50.23 1.81 57.58-13.95 12.34-57.01 16.76-70.99 17.34h-.02zM987.55 531.41c-.04 0-.08 0-.12-.01-.33-.08-8.01-1.98-11.21-7.91a.506.506 0 0 1 .2-.68c.24-.13.55-.04.68.2 2.98 5.53 10.49 7.39 10.56 7.41.27.06.43.33.37.6a.49.49 0 0 1-.48.39zM1076.93 275.08c-.03 0-.06 0-.09-.01a.514.514 0 0 1-.41-.58c.61-3.55-.54-7.38-3.08-10.24-2.37-2.67-5.92-4.46-9.74-4.91-3.56-.42-7.33.26-10.91 1.95a.504.504 0 0 1-.43-.91c3.75-1.78 7.71-2.49 11.46-2.04 4.06.48 7.84 2.39 10.37 5.24 2.74 3.09 3.98 7.23 3.32 11.08-.04.24-.25.42-.49.42z"/><path fill="#442878" d="M1083.39 276.97c-.17 0-.34-.09-.43-.24a4.612 4.612 0 0 0-2.57-2.02 4.588 4.588 0 0 0-3.26.23.504.504 0 0 1-.43-.91c1.23-.58 2.68-.68 3.98-.28 1.3.4 2.44 1.3 3.14 2.47.14.24.06.54-.17.69-.09.04-.18.06-.26.06z"/><path fill="#442878" d="M1076.36 274.22c-.07 0-.14-.01-.21-.04a.502.502 0 0 1-.25-.66c.45-.99 1.44-1.74 2.72-2.04 1.08-.26 2.21-.18 3.2-.11.28.02.48.26.47.53-.02.28-.25.48-.53.47-.97-.07-1.97-.13-2.9.09-.96.23-1.72.79-2.04 1.49-.09.16-.27.27-.46.27z"/><path fill="#9879fc" d="M1059.84 342.08c-2.26 0-4.52-.29-6.69-.88a.496.496 0 1 1 .26-.96c7.29 1.98 15.57.42 21.63-4.08.22-.17.53-.12.7.1.16.22.12.53-.1.7-4.49 3.34-10.17 5.12-15.8 5.12zM1068.78 345.95a.498.498 0 0 1-.18-.96l7.59-3.04c.26-.1.55.02.65.28.1.26-.02.55-.28.65l-7.59 3.04a.68.68 0 0 1-.19.03z"/><path fill="#ffd18f" d="M960.92 650.04c-11.08 0-22.27-2.41-32.36-6.97-.25-.11-.36-.41-.25-.66s.41-.36.66-.25c10.01 4.52 21.07 6.86 32.08 6.88.28 0 .5.22.5.5s-.22.5-.5.5h-.13zM947.4 538.57h-.03a.487.487 0 0 1-.47-.52c.74-14.68 5.08-29.14 12.54-41.81.14-.24.44-.32.68-.18.24.14.32.45.18.68a90.793 90.793 0 0 0-12.4 41.35c-.01.27-.23.48-.5.48zM1024.83 526.98c-8.29 0-16.62-.66-24.8-1.98a.49.49 0 0 1-.41-.57c.04-.27.3-.46.57-.42a155.25 155.25 0 0 0 27.15 1.94h.01c.27 0 .5.22.5.49 0 .28-.22.5-.49.51-.84.02-1.69.03-2.53.03z"/><path fill="#492885" d="m666.72 760.93-28.37-.67s.96 16.44-1.76 18.99c-2.71 2.55-15.15 2.35-17.12 6.77-1.97 4.42.68 12.04.68 12.04l43.63.86s3.92-8.6 1.13-15.29c-1.5-3.58 1.81-22.7 1.81-22.7zM767.67 760.93l28.37-.67s-.96 16.44 1.76 18.99c2.71 2.55 15.15 2.35 17.12 6.77 1.97 4.42-.68 12.9-.68 12.9h-43.63s-3.92-8.6-1.13-15.29c1.5-3.58-1.81-22.7-1.81-22.7z"/><linearGradient id="v" x1="720.193" x2="720.193" y1="409.528" y2="495.877" gradientUnits="userSpaceOnUse"><stop offset="0" stop-color="#ff7e3d"/><stop offset="1" stop-color="#ffd473"/></linearGradient><path fill="url(#v)" d="M788.08 455.81H652.3c0-17.28 14.01-31.28 31.28-31.28h73.21c17.29 0 31.29 14.01 31.29 31.28z"/><linearGradient id="w" x1="685.226" x2="685.226" y1="538.603" y2="856.383" gradientUnits="userSpaceOnUse"><stop offset="0" stop-color="#ff8ac1"/><stop offset="1" stop-color="#e64a6e"/></linearGradient><path fill="url(#w)" d="M721.17 578.96s-72 23.48-76.89 47.24c-4.15 20.16-11.44 147.22-11.44 147.22 12.19 3.82 24.35 6.93 36.07 2.01l19.24-141.16 49.46-1.68-16.44-53.63z"/><path fill="#d64079" d="M656 770.87c-4.62 0-9.24-.3-13.82-.91-3.33-.44-5.21-1.56-5.76-3.43-.08-.27.07-.54.34-.62.27-.08.54.07.62.34.43 1.45 2.04 2.34 4.93 2.72 7.56 1 15.23 1.17 22.82.5.29-.01.52.18.54.45.02.28-.18.52-.45.54-3.06.27-6.14.41-9.22.41z"/><path fill="#442878" d="M632.85 773.91h-.03a.496.496 0 0 1-.47-.53c.07-1.27 7.34-127.32 11.45-147.29 4.89-23.77 74.27-46.65 77.22-47.61.26-.08.54.06.63.32a.5.5 0 0 1-.32.63c-.72.23-71.78 23.66-76.55 46.86-4.09 19.9-11.35 145.88-11.43 147.15-.02.27-.24.47-.5.47z"/><linearGradient id="x" x1="747.071" x2="747.071" y1="538.603" y2="856.382" gradientUnits="userSpaceOnUse"><stop offset="0" stop-color="#ff8ac1"/><stop offset="1" stop-color="#e64a6e"/></linearGradient><path fill="url(#x)" d="M711.13 578.96s72 23.32 76.89 46.93c4.15 20.03 11.44 146.25 11.44 146.25-11.57 6.65-23.56 7.41-35.89 3.29L744.15 633.9l-49.46-1.67 16.44-53.27z"/><path fill="#d64079" d="M775.52 771.29c-3.55 0-7.1-.29-10.61-.87a.496.496 0 0 1-.41-.58c.04-.27.3-.46.57-.41 10.18 1.69 20.75.87 30.55-2.35a.5.5 0 0 1 .31.95 65.243 65.243 0 0 1-20.41 3.26z"/><path fill="#442878" d="M763.56 775.93c-.25 0-.46-.18-.49-.43l-19.41-141.52a.49.49 0 0 1 .43-.56c.27-.04.53.15.56.43l19.41 141.52a.49.49 0 0 1-.43.56c-.02-.01-.05 0-.07 0z"/><path fill="#a3dcff" d="M643.54 813.84c-.11 0-.22-.01-.33-.02a2.502 2.502 0 0 1-2.15-2.81l22.05-165.86a2.496 2.496 0 0 1 2.81-2.15c1.37.18 2.33 1.44 2.15 2.81l-22.05 165.86a2.5 2.5 0 0 1-2.48 2.17zM793.39 813.84c-1.23 0-2.31-.91-2.48-2.17l-22.05-165.86a2.502 2.502 0 1 1 4.96-.66l22.05 165.86c.18 1.37-.78 2.63-2.15 2.81-.11.01-.22.02-.33.02zM685.23 613.52h66.47v22.92h-66.47z"/><path fill="#a3dcff" d="M758.29 440.17h-72.21c-28.36 0-50.93 16.67-49.46 36.53 5.92 38.62 13.03 77.67 12.03 113.84-.35 12.57 10.57 22.99 24.36 22.99h96.4c13.78 0 24.96-10.42 24.36-22.99-1.58-33.11 9.16-75.77 13.99-113.84 1.46-19.86-21.11-36.53-49.47-36.53z"/><path fill="#bae5ff" d="M671.58 608.94c1-35.95-6.07-74.76-11.96-113.14-1.46-19.74 20.97-36.3 49.16-36.3h71.77c9.1 0 17.59 1.73 24.88 4.74-6.4-13.9-25.01-24.06-47.15-24.06h-72.21c-28.36 0-50.93 16.67-49.46 36.53 5.92 38.62 13.03 77.67 12.03 113.84-.34 12.25 10.03 22.45 23.31 22.97-.28-1.5-.41-3.02-.37-4.58z"/><path fill="#442878" d="M769.41 614.02h-96.4c-.28 0-.5-.22-.5-.5s.22-.5.5-.5h96.4c6.95 0 13.55-2.74 18.11-7.52 3.97-4.16 6.01-9.47 5.75-14.94-1.07-22.42 3.57-49.63 8.05-75.94 2.15-12.61 4.37-25.65 5.94-37.99.04-.27.28-.47.56-.43.27.04.47.29.43.56-1.57 12.36-3.79 25.41-5.94 38.03-4.48 26.26-9.1 53.41-8.04 75.72.27 5.75-1.86 11.32-6.02 15.68-4.76 4.98-11.62 7.83-18.84 7.83z"/><path fill="#a3dcff" d="M775.54 647.79H661.39a5.16 5.16 0 0 1-5.16-5.16v-1.03a5.16 5.16 0 0 1 5.16-5.16h114.16a5.16 5.16 0 0 1 5.16 5.16v1.03a5.175 5.175 0 0 1-5.17 5.16z"/><path fill="#442878" d="M780.7 642.11c-.28 0-.5-.22-.5-.5 0-2.57-2.09-4.66-4.66-4.66H710.9c-.28 0-.5-.22-.5-.5s.22-.5.5-.5h64.64c3.12 0 5.66 2.54 5.66 5.66 0 .27-.22.5-.5.5z"/><path fill="#ffd2d1" d="M733.3 424.53c-6.3 6.54-14.83 6.54-25.57 0v-13.18h25.57v13.18z"/><path fill="#442878" d="M702.49 348.71c-3.91-1.57-10.95 1.57-14.47 11.87-4.63 13.55-.39 55.67 33.26 55.82 31.04.14 39.54-30.1 35.8-52.24-4.99-29.57-49.61-29.37-54.59-15.45z"/><path fill="#442878" d="M753.79 357.26c-.2 0-.4-.13-.47-.33-3.56-9.72-12.45-17.16-22.65-18.94-9.93-1.74-24.97 3.04-27.71 10.89-.09.26-.38.4-.64.31s-.4-.38-.31-.64c2.94-8.41 18.32-13.38 28.83-11.54 10.55 1.84 19.74 9.53 23.42 19.58a.501.501 0 0 1-.47.67z"/><path fill="#442878" d="M702.85 350.05c-.14 0-.27-.06-.37-.17-2.34-2.63-6.29-3.66-9.61-2.51a.506.506 0 0 1-.64-.31c-.09-.26.05-.55.31-.64 3.69-1.29 8.09-.14 10.69 2.79.18.21.16.52-.04.71-.1.09-.22.13-.34.13z"/><path fill="#442878" d="M703.57 350.36a.5.5 0 0 1-.5-.49c-.09-3.04-2.12-5.94-4.95-7.05-.26-.1-.38-.39-.28-.65s.39-.38.65-.28c3.18 1.26 5.48 4.53 5.58 7.96a.49.49 0 0 1-.49.51h-.01z"/><linearGradient id="y" x1="839.859" x2="831.847" y1="196.176" y2="100.034" gradientUnits="userSpaceOnUse"><stop offset="0" stop-color="#ff7e3d"/><stop offset="1" stop-color="#ffd473"/></linearGradient><path fill="url(#y)" d="M846.21 106.66c-32.2-9.05-74.92 15.51-61.69 49.04 8.2 19.36 33.71 21.23 50.34 12.76 29.26-14.9 47.98-7.79 55.36 5.51 4.21-17.26-11.89-58.28-44.01-67.31z"/><path fill="#442878" d="M887.22 178.47a.49.49 0 0 1-.44-.26c-6.94-12.5-24.95-20.46-54.7-5.31-11.64 5.93-26.14 6.5-36.94 1.46a.501.501 0 0 1-.24-.67c.12-.25.41-.36.66-.24 10.37 4.84 24.86 4.26 36.06-1.44 30.38-15.47 48.86-7.19 56.03 5.72.13.24.05.55-.19.68-.08.04-.16.06-.24.06zM781.51 160.19c-.2 0-.39-.12-.47-.32-4.84-12.27-2.57-24.48 6.39-34.4 12.95-14.33 36.46-20.77 55.91-15.3.27.07.42.35.35.62s-.35.42-.62.35c-18.79-5.28-42.39 1.17-54.9 15.01-8.69 9.62-10.89 21.47-6.2 33.36.1.26-.02.55-.28.65-.05.02-.12.03-.18.03z"/><path fill="#fff" d="M850.29 124.03h-46.46c-.28 0-.5-.22-.5-.5s.22-.5.5-.5h46.46c.28 0 .5.22.5.5s-.22.5-.5.5zM864.94 135.06h-39.88c-.28 0-.5-.22-.5-.5s.22-.5.5-.5h39.88c.28 0 .5.22.5.5s-.22.5-.5.5zM815.26 135.06h-19.98c-.28 0-.5-.22-.5-.5s.22-.5.5-.5h19.98c.28 0 .5.22.5.5s-.22.5-.5.5zM853.21 146.45h-52.13c-.28 0-.5-.22-.5-.5s.22-.5.5-.5h52.13c.28 0 .5.22.5.5s-.22.5-.5.5zM825.06 155.7h-17.3c-.28 0-.5-.22-.5-.5s.22-.5.5-.5h17.3c.28 0 .5.22.5.5s-.22.5-.5.5z"/><linearGradient id="z" x1="282.248" x2="282.248" y1="212.938" y2="338.258" gradientUnits="userSpaceOnUse"><stop offset="0" stop-color="#ff8ac1"/><stop offset="1" stop-color="#e64a6e"/></linearGradient><path fill="url(#z)" d="M286.67 207.95c-32.5-7.95-72.78 20.64-55.99 52.53 10.26 18.36 40.21 19.45 55.99 9.48 28.47-17.99 51.08-2.83 51.08-2.83s-5.13-47.94-51.08-59.18z"/><path fill="#442878" d="M334.75 271.63c-.25 0-.47-.19-.5-.45-.05-.48-5.64-47.72-50.7-58.74a.506.506 0 0 1-.37-.6c.07-.27.34-.43.6-.37 45.76 11.19 51.41 59.12 51.46 59.61.03.27-.17.52-.44.55h-.05zM259.74 280.7c-4.08 0-8.16-.47-12.01-1.45-6.57-1.67-15.47-5.55-20.48-14.53-7.85-14.9-4.02-30.72 10.23-42.33.22-.17.53-.14.7.07.17.21.14.53-.07.7-13.85 11.29-17.59 26.65-9.98 41.08 4.84 8.66 13.47 12.41 19.85 14.04 11.9 3.03 26.14 1.12 35.42-4.75.23-.15.54-.08.69.16s.08.54-.16.69c-6.49 4.11-15.35 6.32-24.19 6.32z"/><path fill="#fff" d="M300.75 225.46h-46.46c-.28 0-.5-.22-.5-.5s.22-.5.5-.5h46.46c.28 0 .5.22.5.5s-.22.5-.5.5zM315.4 236.49h-39.88c-.28 0-.5-.22-.5-.5s.22-.5.5-.5h39.88c.28 0 .5.22.5.5s-.22.5-.5.5zM265.72 236.49h-19.98c-.28 0-.5-.22-.5-.5s.22-.5.5-.5h19.98c.28 0 .5.22.5.5s-.23.5-.5.5zM303.67 247.88h-52.13c-.28 0-.5-.22-.5-.5s.22-.5.5-.5h52.13c.28 0 .5.22.5.5s-.22.5-.5.5zM275.52 257.13h-17.3c-.28 0-.5-.22-.5-.5s.22-.5.5-.5h17.3c.28 0 .5.22.5.5s-.23.5-.5.5z"/><linearGradient id="A" x1="6511.516" x2="6423.377" y1="702.723" y2="549.045" gradientTransform="matrix(-1 0 0 1 7606.364 0)" gradientUnits="userSpaceOnUse"><stop offset="0" stop-color="#ff7e3d"/><stop offset="1" stop-color="#ffd473"/></linearGradient><path fill="url(#A)" d="M1102.37 618.92c14.84-25.56 51.29-30.3 69.34-53.71-2.62 11.9.07 24.22 1 36.36 1.7 22.11-2.88 45.27-16.07 63.1-5.6 7.57-12.82 13.94-21.01 18.58-7.35 4.17-31.97 9.08-37.58 1.12-2.16-3.07-2.54-11.2-2.71-14.94-.26-5.77-.5-11.55-.44-17.33.11-10.23 1.35-20.74 5.82-30.06.51-1.06 1.06-2.1 1.65-3.12z"/><path fill="#b3b3b3" d="M1103.61 686.12h-.01a.508.508 0 0 1-.49-.51c.2-8.18.41-16.64 3.07-24.6 4.33-12.93 14.62-22.89 23.7-31.67 8.99-8.69 19.17-18.54 23.41-31.29a.5.5 0 0 1 .63-.32c.26.09.4.37.32.63-4.31 12.98-14.59 22.92-23.66 31.7-9 8.7-19.19 18.57-23.45 31.27-2.62 7.82-2.82 16.2-3.02 24.31-.01.26-.23.48-.5.48z"/><path fill="#b3b3b3" d="M1132.25 628.11a.502.502 0 0 1-.06-1c4.84-.52 9.84-1.07 14.43-2.86 4.45-1.74 8.39-4.6 12.21-7.37.22-.16.54-.11.7.11s.11.54-.11.7c-3.87 2.81-7.87 5.71-12.43 7.49-4.72 1.84-9.79 2.39-14.69 2.92-.01.01-.03.01-.05.01zM1119.48 640.61a.49.49 0 0 1-.48-.37c-2.53-9.12-1.91-18.96 1.76-27.68a.5.5 0 0 1 .65-.27c.25.11.37.4.27.65a41.47 41.47 0 0 0-1.72 27.03c.07.27-.08.54-.35.62-.04.01-.08.02-.13.02zM1117.76 661.77c-3.24 0-6.48-.26-9.69-.77a.49.49 0 0 1-.41-.57c.04-.27.3-.46.57-.42 10.56 1.7 21.4.54 31.37-3.33.26-.1.55.03.65.28.1.26-.03.55-.28.65a61.363 61.363 0 0 1-22.21 4.16z"/><path fill="#442878" d="M1097.72 626.54a.5.5 0 0 1-.45-.72 44.79 44.79 0 0 1 1.67-3.15c7.96-13.72 22.31-21.61 36.19-29.24 12.19-6.71 24.8-13.65 33.19-24.52.17-.22.48-.26.7-.09.22.17.26.48.09.7-8.51 11.04-21.21 18.03-33.5 24.79-13.76 7.57-27.98 15.4-35.81 28.87-.57.99-1.12 2.02-1.63 3.08a.5.5 0 0 1-.45.28zM1108.25 693.15c-6.02 0-11.3-1.22-13.61-4.5-.16-.23-.1-.54.12-.7s.54-.1.7.12c5.4 7.68 29.52 2.94 36.92-1.26 8.12-4.61 15.33-10.99 20.85-18.44 12.15-16.41 17.82-38.7 15.97-62.76-.02-.28.18-.52.46-.54.24-.02.52.18.54.46 1.86 24.3-3.88 46.83-16.17 63.43-5.6 7.57-12.92 14.04-21.16 18.72-4.71 2.68-15.51 5.47-24.62 5.47z"/><linearGradient id="B" x1="6110.031" x2="6173.34" y1="-178.933" y2="-145.661" gradientTransform="scale(-1 1) rotate(8.222 -3313.506 -50485.587)" gradientUnits="userSpaceOnUse"><stop offset="0" stop-color="#ffabda"/><stop offset="1" stop-color="#9963eb"/></linearGradient><path fill="url(#B)" d="M1146.25 702.68c8.15-2.82 14.6-9.23 19.53-16.31 4.93-7.08 8.61-14.94 13.15-22.28 4.54-7.34 10.15-14.33 17.73-18.44-14.02-4.53-29.56-4.74-43.4.33s-25.78 15.58-31.73 29.06c-1.85 4.18-3.11 8.67-3.47 13.23-.21 2.67-.09 5.51 1.16 7.93 2.48 4.81 8.64 6.14 13.46 7.18 4.51.99 9.19.81 13.57-.7z"/><path fill="#442878" d="M1175.93 668.59a.42.42 0 0 1-.26-.08.49.49 0 0 1-.16-.69c5.65-9.14 11.35-15.05 17.92-18.61.24-.13.54-.04.68.2.13.24.04.55-.2.68-6.41 3.48-11.99 9.28-17.55 18.26-.09.16-.26.24-.43.24zM1115.06 692.78h-.04a.497.497 0 0 1-.46-.54c.35-4.39 1.53-8.9 3.52-13.4 5.89-13.33 17.56-24.02 32.02-29.32a.501.501 0 0 1 .34.94c-14.21 5.21-25.67 15.7-31.45 28.79-1.94 4.4-3.1 8.79-3.43 13.07-.02.26-.24.46-.5.46z"/><path fill="#b3b3b3" d="M1125.37 698.59c-.05 0-.09-.01-.14-.02a.493.493 0 0 1-.34-.62c3.6-12.5 11.03-24.04 20.9-32.51 9.87-8.47 22.41-14.04 35.31-15.7.27-.04.52.16.56.43.04.27-.16.52-.43.56-12.71 1.63-25.06 7.13-34.79 15.47s-17.04 19.71-20.59 32.02a.49.49 0 0 1-.48.37z"/><path fill="#b3b3b3" d="M1171.55 662.66c-.05 0-.09-.01-.14-.02-6.13-1.8-12.7-2.14-18.99-.98a.499.499 0 0 1-.18-.98 42.11 42.11 0 0 1 19.45 1c.27.08.42.36.34.62a.51.51 0 0 1-.48.36zM1137.31 675.87c-.23 0-.44-.17-.49-.4-1.15-5.91.58-12.42 4.51-16.98.18-.21.5-.23.71-.05.21.18.23.5.05.71-3.74 4.33-5.38 10.51-4.29 16.13.05.27-.12.53-.4.59-.03-.01-.06 0-.09 0zM1130.56 687.15c-.2 0-.39-.12-.47-.32-.1-.26.03-.55.29-.64 7.35-2.8 15.63-3.39 23.3-1.66a.503.503 0 0 1-.22.98c-7.48-1.68-15.56-1.11-22.73 1.62a.88.88 0 0 1-.17.02z"/><circle cx="453.56" cy="315.14" r="5.24" fill="#ffb157"/><circle cx="1153.27" cy="530.91" r="5.24" fill="#ff87ad"/><circle cx="439.22" cy="342.35" r="2.63" fill="#9187ff"/><circle cx="638.68" cy="316.75" r="2.63" fill="#ff87ad"/><circle cx="223.74" cy="490.12" r="2.63" fill="#9187ff"/><circle cx="1181.17" cy="490.12" r="2.63" fill="#9187ff"/><circle cx="841.35" cy="276.98" r="2.63" fill="#ffb157"/></svg>