<svg xmlns="http://www.w3.org/2000/svg" data-name="&lt;Layer&gt;" viewBox="0 0 2745 1830"><g data-name="Ñëîé 4"><path fill="#ffe3cc" fill-rule="evenodd" d="M1353.52,861.12c-8.19-1.67-9.23-13.46-14.11-20.29-3.93-5.5-10.22-12-15-16.76-22.46-22.46-49.49-39-67-65.27-9.79-14.69-14-35.95-14-35.95s.29-29.67-1.47-54.42c-1.14-16-3.18-33.92-5.1-43.53-2.3-11.51-28.3-13.3-36.39-20-17.51-14.59-21.74-19.07-26-40.6-1.63-8.14-.74-18.32,1-26.87,1.92-9.65,17.18-18.65,17.18-18.65s16.64-10.76,20.75-14.87c10.39-10.39,17.41-28.36,24.7-41.47,22-39.66,40.06-81,71.45-114.67,20.87-22.36,43.42-40.89,75.86-34.4,7.49,1.5,13.92,7.65,20.29,11.47,15.7,9.41,34.65,20.5,44.11,37.05,8.09,14.16,13.83,33.23,25.57,45,19.1,19.09,48.08,30,55.58,60,2.76,11,4,23.9,1.76,35.28-1.35,6.78-6.06,21.24-6.06,21.24s11.94,2.25,15.13,6.08c10.71,12.86,6.85,33.28,1.31,48.51-4.57,12.58-31.12,30.05-31.12,30.05s-3.93,17.69-6.11,23.68c-3.4,9.33-12.36,30.7-15.74,37.07s-23.41,30-23.41,30l.9,37.07s9,1.63,6,11.48c-4,13.44-13.18,25.77-21.17,37-13,18.36-29.8,44.89-51.16,55.58-6,3-12.7,4.61-18.53,7.94C1371.32,854.35,1367.14,863.9,1353.52,861.12Z"/><path fill="#fff" fill-rule="evenodd" d="M851.84,1590.52c19.11,16.78,45.16,25,67.93,31.28s67.54,15.34,67.54,15.34-11.7,66.44-17.86,120.55c-3,26.53-4.72,50.09-5.66,67.23h832.33c-.92-22.23-2.94-56.27-7.33-93.79-6.75-57.7-16.69-110-16.69-110s19.66,3,44.72-5.54c19.36-6.56,46.06-22.79,67.81-48.76,32.22-38.45,59.19-123.49,53.06-200.83-1-12.53-5.48-40.56-12.29-75.25-6.93-35.23-16.24-77.44-25.47-129.46-8.77-49.49-14.77-104.37-24.29-151.08-9.46-46.38-22.42-84.71-34.4-97.12-8-8.25-22.26-22.37-33.23-30-48.83-33.84-117.35-51.13-175.67-74.79-41-16.64-81.63-39.92-81.63-39.92l-80.62-69.59-3.13,1.71s5.18,65.48-9.81,121.61C1431.82,917,1385.28,1189,1385.28,1189l-140-464.78-3.23-22-70,66.75a455,455,0,0,1-49.58,19.86c-14.55,4.94-35.52,10.42-49.49,13.82l-3.53.85c-49.61,11.93-101.38,21.83-143.28,52.07-20.43,14.74-42.11,37-53.32,61.68-12.46,27.44-24.47,65.92-31.14,109.12-11.4,73.78-19.57,173.33-24,258.07-4.8,92.39-6.48,173.24-3.26,213C818.29,1544.38,831.23,1572.42,851.84,1590.52Z"/><path fill="#ffe3cc" fill-rule="evenodd" d="M1665.73,1184.76s-.82-29.53-.82-31.67c0-16-2.75-49.58-5.9-65.39s-21.87-44.32-27.29-57.86c-3.88-9.7-12-30.94-14.58-41.35-3.77-15.07-12.79-32.66-8.2-48.74,3.33-11.66,19.27-23.1,25.2-33.47,4.45-7.8,15.73-26.58,24.18-31.64,7-4.21,11.94-1.79,11.94-1.79s3.7-30.49,4.79-46.9,7.07-45.41,10.65-61.53c4.55-20.48,8.1-43.65,18-61.94,6.54-12.14,16.72-37.13,31.17-23,7.9,7.73.89,33.21-2,46.88-4.68,21.86-7.8,61.68-9.21,76.39s-1.22,48.62-1.22,48.62,11.23,2.91,15.74,6.13c7.89,5.64,11,9.62,11,9.62s10.9,1.14,13.1,1.69c7.82,2,19.92,6.05,25.79,10.35,7.45,5.46,11.93,18,11.93,18s11.52,6.8,16.21,9.44c7.09,4,15.21,11.23,17.18,23,3.68,22.14-2.59,79.15-11.39,101.17-12,30-20.92,34-25.23,54-5.61,26.07-1,56.35.88,82.09.63,8.69,4.83,28.54,4.83,28.54s-9,9.69-21.29,13.63c-17.56,5.64-40.91,6-46.49,4.93-16.92-3.39-41.9-2.22-55.57-15.89C1674.14,1193.21,1665.73,1184.76,1665.73,1184.76Z"/><path fill="#ffe3cc" fill-rule="evenodd" d="M1493.31,1570.28s3.18-14.46,3.52-19c.94-12.21.33-24.82.84-37.07.37-8.85-2.33-57.81-2.33-57.81s26.59-3.11,31.65-6.72c21.82-15.59,36.65-38.49,50.73-61,12.23-19.56,25-49.28,33.33-61.31,3.47-5,21.48-14.07,21.48-14.07s5.2,53.77,10,96.08c2,17.2,5.15,36,5.73,43.87,1.44,19.42,10.74,59.42,10.74,59.42s-14.29,19.29-19.44,23.51c-31.52,25.79-70.72,24-100.6,26.91C1527.23,1564.28,1493.31,1570.28,1493.31,1570.28Z"/><path fill="#fff" fill-rule="evenodd" d="M1435.36,627.62s-27.45,4.43-40.32,3c-6.33-.7-19.61-.15-25.89-1-7.61-1.09-31.73-4.29-31.73-4.29s9.63,25.93,17.68,32.38c4.12,3.29,9.52,9.08,14.19,11.09,8,3.43,22.37,6.48,36.55-.16C1425.05,659.61,1435.36,627.62,1435.36,627.62Z"/><path fill="#e9a479" fill-rule="evenodd" d="M1192.59,516.57s-10.5-45.59-14.32-67.22c-5.82-32.94-7.27-51.08-4.18-82.92,2.88-29.63,7.6-71.48,29.72-95.6a108.87,108.87,0,0,1,36.57-25.54c19.67-8.21,32.63-.83,50.13-7.5,20-7.61,30.51-18.07,46.76-25.39,12.68-5.71,42.43-9.94,59.32-7.52,18.15,2.59,34.2,6.69,52.64,16.52,13.33,7.11,30.69,24,41.15,31.57,19.25,14,29.49,26,42.47,46.38,4.84,7.61,11.17,26,14.32,34.16,10.91,28.35,9.15,68.24,6.1,98.73-3,29.77-4.2,41.62-10.63,70.54-1.48,6.68-5.92,23.85-5.92,23.85L1526.2,525s.16-8,.16-13.16c0-12.92,0-34.16-8.39-45.38-4.11-5.48-12.49-7.89-21.37-13-11.29-6.48-15-8.58-24.31-17.87-12.4-12.4-21.26-21.6-29.32-37-11.46-21.85-29.67-51.41-56.68-54.41-6.63-.74-30,7.55-36.79,8.3-15.65,1.74-27.52,2.49-35,15.3-5.78,9.9-11.49,40.65-22.46,62.18-10.47,20.54-21.68,28.89-21.68,28.89s-1.11-3.88-10.53,21.63-15.18,40.44-35.51,43.83C1220.5,525,1192.59,516.57,1192.59,516.57Z"/><path fill="#b5b3c2" fill-rule="evenodd" d="M1453,1451.18s4.66,26,4.33,38.6c-.15,5.59-.49,26-1,35.11s-7.32,55.57-9,64.72-8.49,30.28-8.49,30.28,12.15-1.5,18.8-1.33,20.78,1.2,25.46-7.66c7.65-14.47,12.07-44.85,14.48-68.21,1.16-11.32,1-32,1.49-45.92.38-10.85,1.52-34.14-5.66-42.93C1491.14,1451,1453,1451.18,1453,1451.18Z"/><path fill="#b5b3c2" fill-rule="evenodd" d="M1660.94,1253s1.23-19.84.41-32.57-1-36.65,1.09-40c1.59-2.51,6.86,9,18.61,16.15s33,13.68,50.78,15.73,43.93-2.87,53.1-6.7,20.58-13,20.8-12.87c6.89,3.61,8.18,19.71,9.58,26.69,1.84,9.2,8.07,33.94,8.07,33.94s-19.69,25.3-32,34.49c-14,10.4-34.58,11.52-40.64,11.77-15.44.63-45.62-13.31-56.94-21.77C1681.7,1268.89,1660.94,1253,1660.94,1253Z"/><path fill="#e4e2f1" fill-rule="evenodd" d="M1245.32,738c6,28.24,13.75,55.57,20.79,83.73Z"/><path fill="#b5b3c2" fill-rule="evenodd" d="M1356.59,802.09c-3.49-3.4-42.18-18.22-72.38-39.61-22.46-15.91-41.32-39.43-42.25-35.86-2.43,9.3,9.2,60.14,24.25,110.72,17.64,59.32,39.66,119.47,44.3,129.4,2.25,4.83,25.17,70.59,44.8,129.27,7.35,22,14.57,42.78,19.78,59.51,5.64,18.13,9.07,31.27,11.7,30.61s12-31,22-67.07c18.91-68.36,42.43-164.53,43.38-169.18,36.53-175.89,19.3-213.56,19.3-213.56s-12.65,15.89-25.51,23.28c-22,12.62-43.7,25.71-57.78,38.57-20.75,18.91-21.54,37.64-21.54,37.64S1367,812.22,1356.59,802.09Z"/><path fill="#dedede" fill-rule="evenodd" d="M1076.11,1133.85l13.74.36s-1.17,31.7-2.73,64.24c-1.39,29-4.13,59.65,3.71,80.16,8,20.76,24.38,26.09,38.22,28.44a190.51,190.51,0,0,0,27,2.67,6.45,6.45,0,0,1,.9,5.25c-.75,3.14-3.91,7.35-3.91,7.35s-11.4,1.31-28-2.11c-15.5-3.2-39.68-9.34-49.07-31.9-8.89-21.35-7.11-52.51-5.29-83.25C1072.86,1168.56,1076.11,1133.85,1076.11,1133.85Z"/><path fill="#dedede" fill-rule="evenodd" d="M1257.65,1126.38s1.91-4.34,5.54-5.42,9,1.14,9,1.14,7,20.5,15.37,51.49c7.72,28.7,16.64,68.84,14,92.2-5.45,48.59-51.57,54.45-51.57,54.45s-4-3.27-4.9-7a12.9,12.9,0,0,1,1-7.63s35.8-.27,38.46-44.11S1257.65,1126.38,1257.65,1126.38Z"/><path fill="#dedede" fill-rule="evenodd" d="M1613.85,1042.66s-3.66-27.2-2.76-31.26,12.3-5.36,12.3-5.36,6.86,17.92,15.53,35.76,12.45,19.36,18.21,37.9a129.08,129.08,0,0,1,5.26,36.93s-12.34,12.67-26.26,16.06c-15.27,3.73-33.06-2.79-41.34-10.58-11.86-11.15-18.24-31.79-14-45.95a53.78,53.78,0,0,1,12.37-20.9A52.89,52.89,0,0,1,1613.85,1042.66Z"/><path fill="#ffe1b4" fill-rule="evenodd" d="M1156,1306.37a23.25,23.25,0,0,1-.45,10.71c-.74,2.39-5.47,8.15-5.47,8.15s12.16,10.26,19.3,5.24,11.17-19,10.38-25.33c-.33-2.63-4.41-6.63-6.48-7.69C1165.86,1293.71,1156,1306.37,1156,1306.37Z"/><path fill="#ffe1b4" fill-rule="evenodd" d="M1247,1303s-1-1.39-12.75-8.16c-3.92-2.25-10.7-2.08-12.43,5.62-2,8.81,1,21.62,9,27,1.47,1,7.9,1.78,13-.72,3.34-1.65,6.28-6.83,6.28-6.83s-6.3-4.15-6-10S1247,1303,1247,1303Z"/><path fill="#a4a9ae" fill-rule="evenodd" d="M1223.3,720.51s-14.11,24.6-30.65,48.57-28,29-33.4,44.1c-3,8.53,8.67,13.15,8.67,13.15s-6.63,17.71-8.3,43.55,1.35,63.71,1.35,63.71,27.12.53,42.51,7.56,19,20.58,19,20.58,41.79,116,52.51,155.92c1.44,5.37-3.28,2.75-10.73,4.22-4.11.81-6.41,5.87-9.73,2.43-7.89-8.16-2-11.07-9.36-35.39-3.26-10.81-9.47-27.5-13.79-41.42-8.44-27.22-23.76-71-29-80.38s-16-13.69-25.34-15.08c-26.22-3.9-60.11,8.6-66.36,19.87-3.94,7.07-4.3,15.13-5.26,27.86-1.13,15-3.58,38.15-4.76,53-3.62,46.3-2.76,62.1-5.12,81-.37,2.9-7.4-.72-13.45-.8-5.07-.06-9.87,3.67-9.87-1.17,0-16.12,2.69-49,8-101.87,2.13-21.38,3.75-46.82,6.78-61.77,2.21-10.95,18.35-21.87,27.66-25.75,14.85-6.19,26.2-6.85,26.2-6.85s-1.91-22.27-1.6-44.92c.38-28.07,4.83-61.42,13.74-83.07,9-22,19.93-40.9,31-54.12C1204.06,729.34,1223.3,720.51,1223.3,720.51Z"/><path fill="#a4a9ae" fill-rule="evenodd" d="M1565,828l9.16-9.43,1.32-8.25A310.9,310.9,0,0,1,1599.07,860c10.31,28.1,17.69,62.7,17.69,62.7l-11,21.56s-11.66-43.33-21.39-71.38S1565,828,1565,828Z"/><path fill="#a4a9ae" fill-rule="evenodd" d="M1611.2,977l10.87,28.41-6.67,1.48Z"/><path fill="#a4a9ae" fill-rule="evenodd" d="M1502.85,727.72s16.72,4.9,33.85,24.06,34.71,52.59,34.71,52.59L1537.26,773Z"/></g><g data-name="Ñëîé 2"><path fill="#5b2714" d="M1673.48,826.85a3,3,0,0,1-1.06-.19c-33.49-12.1-82.62-31-122.66-55.11a3.12,3.12,0,0,1,3.21-5.34c39.57,23.86,88.33,42.58,121.56,54.59a3.12,3.12,0,0,1-1,6.05Z"/><path fill="#5b2714" d="M1788.28,1624.91c-52.71,0-111.74-45-128.45-100.34-19.93-66-34.54-226.89-33.36-316.12a3.13,3.13,0,0,1,3.12-3.07h0a3.12,3.12,0,0,1,3.07,3.16c-1.18,88.79,13.32,248.75,33.09,314.23,17.14,56.77,80.64,102.17,133.18,95.21,29-3.83,109.09-41.18,131-166.38,12-68.37,2.11-114.92-12.8-185.4-5.62-26.61-12-56.78-18.13-92.63-4.19-24.58-7.81-48.67-11.31-72-10.82-72-20.16-134.27-40.69-172.88-20.27-38.12-64.09-61-123.66-83.53a3.11,3.11,0,0,1,2.2-5.82c60.89,23.06,105.77,46.58,127,86.42,21,39.56,30.45,102.27,41.35,174.88,3.5,23.27,7.11,47.33,11.3,71.85,6.09,35.72,12.46,65.82,18.08,92.38,15.06,71.18,25,118.21,12.83,187.76-20.17,115.28-92.57,165.71-136.31,171.49A88,88,0,0,1,1788.28,1624.91Z"/><path fill="#5b2714" d="M1661.85,1253.8h-.16a3.1,3.1,0,0,1-3-3.26c.75-15-.08-28.07-.82-39.64-1.15-17.89-2-30.81,3.87-39.25a3.12,3.12,0,0,1,5.12,3.56c-4.61,6.64-3.8,19.28-2.77,35.29.74,11.74,1.6,25,.82,40.35A3.12,3.12,0,0,1,1661.85,1253.8Z"/><path fill="#5b2714" d="M1665.32,1186h0a3.1,3.1,0,0,1-3.1-3.12c.07-17.43-.09-30.38-.52-40.76-2.51-61.38-13.38-78.16-22.11-91.65a87.23,87.23,0,0,1-8.09-14.48c-11.14-26.82-26.66-76-27.17-84.22-1-16.63,7.4-25.52,17.15-35.81a151.88,151.88,0,0,0,11.87-13.62c3.05-4.06,5.79-8,8.32-11.65,9.3-13.38,16.65-23.92,26.83-20.82a15.16,15.16,0,0,1,9.09,8.28c4.17,8.54,3.65,22-1.35,35.06a114.44,114.44,0,0,1-8.13,16.34c-4.34,7.54-7.46,13-5.75,19.63.82,3.21,5.14,7.52,10.6,13,12.46,12.43,31.29,31.22,38.94,65.88a3.12,3.12,0,0,1-6.09,1.33c-7.24-32.87-25.3-50.88-37.25-62.8-6.37-6.36-11-10.95-12.23-15.81-2.34-9.11,1.7-16.15,6.37-24.29a107,107,0,0,0,7.72-15.47c4.34-11.35,5-23.16,1.57-30.1a9,9,0,0,0-5.32-5c-5.56-1.69-10.92,5.51-19.88,18.41-2.58,3.71-5.36,7.71-8.45,11.84A161.6,161.6,0,0,1,1626,920.25c-9.46,10-16.3,17.21-15.45,31.14.42,6.78,15.53,55.31,26.71,82.21a83.06,83.06,0,0,0,7.56,13.48c9.14,14.13,20.52,31.7,23.11,94.78.43,10.48.59,23.52.52,41A3.11,3.11,0,0,1,1665.32,1186Z"/><path fill="#5b2714" d="M1896.46,1475.17l-.38,0a3.13,3.13,0,0,1-2.73-3.46c4.59-39.17-7.72-70.88-23.31-111-14.31-36.86-32.13-82.73-42.32-149a3.12,3.12,0,1,1,6.16-1c10.09,65.63,27.76,111.15,42,147.73,15.9,40.94,28.46,73.28,23.7,114A3.13,3.13,0,0,1,1896.46,1475.17Z"/><path fill="#5b2714" d="M1822.7,1253.73a3.12,3.12,0,0,1-3-2.13,301.51,301.51,0,0,1-8.73-34.37c-2.84-13.63-5.08-24.39-9.85-26.79a3.11,3.11,0,1,1,2.8-5.56c7.45,3.74,9.85,15.21,13.16,31.08a289.72,289.72,0,0,0,8.54,33.68,3.12,3.12,0,0,1-2,3.94A3,3,0,0,1,1822.7,1253.73Z"/><path fill="#5b2714" d="M1802.66,1197.13a3.12,3.12,0,0,1-3-2.41c-9.07-39.55-9.69-69-7.82-101.11.82-14,8.15-26.94,15.23-39.41,4-7,8.09-14.24,11-21.64,9.07-22.68,23.51-101.54,4.52-117.16-11.43-9.4-28.79-19.67-39.89-17.69-24.16,4.27-34.64,24.57-41.7,43.87-3.77,10.31-.35,34.69,6.77,48.29,2.7,5.15,5.77,8.39,8.63,9.14a6.39,6.39,0,0,0,5.76-.83c4.83-3.48,7.88-14.48,9.08-32.67,1-15.68,9.24-21.48,17.2-27.09,1.93-1.37,3.9-2.76,5.79-4.32a3.11,3.11,0,1,1,4,4.79c-2,1.68-4.12,3.16-6.18,4.61-7.37,5.21-13.74,9.71-14.58,22.41-1.36,20.71-5.06,32.57-11.65,37.32a12.54,12.54,0,0,1-11,1.81c-4.72-1.23-8.95-5.36-12.57-12.28-7.91-15.09-11.43-41.5-7.11-53.32,7.22-19.74,19-43,46.47-47.86,17.06-3,40.43,15.3,44.93,19,23.59,19.39,4.57,106.11-2.7,124.28-3.11,7.8-7.33,15.23-11.41,22.41-7,12.4-13.7,24.1-14.43,36.7-1.84,31.55-1.23,60.52,7.68,99.34a3.12,3.12,0,0,1-2.34,3.73A2.89,2.89,0,0,1,1802.66,1197.13Z"/><path fill="#5b2714" d="M1733,994.37a14.32,14.32,0,0,1-6.36-1.6C1710,984.52,1694.28,944,1702.78,920c11.13-31.51,15.87-42.88,33.43-52.16,9.85-5.21,28.32-3.69,43.88,3.6,12.65,5.93,20.71,14.38,22.7,23.81a3.12,3.12,0,1,1-6.1,1.28c-1.55-7.36-8.56-14.45-19.24-19.45-13.71-6.42-30.19-8-38.33-3.73-15.55,8.22-19.7,18.26-30.46,48.73-8,22.71,7.69,58.71,20.69,65.15,2.55,1.27,6.39,2.25,10.28-3.68a3.12,3.12,0,0,1,5.21,3.42C1741.62,991.83,1737.48,994.37,1733,994.37Z"/><path fill="#5b2714" d="M1677.62,889.17a3.12,3.12,0,0,1-2.44-5,136.51,136.51,0,0,1,11.52-12.32c3.43-3.39,7-6.88,10.29-10.72,6.75-7.85,15.49-11.7,25.18-11.18,13.35.73,25.33,9.46,29.22,15.13a3.11,3.11,0,1,1-5.13,3.53c-2.68-3.9-12.91-11.81-24.43-12.44-7.91-.48-14.6,2.61-20.12,9-3.46,4-7.11,7.62-10.63,11.09a132.92,132.92,0,0,0-11,11.76A3.13,3.13,0,0,1,1677.62,889.17Z"/><path fill="#5b2714" d="M1705.38,984.43a17.5,17.5,0,0,1-3.34-.33c-7.64-1.51-22.12-9.33-33.14-44.83a104.39,104.39,0,0,1-3.41-14.16,3.11,3.11,0,1,1,6.15-1,99.29,99.29,0,0,0,3.21,13.3c10.73,34.56,24.45,39.79,28.4,40.56a9,9,0,0,0,9-2.9,3.11,3.11,0,1,1,4.8,4A14.92,14.92,0,0,1,1705.38,984.43Z"/><path fill="#5b2714" d="M1671,876.06h-.07a3.12,3.12,0,0,1-3.05-3.18c.74-34,9.82-87.33,18.48-125,11.94-52.05,25.45-75.61,43.17-74a11.41,11.41,0,0,1,8.54,4.48c5.74,7.65,2.65,23.45-1.25,43.45-2.34,12-5,25.57-5.92,38.75-1,13.56-2.25,24.11-3.4,33.41-2.22,18-4,32.29-1.73,57.21a3.12,3.12,0,0,1-6.21.56c-2.3-25.58-.51-40.12,1.75-58.53,1.14-9.23,2.43-19.69,3.37-33.09.95-13.56,3.64-27.34,6-39.5,3.33-17,6.46-33.09,2.38-38.52a5.2,5.2,0,0,0-4.11-2c-9.15-.86-23.07,10.5-36.54,69.2-8.59,37.41-17.59,90.19-18.32,123.79A3.11,3.11,0,0,1,1671,876.06Z"/><path fill="#5b2714" d="M1496,1458.83a3.11,3.11,0,0,1-.21-6.22c13-.93,22.71-2.78,27.94-5.36,24.22-11.93,57-67.28,71.92-99.36,15.69-33.69,35.92-37.69,36.78-37.85a3.12,3.12,0,0,1,1.1,6.14c-.16,0-18,3.86-32.24,34.34-15.91,34.16-49,89.6-74.81,102.31-6,3-16.2,5-30.25,6Z"/><path fill="#5b2714" d="M1496.56,1571.41a3.12,3.12,0,0,1-.4-6.21c15.67-2.07,35-4.17,62.85-6.83,48.5-4.6,72.77-12.25,97.53-47.65a3.12,3.12,0,1,1,5.11,3.57c-26.19,37.44-51.53,45.48-102.05,50.29-27.72,2.64-47,4.74-62.63,6.8A2.83,2.83,0,0,1,1496.56,1571.41Z"/><path fill="#5b2714" d="M1323.75,1669.58c-28.3,0-62.15-1.27-103.58-3.79-135.28-8.24-311.44-30.47-362.7-66.07-57.5-39.94-51.4-150.29-44.93-267.11,1-18.69,2.09-37.62,2.9-56.58,5.24-121.65,21.91-263,37.16-315.1C886.78,844.25,966.54,825.46,1051,805.57c39.88-9.39,81.12-19.11,118.78-39.72a3.12,3.12,0,0,1,3,5.47c-38.41,21-80.07,30.83-120.35,40.31-82.64,19.47-160.68,37.85-193.84,151-15.14,51.69-31.7,192.38-36.91,313.62-.82,19-1.87,37.94-2.91,56.66-6.37,115-12.38,223.68,42.26,261.63,47,32.64,214.43,56.15,359.52,65,95.14,5.77,149.94,5,189.15-2.73,24.16-4.76,43.45-86.91,44.57-157.19.66-41.57-5.59-54-9-54.82-26.66-6.14-75.84-9.51-119.22-12.5-32.64-2.23-60.84-4.18-75.07-6.91-49.52-9.52-90.87-24.6-127.35-37.91-53.94-19.67-100.51-36.68-154.8-29.53a3.12,3.12,0,0,1-.81-6.18c55.76-7.31,103,9.9,157.75,29.86,36.26,13.23,77.36,28.22,126.39,37.64,13.86,2.67,43.23,4.68,74.31,6.82,43.62,3,93.06,6.39,120.19,12.64,12.17,2.8,14.24,34.71,13.82,61-1,62.07-17.43,156.87-49.59,163.2C1388.35,1667.39,1360.81,1669.58,1323.75,1669.58Z"/><path fill="#5b2714" d="M1060.28,1346.43h0a3.12,3.12,0,0,1-3.07-3.16c1.68-131.43-37.31-315.73-83.45-394.39a3.11,3.11,0,0,1,5.37-3.15c52.33,89.22,85.84,277.63,84.31,397.63A3.11,3.11,0,0,1,1060.28,1346.43Z"/><path fill="#5b2714" d="M1440.27,1623.65a3.12,3.12,0,0,1-.54-6.19,174.79,174.79,0,0,1,18.52-2c10.94-.75,20.39-1.4,23-6.58,1.79-3.58,10.34-37.54,13.19-71.2,3.52-41.56.21-78.53-3.66-82.22-3.36-2-8.58-1.7-15.18-1.33-6.14.34-13.77.78-22.46-.67a3.11,3.11,0,1,1,1-6.14c8,1.33,14.95.94,21.08.59,7.36-.41,13.74-.78,18.85,2.29,8.7,5.22,9.39,54.46,6.55,88s-11.47,68.73-13.82,73.45c-4.19,8.37-15.29,9.13-28.14,10a163.27,163.27,0,0,0-17.84,1.9A3.53,3.53,0,0,1,1440.27,1623.65Z"/><path fill="#5b2714" d="M1755.48,1302.64c-11.73,0-24.86-3.19-39.29-9.55-41.93-18.5-82.48-59.36-88.3-76.82-5.55-16.66,5.82-38.3,33.79-64.35a3.11,3.11,0,1,1,4.24,4.56c-17.89,16.66-38,40.21-32.11,57.82,5.5,16.5,45.72,55.81,84.9,73.09,22.24,9.81,41.66,11.58,56.17,5.13,29.7-13.19,51.17-40,53.44-66.82,1.86-22-9.14-41.55-31.8-56.63a3.11,3.11,0,1,1,3.46-5.18c31.16,20.73,36,45.34,34.55,62.33-2.45,29-25.4,57.91-57.12,72A53.38,53.38,0,0,1,1755.48,1302.64Z"/><path fill="#5b2714" d="M1744.21,1216.29a139.18,139.18,0,0,1-26.62-2.63c-28-5.45-50-18.35-57.38-33.66a3.12,3.12,0,0,1,5.61-2.72c6.48,13.38,27.27,25.26,53,30.27,33.72,6.56,65.32.13,84.53-17.23a3.12,3.12,0,0,1,4.18,4.62C1792.09,1208.86,1769.48,1216.29,1744.21,1216.29Z"/><path fill="#5b2714" d="M967,1824.92c5.48-87.66,18.46-166.55,22.84-185.94a3.11,3.11,0,1,0-6.07-1.37c-4.42,19.54-17.52,99.09-23,187.31Z"/><path fill="#5b2714" d="M1793.43,1824.92h6.23c-3-70-13-152.67-25.14-202.91a3.12,3.12,0,1,0-6.06,1.46C1780.47,1673.31,1790.46,1755.4,1793.43,1824.92Z"/><path fill="#5b2714" d="M1387.06,738.21c-1.67,0-3.32-.07-5-.21-38.73-3.36-94.52-26-124.32-78.89a3.12,3.12,0,0,1,5.43-3.06c37.66,66.81,111.17,75,119.43,75.75,26.82,2.29,63.82-18.64,85-39.55,29.25-28.89,38.12-67,42.94-100.57a3.12,3.12,0,1,1,6.17.89c-5,34.54-14.17,73.92-44.73,104.12C1454.55,713.92,1418.41,738.21,1387.06,738.21Z"/><path fill="#5b2714" d="M1221.61,615.15c-8.72,0-20-5.06-29.69-13.42-13.78-11.94-21.77-28.3-21.92-44.89-.17-18.92,6.31-33.3,17.35-38.45,8.93-4.17,19.67-1.77,29.46,6.58a3.11,3.11,0,1,1-4,4.74c-8-6.8-16.07-8.81-22.79-5.68-8.76,4.1-13.9,16.34-13.75,32.76.14,14.8,7.34,29.46,19.77,40.23,9.25,8,20.29,12.73,27.47,11.78a3.11,3.11,0,0,1,.83,6.17A19.49,19.49,0,0,1,1221.61,615.15Z"/><path fill="#5b2714" d="M1513.23,609.25a3.11,3.11,0,0,1-.73-6.14c.87-.22,21.16-5.55,29.84-34.93,4.31-14.58,3.65-27.36-1.75-34.2-3-3.77-7.32-5.52-12.75-5.23a3.11,3.11,0,0,1-.33-6.22c7.63-.34,13.74,2.23,18,7.59,6.75,8.55,7.79,23.07,2.83,39.82-9.76,33-33.36,39-34.37,39.22A2.88,2.88,0,0,1,1513.23,609.25Z"/><path fill="#5b2714" d="M1390.14,586a3.12,3.12,0,0,1-1.94-5.56c13.74-10.91,11.25-16,6.73-25.32-4.27-8.78-10.11-20.81-2.47-41a3.12,3.12,0,1,1,5.83,2.2c-6.69,17.7-2,27.47,2.25,36.09,4.72,9.73,9.19,18.92-8.46,32.93A3.16,3.16,0,0,1,1390.14,586Z"/><path fill="#5b2714" d="M1288.1,480.77a3.12,3.12,0,0,1-1.5-5.85c12.18-6.64,40.13-10.79,56.22-2.14a3.12,3.12,0,1,1-3,5.49c-13.57-7.29-39.45-3.8-50.28,2.12A3.06,3.06,0,0,1,1288.1,480.77Z"/><path fill="#5b2714" d="M1479.49,480.75a3.13,3.13,0,0,1-2-.68c-8.85-7.08-29.45-6.35-41.28-1a3.12,3.12,0,0,1-2.57-5.68c13.73-6.21,36.71-7,47.74,1.8a3.12,3.12,0,0,1-1.94,5.55Z"/><path fill="#5b2714" d="M1213.34,574.83a3.1,3.1,0,0,1-2.3-1L1198.53,560a3.11,3.11,0,1,1,4.61-4.18l12.51,13.83a3.12,3.12,0,0,1-2.31,5.21Z"/><path fill="#5b2714" d="M1524.16,543.32l-.37,0a3.12,3.12,0,0,1-2.73-3.46c1.36-11.57,4.57-43.18,3.15-50.44a3.11,3.11,0,0,1,6.11-1.2c1.87,9.54-2.56,48-3.07,52.37A3.12,3.12,0,0,1,1524.16,543.32Z"/><path fill="#5b2714" fill-rule="evenodd" d="M1299.46,526.61c.66-7.64,6.32-13.28,12.65-12.6s10.91,7.43,10.25,15.08-6.31,13.29-12.64,12.61S1298.8,534.26,1299.46,526.61Z"/><path fill="#5b2714" d="M1155.75,386a3.12,3.12,0,0,1-1-6.06c17.09-6,18.9-22.14,21.18-42.61,1.83-16.33,3.9-34.84,14.14-52.47,22.32-38.41,62.79-55.19,96.23-39.89a3.11,3.11,0,0,1-2.6,5.66c-30.45-13.92-67.57,1.78-88.24,37.36-9.58,16.49-11.58,34.31-13.33,50-2.44,21.75-4.53,40.53-25.32,47.79A3.1,3.1,0,0,1,1155.75,386Z"/><path fill="#5b2714" d="M1192.37,521.64a3.12,3.12,0,0,1-3.08-2.71c-.73-5.51-2.52-13.7-4.6-23.19-5.26-24-12.46-56.93-10-80.87a3.12,3.12,0,0,1,6.2.62c-2.32,23,4.77,55.3,9.93,78.91,2.11,9.63,3.93,18,4.7,23.71a3.12,3.12,0,0,1-2.68,3.5Z"/><path fill="#5b2714" d="M1539.69,282.85c-22.27,0-35.18-12.14-51.14-27.13-4-3.71-8.14-7.65-12.77-11.71-63.09-55.25-133.59-40.5-163.49-12.38a3.11,3.11,0,1,1-4.26-4.53c37.42-35.19,111.94-40.24,171.85,12.22,4.69,4.12,8.94,8.1,12.94,11.86,17.7,16.63,29.43,27.62,53.33,25.08a3.12,3.12,0,0,1,.65,6.2A68,68,0,0,1,1539.69,282.85Z"/><path fill="#5b2714" d="M1245,466c-1.17,0-2.37,0-3.59-.08a3.11,3.11,0,0,1-3-3.25,3.21,3.21,0,0,1,3.25-3c39.58,1.64,48.06-27.12,57-57.66,6.6-22.63,13.43-46,35-52.32a3.12,3.12,0,1,1,1.75,6c-18.29,5.33-24.34,26.1-30.76,48.08C1296.08,433,1286.45,466,1245,466Z"/><path fill="#5b2714" d="M1518.63,461.32c-37.68,0-66.19-39.8-84.57-70.21-19.59-32.45-34.74-52.81-65.77-40.54a3.12,3.12,0,0,1-2.29-5.8c35.5-14,52.81,9,73.4,43.12,18.13,30,46.32,69.59,82.59,67.08a3.23,3.23,0,0,1,3.32,2.89,3.11,3.11,0,0,1-2.89,3.33C1521.15,461.28,1519.89,461.32,1518.63,461.32Z"/><path fill="#5b2714" d="M1542.57,504.24a2.74,2.74,0,0,1-.74-.1,3.09,3.09,0,0,1-2.28-3.76c6.17-25.12,24.94-136-3.55-179.48a3.11,3.11,0,1,1,5.21-3.41c30,45.8,11.1,157.08,4.38,184.37A3.11,3.11,0,0,1,1542.57,504.24Z"/><path fill="#5b2714" d="M1389.71,676.54h-1c-42.28-1.1-54.21-50.65-54.32-51.15a3.11,3.11,0,0,1,3.59-3.76c.28,0,28.2,5,53.47,5.22a237.73,237.73,0,0,0,44.19-3.61,3.12,3.12,0,0,1,3.61,3.89C1438.64,629.15,1425.18,676.54,1389.71,676.54Zm-47.92-48c3.91,11.55,16.83,40.95,47,41.73,25,.79,38.47-28.37,42.78-40.06a252.7,252.7,0,0,1-40.24,2.83C1372,632.94,1351.09,630,1341.79,628.57Z"/><path fill="#5b2714" d="M1226.93,509.65a3.11,3.11,0,0,1-.69-6.15c11-2.49,19.46-5.07,28.06-15.56a3.11,3.11,0,1,1,4.82,3.94c-9.84,12-19.67,15-31.5,17.7A3.37,3.37,0,0,1,1226.93,509.65Z"/><path fill="#5b2714" d="M1467.77,739.67a3.11,3.11,0,0,1-3.09-2.81,275.61,275.61,0,0,1-1-37.63,3.11,3.11,0,0,1,6.22.29,270.31,270.31,0,0,0,1,36.72,3.11,3.11,0,0,1-2.79,3.41Z"/><path fill="#5b2714" d="M1244,730.5h-.1a3.12,3.12,0,0,1-3-3.21c1.09-34.95-2.26-80.35-5.1-99.69a3.12,3.12,0,0,1,6.17-.91c2.76,18.83,6.31,63.88,5.16,100.79A3.11,3.11,0,0,1,1244,730.5Z"/><path fill="#5b2714" d="M1334.55,321.4a3.11,3.11,0,0,1-3-2.28c-4.62-16.64-18.37-37.16-18.51-37.36a3.12,3.12,0,1,1,5.17-3.49c.58.87,14.46,21.57,19.34,39.18a3.12,3.12,0,0,1-2.16,3.84A3.46,3.46,0,0,1,1334.55,321.4Z"/><path fill="#5b2714" fill-rule="evenodd" d="M1442.24,527.19c.66-7.65,6.32-13.29,12.65-12.61s10.91,7.44,10.25,15.08-6.32,13.29-12.64,12.61S1441.58,534.83,1442.24,527.19Z"/><path fill="#5b2714" d="M1418.83,1437.85a3.11,3.11,0,0,1-3.1-2.91c-7.38-110.24-20.58-197.69-40.35-267.33-16.58-58.46-41-126.82-64.67-192.93-40.84-114.2-79.41-222.07-72.25-264.43a3.11,3.11,0,1,1,6.14,1c-6.89,40.75,31.42,147.88,72,261.29,23.67,66.21,48.15,134.67,64.8,193.33,19.89,70.07,33.16,157.93,40.56,268.62a3.1,3.1,0,0,1-2.9,3.31Z"/><path fill="#5b2714" d="M1422.47,1824.92h6.23c.72-57.66.88-121.44.43-177.7a3.12,3.12,0,0,0-3.12-3.09h0a3.11,3.11,0,0,0-3.09,3.14C1423.35,1703.52,1423.19,1767.28,1422.47,1824.92Z"/><path fill="#5b2714" d="M1385.71,1195.63a3.4,3.4,0,0,1-1.08-.18,3.12,3.12,0,0,1-1.84-4c37.59-102.36,111.57-406,84.19-459.67a3.11,3.11,0,1,1,5.55-2.83c28.6,56.12-44.94,358.6-83.9,464.66A3.1,3.1,0,0,1,1385.71,1195.63Z"/><path fill="#5b2714" d="M1379.26,1170.85h0a3.13,3.13,0,0,1-3.07-3.17c1.15-67.73,1.08-140.47-7.2-213.38-4.66-41-5.3-73.39-5.77-97-.48-24.24-.8-40.25-4.9-48.15-2.69-5.16-15.18-11.33-29.63-18.46-28.53-14.09-67.59-33.37-89-69.28a3.11,3.11,0,0,1,5.35-3.19c20.5,34.32,58.62,53.14,86.45,66.88,16.7,8.24,28.77,14.2,32.4,21.18,4.77,9.19,5.1,25.78,5.6,50.9.47,23.51,1.11,55.72,5.73,96.45,8.32,73.27,8.39,146.24,7.24,214.19A3.12,3.12,0,0,1,1379.26,1170.85Z"/><path fill="#5b2714" d="M1284,889.4a3.12,3.12,0,0,1-2.33-5.19c7.5-8.43,15.34-19.46,22.93-30.13,19.13-26.87,37.14-52.2,55.87-49.2a3.12,3.12,0,1,1-1,6.15c-14.86-2.49-32.61,22.53-49.78,46.67-7.69,10.8-15.63,22-23.36,30.65A3.07,3.07,0,0,1,1284,889.4Z"/><path fill="#5b2714" d="M1366.24,841.77a3.1,3.1,0,0,1-3.08-3.62c6.17-37.28,35.44-53.95,61.27-68.65,18.36-10.46,35.7-20.33,42.89-36.12A3.11,3.11,0,1,1,1473,736c-8,17.63-26.22,28-45.48,38.95-25.82,14.7-52.52,29.91-58.2,64.26A3.13,3.13,0,0,1,1366.24,841.77Z"/><path fill="#5b2714" d="M1451.81,893.15c-11.69,0-21.76-17.78-33.42-38.37s-25-44.1-38.38-44.1a3.12,3.12,0,1,1,0-6.23c17,0,30.64,24,43.8,47.26,9.8,17.31,19.94,35.21,28,35.21h0c3.06,0,6.26-3,9.5-8.79a3.11,3.11,0,0,1,5.44,3c-4.48,8.05-9.36,12-14.92,12Z"/><path fill="#5b2714" d="M1223.07,863.42a3.11,3.11,0,0,1-2.89-1.95c-6.12-15.18-25.39-22.07-40.87-27.62-12.55-4.48-22.45-8-23.3-15.33-1-8.59,5.68-16.35,15.77-28.09,7.4-8.61,16.62-19.34,25.85-33.93,22.28-35.24,33.26-51.08,43.55-57.94a3.11,3.11,0,0,1,3.46,5.18c-9.29,6.19-20.39,22.31-41.75,56.09-9.47,15-18.85,25.89-26.39,34.66-9,10.5-15,17.43-14.3,23.32.4,3.45,10.39,7,19.2,10.18,16.66,6,37.39,13.38,44.56,31.15a3.13,3.13,0,0,1-1.72,4.06A3.19,3.19,0,0,1,1223.07,863.42Z"/><path fill="#5b2714" d="M1191,940.31a3.11,3.11,0,0,1-2.77-1.7c-29.59-57.72-33.75-72.41-30.87-77.38,2.51-4.33,9-3.31,19.77-1.59,13.28,2.11,31.46,5,47.59-1.18,13.73-5.26,22.68-20.18,32.65-42.56a3.12,3.12,0,0,1,5.69,2.54c-10.62,23.83-20.37,39.82-36.11,45.84-17.69,6.78-37.61,3.61-50.8,1.51-5.45-.87-12.23-1.94-13.67-1.14-.62,2.77,4,17.79,31.29,71.12a3.11,3.11,0,0,1-1.35,4.19A3,3,0,0,1,1191,940.31Z"/><path fill="#5b2714" d="M1392.16,1227.86a3.11,3.11,0,0,1-2.83-1.79c-25-53.5-65-99.75-103.61-144.49-14.52-16.8-28.24-32.68-40.66-48.4a3.11,3.11,0,0,1,4.89-3.86c12.34,15.62,26,31.44,40.48,48.19,37.11,43,79.18,91.65,104.55,145.92a3.12,3.12,0,0,1-1.51,4.14A3.08,3.08,0,0,1,1392.16,1227.86Z"/><path fill="#5b2714" d="M1514.15,867.89a3,3,0,0,1-.89-.13,3.13,3.13,0,0,1-2.1-3.88c5.48-18.36,25.43-27.69,41.46-35.18,8.47-4,18.08-8.45,18.16-11.93.13-5.92-6.46-12.27-16.42-21.88-4.74-4.56-10.1-9.74-15.89-16-5-5.36-9.42-10.61-13.62-16.06-24.75-32.06-47.06-56.18-56.83-61.44a3.12,3.12,0,0,1,3-5.49c12.71,6.86,38.71,37.1,58.79,63.12,4.1,5.3,8.44,10.42,13.27,15.63,5.66,6.12,11,11.23,15.64,15.74,11.15,10.74,18.51,17.84,18.33,26.5-.16,7.34-9.69,11.79-21.76,17.44-14.89,7-33.43,15.63-38.11,31.32A3.13,3.13,0,0,1,1514.15,867.89Z"/><path fill="#5b2714" d="M1395.07,1236.94a3.24,3.24,0,0,1-1-.19,3.11,3.11,0,0,1-1.88-4c20.22-56.5,53-106.09,82-149.85,24.16-36.52,47-71,59.81-104.84,1.86-4.89,4.88-12.35,8.47-21.2,10.49-25.89,35-86.51,32.07-93.85-1.16-.26-7.78,1.45-13.13,2.82-12.93,3.32-32.47,8.34-50.71,3.24-16.24-4.53-27.44-19.53-40.23-42.26a3.11,3.11,0,0,1,5.42-3.06c12,21.34,22.31,35.36,36.48,39.32,16.65,4.66,34.47.07,47.49-3.27,10.56-2.71,16.93-4.34,19.83-.27,4.81,6.76-6.81,38.87-31.45,99.67-3.56,8.8-6.57,16.21-8.41,21.06-13.08,34.48-36.09,69.26-60.45,106.08-30.15,45.58-61.33,92.72-81.29,148.51A3.14,3.14,0,0,1,1395.07,1236.94Z"/><path fill="#5b2714" d="M1617.27,927.8a3.11,3.11,0,0,1-3-2.42C1589.89,819.47,1550.63,755.21,1486.9,717a3.11,3.11,0,0,1,3.2-5.34c64.42,38.59,105.79,106,130.21,212.3a3.12,3.12,0,0,1-2.34,3.73A3.27,3.27,0,0,1,1617.27,927.8Z"/><path fill="#5b2714" d="M1614.63,1009.57a3.12,3.12,0,0,1-3.09-2.76c-7.61-65.83-24.24-126.93-48.09-176.69a3.12,3.12,0,0,1,5.62-2.7c24.15,50.38,41,112.16,48.66,178.67a3.12,3.12,0,0,1-2.74,3.46Z"/><path fill="#5b2714" d="M1141.31,936.26a3.12,3.12,0,0,1-3.1-2.8c-15.71-153.7,61.37-202.51,86.7-218.55a3.12,3.12,0,1,1,3.34,5.26c-24.53,15.53-99.16,62.79-83.84,212.66a3.12,3.12,0,0,1-2.78,3.42Z"/><path fill="#5b2714" d="M1160.67,934a3.12,3.12,0,0,1-3.1-2.82c-3-30.78-4.35-67.34,7.67-105.11a3.11,3.11,0,1,1,5.93,1.88c-11.67,36.71-10.29,72.48-7.4,102.63a3.11,3.11,0,0,1-2.8,3.4Z"/><path fill="#5b2714" d="M1625.52,1137.13a48.47,48.47,0,0,1-28.73-9.45A49.38,49.38,0,0,1,1586,1059a48.69,48.69,0,0,1,52.23-18.53,3.11,3.11,0,0,1-1.63,6,42.5,42.5,0,0,0-45.55,16.17,43.16,43.16,0,0,0,9.46,60,42.51,42.51,0,0,0,58.89-8.42,3.12,3.12,0,0,1,4.94,3.8,48.64,48.64,0,0,1-31.11,18.5A49.77,49.77,0,0,1,1625.52,1137.13Z"/><path fill="#5b2714" d="M1627.48,1112.19a28.86,28.86,0,0,1-23.24-45.79,28.67,28.67,0,0,1,51.52,12.51h0a28.79,28.79,0,0,1-23.83,32.94A29.38,29.38,0,0,1,1627.48,1112.19Zm0-51.41a22,22,0,0,0-3.52.28,22.23,22.23,0,0,0-14.64,9,22.44,22.44,0,1,0,31.34-4.93A22.21,22.21,0,0,0,1627.45,1060.78Z"/><path fill="#5b2714" d="M1251.23,1322.09a3.11,3.11,0,0,1-.45-6.19c14.7-2.18,29.52-11.93,36.57-20.45,11.8-14.24,14.22-34,8.34-68.17-5.51-32-13-62.54-25.14-102.12a3.12,3.12,0,0,1,6-1.83c12.2,39.86,19.77,70.63,25.32,102.89,6.22,36.19,3.41,57.4-9.68,73.21-7.57,9.13-23.46,20.11-40.46,22.63Z"/><path fill="#5b2714" d="M1073.32,1138.31a3.07,3.07,0,0,1-2.68-1.55c-2.86-5-1-23.25,1.86-48.42.67-5.78,1.27-11,1.61-14.87,1.59-17.77,2.87-33.16,4-46.34,2.87-34.47,4.45-53.47,7-61.56,5.17-16.36,27.06-28.58,58.55-32.71,29.92-3.93,65.7.78,76.24,17.35,9.2,14.46,34,89.48,42.49,118.3,3.44,11.61,7,21.12,9.86,28.76,4.77,12.72,7.65,20.4,5.94,26.34a3.12,3.12,0,0,1-6-1.72c1.14-4-1.76-11.71-5.78-22.43-2.9-7.73-6.51-17.35-10-29.18-9.71-32.81-33.54-103.8-41.76-116.72-7.94-12.48-38.11-18.73-70.18-14.52-28.6,3.75-49.07,14.63-53.42,28.41-2.35,7.43-4,27.29-6.74,60.2-1.1,13.19-2.38,28.59-4,46.37-.35,3.91-1,9.19-1.63,15-1.64,14.27-4.69,40.81-2.63,44.63a3.13,3.13,0,0,1-2.74,4.63Z"/><path fill="#5b2714" d="M1151.22,1325.46c-22.36,0-42.09-4.38-57.11-12.68-19.08-10.54-29.19-35.82-28.48-71.16.28-13.76,1.45-30.81,2.92-52.4,1-15.26,2.24-32.59,3.34-52.16a3,3,0,0,1,3.28-2.93,3.11,3.11,0,0,1,2.94,3.28c-1.1,19.59-2.29,36.95-3.34,52.24-1.47,21.5-2.64,38.49-2.91,52.09-.67,32.92,8.31,56.22,25.26,65.59,14.1,7.79,32.8,11.9,54.1,11.9.21,0,.53.07.62,0a3.12,3.12,0,0,1,3.12,3.11C1155,1324.27,1153.11,1325.46,1151.22,1325.46Z"/><path fill="#5b2714" d="M1246,1308.93a3.12,3.12,0,0,1-.5-6.19c30.63-5,41.61-25,35.59-64.58-3.5-23.09-13.56-67.93-27.36-111.81a3.12,3.12,0,0,1,6-1.88c13.9,44.21,24,89.44,27.56,112.75,6.58,43.25-6.37,66-40.73,71.67A2.92,2.92,0,0,1,1246,1308.93Z"/><path fill="#5b2714" d="M1094.27,1138.22a3.11,3.11,0,0,1-2.38-5.13c1.9-2.23,1.9-4.58,1.64-11.7a202.05,202.05,0,0,1,.28-23.64c4-56.85,9.4-113,11.87-122.65,3.06-12,15.2-20.59,34.18-24.32,24.84-4.88,55.05-.42,62.15,9.15,8.8,11.85,22.14,52.33,37.58,99.2,2.75,8.32,5.52,16.75,8.3,25.1,1.95,5.84,3.12,13,4.25,20,1.08,6.62,2.7,16.61,4.6,18a3.12,3.12,0,0,1-3.7,5c-3.75-2.77-5.12-10.17-7-22-1.1-6.74-2.23-13.69-4-19.06-2.78-8.35-5.56-16.79-8.31-25.12-14.64-44.43-28.46-86.39-36.66-97.43-5.06-6.82-32.41-11.37-56-6.75-9.55,1.87-26.07,6.93-29.35,19.74-2.08,8.15-7.39,60.07-11.68,121.55a197.36,197.36,0,0,0-.28,23c.29,7.6.44,11.78-3.1,16A3.11,3.11,0,0,1,1094.27,1138.22Z"/><path fill="#5b2714" d="M1155.08,1312.31h0c-36.24-.32-73.24-7.9-72.79-61.64.17-20.93,2.4-63.77,5.08-113.47a3,3,0,0,1,3.28-2.94,3.12,3.12,0,0,1,3,3.28c-2.68,49.61-4.91,92.38-5.08,113.18-.42,50.53,34.16,55.07,66.62,55.36a3.12,3.12,0,0,1,0,6.23Z"/><path fill="#5b2714" d="M1162.71,1335c-4.39,0-9.76-1.9-15.79-7.81a3.11,3.11,0,0,1-.05-4.4,3.06,3.06,0,0,1,1.53-.86c3.67-3.43,5.6-6.68,5.57-9.4a4.93,4.93,0,0,0-1.29-3.37,3.12,3.12,0,0,1-.33-4.38c1-1.18,10.16-11.58,19.47-10.47,2.91.33,7,2,10.09,7.82,3.7,7.06-.23,22.63-9.47,29.5A16.33,16.33,0,0,1,1162.71,1335Zm-8.7-9.85c5.41,4.21,10.36,4.71,14.71,1.48,6.92-5.14,9.88-17.41,7.67-21.6-1.47-2.81-3.19-4.29-5.26-4.53-4.12-.46-9.38,3.69-12.34,6.56a11.2,11.2,0,0,1,1.41,5.41C1160.24,1316.59,1158.16,1320.84,1154,1325.12Z"/><path fill="#5b2714" d="M1237.68,1332.3c-4.14,0-8.29-1.87-12.39-5.58-5.81-5.25-9-17.23-7-26.17,1.14-5.13,4-8.62,8-9.84,11.55-3.51,22.38,9.49,22.83,10a3.11,3.11,0,0,1,.56,2.93,3.08,3.08,0,0,1-.73,2c-1.62,1.93-2.26,3.67-1.94,5.31.56,2.85,3.92,5.19,5.16,5.85a3.12,3.12,0,0,1,1.34,4.15c-.19.38-4.8,9.44-13.23,11A13.07,13.07,0,0,1,1237.68,1332.3Zm-7.39-36a7.71,7.71,0,0,0-2.23.32c-2.26.69-3.27,3.23-3.72,5.24-1.49,6.65,1,16.46,5.13,20.18,3.42,3.1,6.64,4.36,9.59,3.85,3.31-.62,5.88-3.36,7.37-5.41a14.56,14.56,0,0,1-5.57-8.28,11.75,11.75,0,0,1,2.1-9C1240.19,1300.44,1235.09,1296.35,1230.29,1296.35Z"/><path fill="#5b2714" d="M1097.29,1105.94l-.44,0a3.12,3.12,0,0,1-2.64-3.52c7.15-50.31,34.59-78.63,46.75-84.46,14.44-6.91,31.79-6.65,48.86.75,27,11.7,49.37,38.6,59.88,71.94a3.12,3.12,0,0,1-6,1.88c-10-31.65-31.06-57.11-56.41-68.1-15.4-6.68-30.91-7-43.69-.85-10.73,5.15-36.54,32.36-43.27,79.71A3.13,3.13,0,0,1,1097.29,1105.94Z"/><path fill="#5b2714" d="M1255.88,1127.81a3.12,3.12,0,0,1-1.06-6,34.81,34.81,0,0,0,3.3-1.45c4-1.9,8.44-4,16.69-1.39a3.11,3.11,0,0,1-1.92,5.92c-5.88-1.91-8.48-.65-12.07,1.09a40.79,40.79,0,0,1-3.88,1.69A3.29,3.29,0,0,1,1255.88,1127.81Z"/><path fill="#5b2714" d="M1073.32,1138a3.12,3.12,0,0,1-1-6.07c5.64-1.91,12.61-3.4,21.48-.16a3.12,3.12,0,0,1-2.15,5.85c-6.64-2.45-11.73-1.68-17.34.21A3.18,3.18,0,0,1,1073.32,1138Z"/><path fill="#5b2714" d="M1613.67,1044.19a3.12,3.12,0,0,1-3.11-3c-.16-6.16-.86-11.89-1.48-17-.69-5.67-1.25-10.16-.8-13.44.78-5.81,9.57-7.4,13.31-7.82a3.14,3.14,0,0,1,3.44,2.75,3.1,3.1,0,0,1-2.75,3.44c-4.82.54-7.51,2-7.88,2.63-.28,2.31.25,6.66.86,11.69.64,5.2,1.36,11.09,1.53,17.55a3.12,3.12,0,0,1-3,3.2Z"/><path fill="#5b2714" d="M1783.15,696.6a3.12,3.12,0,0,1-2.18-.89c-4.47-4.4-6.57-8.79-6.23-13,.45-5.47,4.72-9.19,8-11.64l-.67-.13c-3.72-.72-8.34-1.6-12.24-6-4.79-5.35.44-15.64,6.07-26.59-11.69,8-23,14.08-30.47,11.94a9,9,0,0,1-6-5.42c-2.37-5.68-.68-17.61,1.93-32.72-7.79,15.8-14.6,28.8-19.44,32.43a8,8,0,0,1-6.39,1.6c-5.92-1-10.71-8.39-14.56-14.3l-.51-.78c0,1.14,0,2.34,0,3.39-.09,8.34-.2,17.78-5,21.45-3.93,3-9.71,2.64-14.33,1.55a16.5,16.5,0,0,1-2.23,14.44,3.11,3.11,0,0,1-5.14-3.52c2.88-4.19,2.52-8.93-1-14.07a3.94,3.94,0,0,1-.47-3.63,3.13,3.13,0,0,1,4.07-1.39c3.6,1.64,12.09,4.22,15.34,1.69,2.36-1.82,2.47-11.43,2.53-16.59.07-6.34.18-9.73,1.65-11.7a4,4,0,0,1,3.08-1.49c2.61.08,4.17,2.48,7.28,7.25,2.68,4.12,7.17,11,10.42,11.57a1.85,1.85,0,0,0,1.57-.46c4.42-3.32,14.13-23.12,19.34-33.75,6.24-12.73,6.36-13,8.76-13a3.65,3.65,0,0,1,2.59,1.22c1.52,1.81,1.25,4.23-1,17-1.75,10-4.68,26.66-2.7,31.4a2.81,2.81,0,0,0,2,1.83c7,2.07,25-10.8,30.87-15,4.39-3.14,5.58-4,7.53-2.46a3.23,3.23,0,0,1,1,3.64,109.25,109.25,0,0,1-5,10.41c-2.72,5.3-9.1,17.71-7.13,19.91,2.5,2.79,5.55,3.38,8.78,4a19.42,19.42,0,0,1,6.8,2.22,4.17,4.17,0,0,1,1.75,3c.07,2.23-1.63,3.43-4,5.09-2.64,1.87-6.62,4.69-6.9,8.12-.19,2.33,1.28,5.05,4.38,8.09a3.11,3.11,0,0,1,0,4.41A3.08,3.08,0,0,1,1783.15,696.6Z"/></g></svg>