<svg xmlns="http://www.w3.org/2000/svg" data-name="&lt;Layer&gt;" viewBox="0 0 2742 1828"><g data-name="Ñëîé 3"><path fill="#4297b4" fill-rule="evenodd" d="M803.52,1110.82l295-323.71,27.56-19.82,21.1-7.35,172.1-31.64,310.57-13.76,10.73.42,35.65,14.86,37.28,11.86,39,7,34.87,10.7,37.47,19.06,28.1,24.12L1867.71,829l14,43.54,4.84,53.33,7.24,112.72,9.12,88.62L1920,1235.65l14,81.44,9.65,63s1.62,28.1-4.49,54.94-20,52.41-20,52.41L1891.65,1518l-19.4,8.88s-20.58-1.72-37.82-7.75a131.5,131.5,0,0,1-31.14-16.35l-20.62-22.88-21.51-29.46-4,120.45-638.68-.75s2-52.45.79-122.85-5.64-158.75-5.64-158.75l-30.79,92.25-28.32,46.51L1026,1455.13l-24.91,5.55-20.61-4.45-29.33-15.48-29.26-23.48-20.28-26.2s-22.33-38.9-37.43-72.89a489.16,489.16,0,0,1-23-63.08l-13-42.79-23.82-64.69-7-28.11Z"/><path fill="#fff" fill-rule="evenodd" d="M1271.1,299.71c20-31.29,32.17-55.21,58.87-65.21,15.63-6.15,36.41-18.47,86-27.66,41.19-7.49,91.29-.55,106.46,9.52,17.06,9.89,34.15-1.15,62,23s34.1,30.26,58.24,66.16c13.1,18.81,21.41,26.63,24.38,49.2,2,22.66-16.89,45.28-16.89,45.28s1.79,9.35-7.8,51.12a540.61,540.61,0,0,1-22.85,74.36l-316.82-31.64s-33.93-28.37-48.65-54.65-12-37.94-12-37.94L1210,404.12a70.41,70.41,0,0,0,25.35-25.1C1250.16,353,1262.75,312.82,1271.1,299.71Z"/><path fill="#ffe4ce" fill-rule="evenodd" d="M1433,716.27s-27,8.67-50.69-11.1c-3.78-3.16-9.87-10.1-16.53-14-7.37-4.34-13.28-6.53-18.08-12.61-15.67-19.87-19.25-29.67-34-63.81s-13.8-78.75-15.93-91.88c-6.37-39.39-16-61.37-14.64-78.62.61-3.86-1.17-13.21,7.19-36.79,9.3-23.67,17.29-30.09,25.44-34.63,33.41-20.11,69.87-16.7,80.16-8.11,9.17,6.79,29.12,27.84,47.9,35.68a168.39,168.39,0,0,0,44.77,11.23s26.4,18.57,48.33,40.4c10.37,9.54,28,57.44,28,57.44l21.85-32.4s15.62-6.15,26.86-8.11c24.46-3.13,30.09,17.3,31.88,26.65,8.07,47.81-39.66,67.29-39.66,67.29s-30.27,57.16-73.47,95.51c-9.18,8.16-22.12,21.8-31.81,28.25C1464.57,710.48,1433,716.27,1433,716.27Z"/><path fill="#ffe4ce" fill-rule="evenodd" d="M1324.87,728.83l37.26-8.55,18.93-6.11.61-16.49,217.44-139.56,9.77-.31-5.19,20.46s-3,19.24-4,27.18-2.75,26.57-3,36.65,0,23.52,1.52,32.67,4,14.36,8.55,21.38,6.11,11.61,11.3,13.74,13.75,5.81,13.75,5.81-23.73,51.57-65.71,86.19c-31.51,26-77,37.23-109.94,38.64-34.66,1.48-70-19-92.61-44.31C1336.08,765.54,1324.87,728.83,1324.87,728.83Z"/><path fill="#e4e4e4" fill-rule="evenodd" d="M1569.23,1054.84l206-147.12,9.79-.64,8.34,3.85,54,72.47,1.26,10.93-6.91,11.29-198.91,145-12.15,2.39-10.68-5.77-51-73.34-1.92-10Z"/><path fill="#fff" fill-rule="evenodd" d="M1614.87,1069.6c-11,3.6-23.64-13.22-6.9-19.76C1616.79,1046.4,1625.84,1066,1614.87,1069.6Z"/><path fill="#fff" fill-rule="evenodd" d="M1652.79,1043.65c-13.54,2.73-19.6-14.07-9.63-20.83C1656.43,1013.85,1663.5,1041.49,1652.79,1043.65Z"/><path fill="#fff" fill-rule="evenodd" d="M1690.38,1015.42c1.92-1.88-3,.24-3.7.24-3.82-.08-5.57-1.34-7.45-4.52-3-5.14,2.11-16.33,7.86-17.7,8-1.91,11.76,7.3,10.85,13.4C1697.17,1012.08,1690.06,1015.73,1690.38,1015.42Z"/><path fill="#fff" fill-rule="evenodd" d="M1732.18,986.24c-13.56,4-22.81-11.94-9.75-19C1737.36,959.14,1737.1,984.79,1732.18,986.24Z"/><path fill="#fff" fill-rule="evenodd" d="M1768.88,957.87c-.26,5.08-9.43.1-11.56-3.28-3.29-5.23,3.82-17.31,10.39-17.07,7.28.27,7.21,8.74,5.83,13.71C1772.81,953.83,1769,955.17,1768.88,957.87Z"/><path fill="#fff" fill-rule="evenodd" d="M1794.28,996.88c4-.87,3.82-6.67,8.34-6.75,8.8-.16,15.67,11.41,8.3,18.26-2.87,2.67-10.28-4.95-11.88-6.48C1798.49,1001.4,1794.19,996.9,1794.28,996.88Z"/><path fill="#fff" fill-rule="evenodd" d="M1760.73,1019c2.5,1.72,5.7-1.87,8.6-.55,8.66,3.92,5.85,15.6-1.24,18.94-7.66,3.62-15-3.24-13.28-11.14C1755.17,1024.67,1758.29,1017.36,1760.73,1019Z"/><path fill="#fff" fill-rule="evenodd" d="M1713.64,1056.47c-2.77-6.76,11.33-16.61,20.09-10,2.7,2,5.41,13.33,1.83,16C1730.5,1066.22,1715.79,1061.68,1713.64,1056.47Z"/><path fill="#fff" fill-rule="evenodd" d="M1642.71,1101.9c3.82.57,7.68-3.15,11.17.61,5.37,5.76,4.43,19.88-5.64,20.39-15.52.78-11.6-20-1-23.47Z"/><path fill="#ffe4ce" fill-rule="evenodd" d="M1781,1465.83s-15.86-36.38-20.51-48.68-14.37-46.44-18-59.8-6.89-39.61-11.47-51-10-24.89-13.77-33.62-9.3-22.47-11.86-32-4-16.52-1.67-24.52,5.45-15.7,10-20.69,13.44-11.22,13.44-11.22-12.33-5.36-18.71-9.63-19.8-12.2-26.55-18.74-8.14-6.25-14.08-15.87-8-10.24-7.1-15.2,1.58-5.54,6.28-6.63,18.86.75,18.86.75-13.83-9.59-16.76-15-6.74-10.79-6.15-16.52.27-8.62,5.19-9.2,9.1-1.46,8.22-7.78,6.47-9.75,6.47-9.75,10.72-3.37,16.85-3.25,19.78,0,31.45,3.88,31.59,7.77,47.11,14.21,23.37,9.16,34.48,13.83,33.46,18.53,33.46,18.53-1.35-15.23-6.22-23.79-15.21-22.07-20.49-25.89-23.58-20.32-29.12-26.16-14-12.23-18.07-20.24-5.76-8.48-3.44-13.73,4.52-4.36,10.54-4.5,18.71,7.5,24.83,11.88,14.56,12,25.46,18.3,19.26,10.92,25.19,16.28,11.11,13.19,15.43,22.58,7.36,21.48,12,33.16,5.68,18.24,7.11,25.84a27,27,0,0,1-3.11,18.34,31.41,31.41,0,0,0-3,18.61c1.13,6.21,2.45,11.42-3.68,15.56s-12.67,6.63-13.23,11.73-.56,11.49-5.85,14-12.22,5.53-16.74,7.77-7.2,7.33-10.65,12.76-2.69,9.35-7.83,11.55-7.57,2.93-4.78,8.73a185.82,185.82,0,0,0,12.72,21.93c4.83,7,10.44,15.89,17,23.43a119,119,0,0,0,15.91,14.47,221.7,221.7,0,0,1-5.63,48.83c-4.69,19.68-12.37,43.11-21.94,60.8s-22.44,35.94-33.18,44.83C1791.64,1466.43,1781,1465.83,1781,1465.83Z"/><path fill="#fff" fill-rule="evenodd" d="M764.08,1659.34l104-46.37,339.52,41.76,1,37.14-.2,19.63,18.34,8.72,6.42.26,22.3-11.07-1.1,13.56-83.87,48.14-63-3.84L763.93,1723Z"/><path fill="#e4e4e4" fill-rule="evenodd" d="M1110.19,1703.25l36.31-18.57,62,7.22,5,5.4-18.9,13.89,26.8,1.42,3.81,6.52-63.77,37.5-11.59,2.72-38.38-5.25Z"/><path fill="#fff" fill-rule="evenodd" d="M1125.92,1719.59c1.24-3.82,11.15-4.84,14.65-3.08.88.45,5.15,3.67,3.5,5.07C1140.83,1724.34,1123.77,1726.29,1125.92,1719.59Z"/><path fill="#fff" fill-rule="evenodd" d="M1156,1702.48c1.3-3.48,23.44-5.68,19.91,1.31C1172.72,1710,1154,1707.68,1156,1702.48Z"/><path fill="#fff" fill-rule="evenodd" d="M1169.94,1727.36c-5.61-2.93,9.46-9.58,14.13-8.83,7.47,1.21,7.47,6.78,1,10C1180.39,1730.83,1174.22,1729.59,1169.94,1727.36Z"/><path fill="#fff" fill-rule="evenodd" d="M1136.71,1740.62c4.5-4.35.41.15,12.21-4.61,4.5-1.82,10.58,4.58,7.77,8.76C1154.28,1748.36,1132.47,1744.73,1136.71,1740.62Z"/><path fill="#f1964c" fill-rule="evenodd" d="M871.28,1613c-2.59,2.43,27.89,5.74,32,6.22,26.77,3.17,56.1,3.65,82.36,9.75,7.24,1.68,22.43-1.74,28.48,2.94.32.25-15.92,6.79-18.28,7.59-14.58,4.91-34.65,10.16-40.4,26.17-6.36,17.72,19.07,19.5,25,32.62,4.88,10.84-2.66,23-6.23,33-1.75,4.87-2.61,13.37-7.83,16-12.71,6.46-38.63-3.3-52.4-4.93-35-4.14-69.65-9.51-104.37-13.61-12-1.43-24.17-4.34-36-5.75-2.33-.27-8.78,2.93-9.48-.48-2.94-14.21-.18-34.39,1.55-49,.52-4.42-1-10.91,1.55-14.86s8.87-4.32,12.83-6.33c12-6.11,25.12-11.22,37.72-16.09,12.33-4.77,24.71-9.23,36.37-15.42,4.17-2.21,8.38-4.24,12.6-6.13C868,1614.11,873.35,1611,871.28,1613Z"/><path fill="#f1964c" fill-rule="evenodd" d="M1111,1703.51c5.47-11.52,13-19.8,13.41-33.43.15-4.91-6.56-17.6-1.63-21.2,12.39-9.05,48.31,1.76,63.42,4.11,2.75.43,17.7,1,18.78,3.33.57,1.24-6.62,4.72-7.35,5-9.45,3.84-19.73,5.9-28.83,11.12-14.14,8.11-30.38,12.61-43.72,22.36C1123.22,1696.15,1110.24,1705,1111,1703.51Z"/><path fill="#fff" fill-rule="evenodd" d="M759.34,914.89a561.29,561.29,0,0,0,27.66,92.4c23.69,59.09,67.25,139,67.25,139s65.68,11.85,162.72,10.41,225.43-16.18,225.43-16.18-35.92-50.78-62-109.22S1138,906.73,1138,906.73s-14.73-52-30.75-96.85-33.3-82.5-33.3-82.5L1113,558.29s-121.18,21.92-222.39,30.56-182.42,4-182.42,4l-8.33,164Z"/><path fill="#ffe4ce" fill-rule="evenodd" d="M810.93,1141.09s-6.59-32.44-12.4-44.3-13.44-38.77-17.92-48-7.12-15.57-15.3-20.84-14.5-6.86-22.41-18.72-17.67-27.42-24.79-35.07S701.24,956,694.64,947.28,680.93,928.55,677,923s-3.17-11.34-1.58-16.61-4.48-10.55-7.91-17.93-6.59-11.08-7.39-17.93,3.17-6.07,6.07-10.28-.27-9.23-2.64-15.3-6.06-9.23-4.48-15,5.54-7.38,10.55-11.34,7.38-.79,4.75-10.54-4-13.19-4.75-21.1-3.17-9.23,2.9-14.24,12.65-6.85,21.09-10.28,17.41-6.85,28.48-6.85,23.73-.53,34.54,0a190.17,190.17,0,0,1,29,3.42c9.22,1.85,11.6,5,13.18,9.76s-5.54,7.65-10.81,9.75-12.4,4.22-18.72,4.49-12.92,1.58-22.15,1.84-11.87,1.06-19,3.43-14.5,10.81-14.5,10.81,12.39,3.43,19,3.43,24,.79,33.75,1.05,23.46.53,31.9,1.59,10.29,1.31,16.35,5,10.28,7.65,6.07,10.82-6.6,7.38.52,9,12.13,6.07,11.08,10.55S830.44,846.29,822,851s-17.4,9.23-26.89,10.54-21.89,3.43-29.53,3.69-20.83,2.12-20.83,2.12l2.9,8.17s9.23,2.11,16.08,4.48,13.71,6.06,20.3,9.49,11.34,7.12,18.46,11.61,11.6,6.06,14.5,10.54-2.37,9.23-2.37,9.23-5.54,2.9-15,1.85-22.41-2.9-29-6.59S758.72,913,758.72,913s1.32,10.81,3.43,16.61,6.06,31.64,11.86,43.25,13.19,37.44,20,51.67,13.19,31.91,22.68,49.31,15,31.12,21.62,42.45,15.29,29.8,15.29,29.8a233.5,233.5,0,0,0,27.16,4c12.13.79,28.74,3.69,36.13,3.69S938,1154.8,938,1154.8s-2.64,9-9.75,12.91-18.46,9.76-29,10.55-30.59-8.17-37.71-9.49-21.62-7.91-26.89-10.55a149,149,0,0,1-16.35-9.76A44.13,44.13,0,0,1,810.93,1141.09Z"/></g><g data-name="Ñëîé 2"><path fill="#571519" d="M1414.14,724c-1.22,0-2.35,0-3.38-.13-12.83-.87-29.46-10.18-46.74-26.21a32.59,32.59,0,0,0-7.93-5.42c-4-2.14-8.21-4.34-13.59-11.54-19.83-26.92-38.09-70.93-43.66-92.36-3.87-14-5.29-30-6.8-46.83-.72-8-1.46-16.37-2.49-24.42-1-11.06-4.52-24.66-7.63-36.65-1.33-5.14-2.58-10-3.52-14.15-1.54-7.08-13.5-69.73,35.53-103.14a5.72,5.72,0,0,1,6.44,9.45c-34.8,23.71-35.75,68.5-30.82,91.23.91,4,2.13,8.73,3.43,13.74,3.22,12.43,6.87,26.5,7.92,38.29,1,8,1.79,16.48,2.52,24.64,1.46,16.34,2.84,31.77,6.46,44.89,6,23.25,24.68,65.26,41.79,88.5a23.91,23.91,0,0,0,9.76,8.25,43.9,43.9,0,0,1,10.37,7.15c15.13,14,29.65,22.5,39.83,23.18,9.65.82,30.47-3.15,57.89-17.08a32.83,32.83,0,0,1,10.32-2.95c3.36-.54,6-1,9-2.94,40.75-27.39,73.32-80,73.65-80.55a5.71,5.71,0,0,1,9.74,6c-1.38,2.24-34.22,55.29-77,84-5,3.38-9.74,4.14-13.53,4.74a22.53,22.53,0,0,0-6.94,1.86C1447.82,719.26,1426.46,724,1414.14,724Z"/><path fill="#571519" d="M1387.62,576.65a5.66,5.66,0,0,1-2.09-.4c-2.36-.93-23-9.52-24.5-25.78-.65-7.26,3-11.88,6.12-16,3.35-4.29,6.51-8.35,6.18-16.82-.44-4.82-3.28-13.31-8.67-25.67a5.71,5.71,0,1,1,10.47-4.56c6,13.69,9,23.06,9.6,29.5.51,12.93-4.73,19.66-8.56,24.57-2.78,3.57-4,5.26-3.76,7.92.7,7.92,13,14.49,17.3,16.17a5.71,5.71,0,0,1-2.09,11Z"/><path fill="#571519" fill-rule="evenodd" d="M1317.45,509.65c-.93-10.39,3-20.25,10.5-20.92,6.6-.59,13.89,6.37,14.9,17.69.93,10.39-2.95,20.25-10.5,20.93C1325.74,527.94,1318.37,520,1317.45,509.65Z"/><path fill="#571519" d="M1307.94,504.79a5.71,5.71,0,0,1-3.89-9.89c10.14-9.45,24.78-11,43.49-4.6a5.71,5.71,0,1,1-3.69,10.81c-14.42-4.92-25.2-4.21-32,2.15A5.67,5.67,0,0,1,1307.94,504.79Z"/><path fill="#571519" fill-rule="evenodd" d="M1459.9,496c-.93-10.38-7.35-18.37-15-18.64-7.56.67-13.49,8.81-12.47,20.14.92,10.38,7.35,18.37,15,18.64C1454,515.52,1459.88,506.44,1459.9,496Z"/><path fill="#571519" d="M1426.87,494.17a5.71,5.71,0,0,1-4-9.76c12.27-12.24,38.24-10.08,49.77-2.67a5.71,5.71,0,0,1-6.18,9.61c-7-4.48-27.21-7.13-35.52,1.15A5.73,5.73,0,0,1,1426.87,494.17Z"/><path fill="#571519" d="M1598.35,571.14a5.71,5.71,0,0,1-1.68-11.17c25.1-7.77,36.52-30.18,38.83-48.56,1.93-14.8-2.19-27-11-32.72-9-5.79-22-4.24-35.71,4.23a5.71,5.71,0,1,1-6-9.72c17.63-10.88,35.1-12.38,47.9-4.11,12.61,8.15,18.64,24.51,16.13,43.77-2.75,21.89-16.49,48.65-46.79,58A5.82,5.82,0,0,1,1598.35,571.14Z"/><path fill="#571519" d="M1603.49,522.15a5.72,5.72,0,0,1-5.14-8.2c.6-1.24,6.13-12.16,15.47-15.41a5.71,5.71,0,0,1,3.75,10.79c-4.15,1.44-7.94,7.58-8.94,9.62A5.74,5.74,0,0,1,1603.49,522.15Z"/><path fill="#571519" d="M1222.56,412.79A54.66,54.66,0,0,1,1202,408.9a5.71,5.71,0,0,1,1.81-10.91c.91-.11,24.12-3.25,39.22-45.83,16.22-44.63,34.93-90.12,69.36-113.48,42-28.65,135.31-51.12,184.47-36.49,15.88,4.72,26.33,12.91,31.07,24.33a5.71,5.71,0,1,1-10.55,4.38c-3.36-8.09-11.36-14.06-23.78-17.76-45.52-13.55-135.67,8.27-174.79,35-31.61,21.46-49.46,65.07-65,107.9-8.83,24.92-20.7,38.22-30.55,45.31a40.77,40.77,0,0,0,15.87-3.35,5.72,5.72,0,0,1,4.57,10.48A52.42,52.42,0,0,1,1222.56,412.79Z"/><path fill="#571519" d="M1484.25,416.34a97,97,0,0,1-23.1-2.59c-30.1-7.13-47.42-25.33-63.94-44.95-1.79-1.88-3.83-4.19-5.9-6.53-7.82-8.83-16.73-18.88-23.78-18-5.29.58-10.13,7.45-13.27,13.12a5.72,5.72,0,1,1-10-5.54c6.56-11.83,13.76-18,22-18.94,13-1.4,23.92,10.93,33.58,21.83,2,2.25,4,4.46,5.87,6.51,15.46,18.34,31.35,35.1,58.11,41.44,13,3.2,27.34,2.57,39.76.7a102.06,102.06,0,0,1-57.28-37.22,5.71,5.71,0,1,1,9-7c32.06,41.43,81.38,35.77,81.89,35.71a5.71,5.71,0,0,1,2.78,11C1538.64,406.37,1512.54,416.34,1484.25,416.34Z"/><path fill="#571519" d="M1291.3,499.62A5.72,5.72,0,0,1,1286,496c-3.58-9.11-10.88-17.05-18.6-25.45-17.5-19.05-37.34-40.64-25.36-84.61a5.72,5.72,0,1,1,11,3c-10.33,37.88,6.48,56.18,22.74,73.87,8.46,9.21,16.46,17.91,20.82,29a5.72,5.72,0,0,1-5.31,7.81Z"/><path fill="#571519" d="M1566.44,458.86a5.7,5.7,0,0,1-3.94-1.57c-9.08-8.64-18.35-11.07-29.07-13.9-14.43-3.8-30.78-8.1-50-27.73a5.71,5.71,0,1,1,8.17-8c17,17.37,31,21.08,44.68,24.66,11.23,3,22.83,6,34.05,16.67a5.71,5.71,0,0,1-3.94,9.85Z"/><path fill="#571519" d="M1560.26,517.45a5.69,5.69,0,0,1-5.71-5.68c0-.31-.38-31.51-16.83-50.84a5.71,5.71,0,0,1,8.7-7.41c12.7,14.92,17.15,34.94,18.71,47.2,5.42-5.66,11.73-15.73,11.28-31.68a5.71,5.71,0,0,1,5.55-5.87h.16a5.71,5.71,0,0,1,5.71,5.54c1,34.55-23.93,47.59-25,48.13A5.69,5.69,0,0,1,1560.26,517.45Z"/><path fill="#571519" d="M1487,350.56c-31.23,0-54.79-19.79-74.49-36.33-12.25-10.3-22.83-19.18-32.07-20.63-23.92-3.4-37,32.15-37.12,32.51a5.71,5.71,0,1,1-10.75-3.86c.65-1.83,16.43-44.59,49.56-39.95,12.46,1.95,24.17,11.79,37.73,23.18,23.57,19.79,50.29,42.23,88.19,30.25a5.71,5.71,0,1,1,3.45,10.89A80.89,80.89,0,0,1,1487,350.56Z"/><path fill="#571519" d="M1308,334.48a5.71,5.71,0,0,1-5.12-3.17c-5.86-11.79-6.48-23.42-1.85-34.58,11.17-26.9,48.18-40,52.36-41.35a5.72,5.72,0,0,1,3.63,10.84c-13.35,4.46-37.94,16.84-45.44,34.89-3.35,8.08-2.85,16.3,1.53,25.11a5.71,5.71,0,0,1-2.57,7.66A5.64,5.64,0,0,1,1308,334.48Z"/><path fill="#571519" d="M1634,480.42a5.81,5.81,0,0,1-2.38-.52,5.72,5.72,0,0,1-2.8-7.58c8.72-19,17.13-55.39,15.32-75.59a5.71,5.71,0,0,1,11.38-1c2,22.58-7,61-16.32,81.38A5.72,5.72,0,0,1,1634,480.42Z"/><path fill="#571519" d="M1640.72,417a5.78,5.78,0,0,1-3-.84,5.7,5.7,0,0,1-2.53-6.37c.1-.4,10.41-39.43-8.73-62.48a5.71,5.71,0,0,1,8.79-7.3c13.08,15.75,15,36.58,14.09,51.92,8.64-13.23,16.65-33.57,5.16-54.77-34.58-65.8-66.86-100.09-98.7-104.91a5.71,5.71,0,1,1,1.7-11.3c35.7,5.4,70.73,41.66,107.08,110.83,23.48,43.3-19.59,83.33-20,83.73A5.73,5.73,0,0,1,1640.72,417Z"/><path fill="#571519" d="M1630.32,720.06a5.74,5.74,0,0,1-1.82-.3l-1.3-.43c-24.48-8.05-48.89-26.4-28.68-142.87a5.71,5.71,0,0,1,11.26,2c-20.22,116.5,6.59,125.32,21,130.06l1.36.45a5.71,5.71,0,0,1-1.81,11.13Z"/><path fill="#571519" d="M1375.38,757.44a5.72,5.72,0,0,1-4.86-8.71c7-11.42,7.77-30.31,4.91-42.29a5.71,5.71,0,1,1,11.11-2.66c3.37,14.12,2.84,36.09-6.29,50.94A5.7,5.7,0,0,1,1375.38,757.44Z"/><path fill="#571519" d="M1102,789.92a5.71,5.71,0,0,1-3.85-9.93c12.6-11.48,30-21.49,44.38-25.51,9.64-2.7,38.22-7.22,71.32-12.45,18.77-3,38.19-6,55.48-9,11.21-1.91,21.47-4.24,29.72-6.12,19.39-4.39,28.24-6.4,30.47,1.57a5.71,5.71,0,0,1-9.13,5.95c-3.22.09-11.45,2-18.81,3.63-8.38,1.9-18.81,4.26-30.33,6.23-17.36,3-36.81,6.05-55.62,9-31.38,5-61,9.65-70,12.17-10.47,2.93-26.83,11.17-39.77,22.95A5.66,5.66,0,0,1,1102,789.92Zm216.52-58.37v0Z"/><path fill="#571519" d="M1325.43,735.32a5.71,5.71,0,0,1-1.22-11.29c17.6-3.86,41.28-9.88,55-15.2a5.71,5.71,0,0,1,4.13,10.65c-14.31,5.55-38.66,11.75-56.67,15.71A5.85,5.85,0,0,1,1325.43,735.32Z"/><path fill="#571519" d="M1778.14,1467.43a5.71,5.71,0,0,1-5.09-3.12,183.5,183.5,0,0,1-7.91-17.84c-13.83-36.13-21.76-68-28.75-96.14-7.66-30.8-14.27-57.39-26.48-81.81a5.71,5.71,0,0,1,10.22-5.11c12.77,25.55,19.53,52.71,27.34,84.16,6.91,27.81,14.75,59.33,28.34,94.81a174,174,0,0,0,7.41,16.74,5.7,5.7,0,0,1-2.49,7.68A5.59,5.59,0,0,1,1778.14,1467.43Z"/><path fill="#571519" d="M1869.13,1532.09q-.95,0-1.89-.06c-16.06-.91-70.74-8.39-100.16-66.08a5.71,5.71,0,0,1,10.17-5.19c25.93,50.85,72,58.81,90.64,59.87,26.25,1.53,57.4-43.15,66.72-95.54,7.55-42.35,2.45-67-5.27-104.43-2.26-10.92-4.81-23.29-7.26-37.27-5-28.72-8.74-53.42-12.68-79.56-2.78-18.42-5.65-37.46-9.05-58.35-5.88-36-10.74-89.59-12.57-109.75-1.89-20.77-3-41.87-4-62.27-2.75-52.79-5.35-102.66-20.63-140.88-16.33-40.83-62.72-69.79-130.61-81.56-41.57-7.21-66.64-18.93-81.61-25.93-6.16-2.88-13.17-6.14-14.89-5.62a5.74,5.74,0,0,1-8.08.61,5.65,5.65,0,0,1-.6-8c6.54-7.54,15.24-3.48,28.41,2.67,14.46,6.76,38.66,18.08,78.72,25,72,12.47,121.4,43.93,139.26,88.58,16,40,18.64,90.76,21.44,144.53,1.06,20.29,2.15,41.27,4,61.74,1.83,20.14,6.66,73.41,12.47,109,3.42,21,6.29,40,9.07,58.48,3.94,26.08,7.64,50.71,12.65,79.3,2.41,13.8,5,26.09,7.19,36.93,7.7,37.28,13.26,64.23,5.33,108.73C1935.43,1485.67,1901.3,1532.09,1869.13,1532.09Z"/><path fill="#571519" d="M1927,1373.7a5.71,5.71,0,0,1-5.3-3.59c-7.49-18.71-28.22-44.23-61.63-75.85a5.71,5.71,0,0,1,7.85-8.3c35.11,33.23,56.17,59.37,64.39,79.91a5.7,5.7,0,0,1-3.19,7.42A5.44,5.44,0,0,1,1927,1373.7Z"/><path fill="#571519" d="M1864.06,1304.43a5.73,5.73,0,0,1-3.93-1.56c-17.38-16.45-36.39-36.68-45.59-62a5.71,5.71,0,0,1,10.73-3.91c8.4,23.08,26.3,42.07,42.71,57.6a5.71,5.71,0,0,1-3.92,9.86Z"/><path fill="#571519" d="M1714.39,1269.74a5.7,5.7,0,0,1-5.11-3.16c-8.15-16.31-27.24-54.5,10.28-84a5.71,5.71,0,1,1,7.06,9c-27.87,22-18.29,47.62-7.12,70a5.73,5.73,0,0,1-5.11,8.27Z"/><path fill="#571519" d="M1770.57,1261.82a5.71,5.71,0,0,1-3.66-10.1c9-7.52,21.13-11.53,32.8-15.4,13.29-4.41,25.84-8.57,29.72-16.84,2.26-4.8,1.76-11.23-1.54-19.67a5.71,5.71,0,1,1,10.64-4.16c4.5,11.52,4.9,20.9,1.24,28.69-6,12.72-21.47,17.86-36.46,22.82-10.67,3.54-21.71,7.2-29.09,13.34A5.66,5.66,0,0,1,1770.57,1261.82Z"/><path fill="#571519" d="M1838.28,1215.68a5.72,5.72,0,0,1-1.3-11.28c16.07-3.76,23.31-9,23.25-12.23,0-2.81-1.15-6-2.31-9.28-1.6-4.55-3.41-9.72-2.9-15.37a5.71,5.71,0,1,1,11.38,1c-.29,3.18,1,6.76,2.3,10.56,1.41,4,2.87,8.19,3,12.83.2,10.61-10.59,18.54-32.07,23.58A5.85,5.85,0,0,1,1838.28,1215.68Z"/><path fill="#571519" d="M1865.7,1190.63a5.72,5.72,0,0,1-4.23-9.55,29.2,29.2,0,0,1,7.88-5.67,22.6,22.6,0,0,0,5-3.29c6.77-6.81,4.12-14.61-.76-26.77l-1.37-3.46a5.71,5.71,0,1,1,10.65-4.14l1.33,3.34c4.75,11.85,10.66,26.59-1.74,39.09a32.56,32.56,0,0,1-7.51,5.22,20.12,20.12,0,0,0-5,3.35A5.73,5.73,0,0,1,1865.7,1190.63Z"/><path fill="#571519" d="M1762.31,1221.34a5.72,5.72,0,0,1-5-2.86c-10.14-17.59-25.93-25.72-42.65-34.33-12.24-6.3-24.9-12.82-35.75-23.33l-3.11-3c-7.31-6.92-15.6-14.76-19.09-25.08-1.28-3.8-2.3-9.3.13-13.92a11.76,11.76,0,0,1,7.45-5.86c5.32-1.52,9.81.07,13.41,1.34,2.08.74,3.84,1.43,5.38,1.29a5.71,5.71,0,1,1,.67,11.41,24.7,24.7,0,0,1-9.87-1.93c-2.87-1-4.71-1.64-6.46-1.13a1.54,1.54,0,0,0-.49.21c-.2.32-.36,2.06.61,4.93,2.58,7.64,9.46,14.15,16.11,20.44,1.09,1,2.17,2,3.21,3.06,9.64,9.33,21,15.18,33,21.37,17.45,9,35.5,18.28,47.32,38.78a5.72,5.72,0,0,1-5,8.57Z"/><path fill="#571519" d="M1789.91,1188.91a5.72,5.72,0,0,1-4.12-1.74c-15.5-16.05-34.73-25.84-55.11-36.21-11.77-6-24-12.19-35.3-19.69-2.07-1.37-4.33-2.76-6.68-4.19-12-7.32-26.85-16.43-30.52-32-2.7-11.47,1.08-17.19,4.73-20,13.44-10.24,43.31,5.83,44.57,6.51,17.61,9.6,36.16,16.91,54.11,24,23.71,9.34,48.23,19,71,34.07a5.72,5.72,0,0,1-6.3,9.54c-21.81-14.42-44.7-23.43-68.92-33-18.28-7.19-37.17-14.64-55.4-24.58-10-5.44-27.47-11-32.18-7.46-1.89,1.45-1,6.26-.53,8.26,2.58,10.92,14.69,18.33,25.37,24.86,2.46,1.51,4.84,3,7,4.4,10.82,7.15,22.7,13.2,34.18,19,20.32,10.34,41.33,21,58.16,38.45a5.72,5.72,0,0,1-4.11,9.68Z"/><path fill="#571519" d="M1859,1123.47a5.69,5.69,0,0,1-3.6-1.28c-16.93-13.72-51.41-30.49-76.72-40-7.29-2.72-44-13.35-51.42-15-30.57-6.88-41-4.45-44.43-1.2-.64.61-2.57,2.47-1.44,8.67a5.71,5.71,0,0,1-11.24,2.06c-1.48-8.12.12-14.5,4.76-19,8.31-8,24.72-8.49,54.87-1.71,7.87,1.78,45.12,12.56,52.89,15.47,25.38,9.49,61.21,26.61,79.93,41.78a5.71,5.71,0,0,1-3.6,10.15Z"/><path fill="#571519" d="M1882.72,1152a5.72,5.72,0,0,1-4.62-9.08c10.25-14.06,7-23.37,1.07-40.27-.86-2.46-1.76-5-2.65-7.71l-1.59-4.87c-5.46-16.74-11.09-34-23.9-45-3-2.57-8.08-5.68-13.45-9s-11.62-7.12-17.26-11.32l-1.65-1.24c-36.65-27.75-43.85-24.66-44.16-24.5-2.73,4.45,5.67,13.15,10.18,17.83.85.88,1.63,1.68,2.3,2.41,6.32,6.88,15,14.8,23.43,22.47,13.19,12,25.66,23.4,30.54,31.88,1,1.77,12.68,25,12.9,33.91a5.72,5.72,0,0,1-5.57,5.86,5.8,5.8,0,0,1-5.85-5.57c-.12-4.79-8.82-24-11.39-28.51-4-6.93-16.36-18.22-28.33-29.13-8.59-7.83-17.47-15.93-24.14-23.17-.61-.67-1.33-1.41-2.11-2.22-6.68-6.92-19.12-19.81-11.5-31.95a11.24,11.24,0,0,1,7.75-5.12c9.75-1.76,26.08,6.44,52.84,26.7l1.58,1.19c5.23,3.88,11.17,7.53,16.41,10.74,6,3.7,11.21,6.88,14.91,10,15.24,13,21.67,32.75,27.33,50.14l1.58,4.82c.87,2.63,1.74,5.13,2.58,7.52,6,17.1,11.16,31.88-2.61,50.78A5.7,5.7,0,0,1,1882.72,1152Z"/><path fill="#571519" d="M755.81,932.59a5.7,5.7,0,0,1-3.34-1.08c-6.36-4.59-13.68-9.43-23.71-15.72a5.71,5.71,0,1,1,6.06-9.68c10.26,6.42,17.76,11.39,24.34,16.13a5.72,5.72,0,0,1-3.35,10.35Z"/><path fill="#571519" d="M779.89,1042.49a5.61,5.61,0,0,1-1.51-.21c-23.12-6.36-41-30.62-54-48.34-2.88-3.91-5.51-7.5-7.89-10.44-3.72-4.62-7.37-9.3-11-14-6.8-8.7-13.82-17.71-21.18-26-.94-1.06-2-2.18-3.09-3.34-6.29-6.67-14.91-15.81-13.59-27,1.29-10.89,20.47-30.56,25.53-35.23,12.66-11.68,21.14-13.15,28.44-12.92s24.49,3.65,36.65,7.41a108.17,108.17,0,0,1,30.79,14.86c1.24.84,3.74,2.19,6.39,3.62,14,7.53,25.75,14.52,27.85,23.7a11.93,11.93,0,0,1-2.09,9.93c-6.18,8.53-27.37,4.65-31.56,3.79-6.5-1.35-12.12-4.17-17.56-6.91-4.76-2.38-9.25-4.64-13.77-5.58-11.67-2.41-25.41-2.51-37.54-2.59l0-5.71,0-5.72c12.74.09,27.09.19,39.87,2.83,6,1.25,11.37,4,16.57,6.56,5,2.51,9.73,4.89,14.76,5.93,7.93,1.64,18.17,1.83,20.28.38,0-.07,0-.17-.08-.36C811,912.26,796.31,904.33,790,901c-3.17-1.71-5.67-3.05-7.38-4.21a96.51,96.51,0,0,0-27.76-13.42c-12-3.7-27.91-6.75-33.58-6.9-4.79-.1-10.25.54-20.4,9.89-10.74,9.92-21.46,24.29-21.92,28.18-.7,5.87,5.54,12.49,10.55,17.8,1.19,1.26,2.33,2.47,3.35,3.62,7.59,8.6,14.72,17.74,21.61,26.58,3.62,4.63,7.23,9.26,10.91,13.83,2.51,3.11,5.28,6.87,8.21,10.86,12,16.36,28.5,38.78,47.79,44.09a5.71,5.71,0,0,1-1.52,11.22Z"/><path fill="#571519" d="M675.82,909.67a5.73,5.73,0,0,1-5.1-3.13c-1.23-2.44-2.94-5.2-4.75-8.11-4.93-7.93-10.51-16.91-10.75-26.13-.22-8.33,7.45-15.57,13.06-20.86,1.12-1.05,2.13-2,2.91-2.82,25.72-27.13,55-25.77,86.06-24.35,5.44.26,11,.51,16.76.64,2.92.06,6.84-.09,11.39-.26,16-.61,35.82-1.35,46,5.05a11.91,11.91,0,0,1,5.94,10.41c0,6.15-4.56,11.68-8.74,14.22-10.41,6.31-31.79,15.06-46.34,14.75a197.58,197.58,0,0,0-46.37,5.13,5.71,5.71,0,0,1-2.54-11.14,208.27,208.27,0,0,1,49.16-5.41c10.69.09,29.43-6.59,40.16-13.1,1.79-1.09,3.24-3.37,3.25-4.54,0-.1,0-.27-.6-.65-7.18-4.52-26.62-3.78-39.48-3.31-4.73.18-8.8.34-12.06.27-5.83-.13-11.51-.39-17-.64-30.79-1.43-55.11-2.54-77.24,20.79-.9.95-2.07,2.06-3.36,3.28-3.11,2.92-9.57,9-9.48,12.24.16,6.12,4.87,13.71,9,20.4,2,3.13,3.79,6.09,5.25,9a5.72,5.72,0,0,1-5.1,8.3Z"/><path fill="#571519" d="M667.16,862.67a5.72,5.72,0,0,1-5.57-4.44,55.92,55.92,0,0,0-2.93-8.16c-3-7.33-6.45-15.64-3.35-23.76,3.56-9.35,16.9-15.21,26.64-19.49,2.12-.93,4-1.76,5.47-2.5,21.32-10.8,39.72-9,59.21-7a211.87,211.87,0,0,0,27.3,1.53c14.31-.39,30.26-.18,40.05,4.18,6.87,3.06,11.45,8.47,12.26,14.46.72,5.34-1.61,10.51-6.55,14.57a5.72,5.72,0,0,1-7.25-8.84c1.25-1,2.69-2.58,2.48-4.2s-2-4-5.6-5.56c-8.73-3.89-27.88-3.38-35.09-3.19-10.29.27-19.67-.67-28.74-1.58-18.54-1.86-34.56-3.47-52.91,5.83-1.6.81-3.69,1.73-6,2.76-6.54,2.87-18.71,8.21-20.57,13.1-1.48,3.89.92,9.71,3.24,15.33a64.19,64.19,0,0,1,3.51,10,5.72,5.72,0,0,1-4.3,6.84A5.61,5.61,0,0,1,667.16,862.67Z"/><path fill="#571519" d="M676.15,817.43a5.71,5.71,0,0,1-5.42-3.93c-.41-1.25-.93-2.71-1.51-4.32-3.46-9.72-8.2-23-5.44-31.91,3-9.66,12.7-13.52,19.78-16.34,1-.4,2-.8,3-1.2,24.52-10.42,39.41-9.83,64.06-8.85l2.94.1c25.83.81,44.23,3.24,50.1,12.51a10.61,10.61,0,0,1,1,9.91c-3.93,9.59-22.14,14.07-24.2,14.55-5.78,1.35-13,1.62-20.71,1.91-16.68.63-35.6,1.35-41.46,13a5.71,5.71,0,1,1-10.2-5.13c8.89-17.67,32.37-18.56,51.23-19.28,7.12-.27,13.84-.52,18.55-1.62,6.62-1.53,14.45-5.19,16-7.4-1.89-2.38-9.75-6.06-40.66-7l-3-.1c-23.84-.95-37-1.48-59.13,8-1,.43-2.09.86-3.2,1.3-5.49,2.19-11.72,4.66-13.1,9.11-1.63,5.24,2.87,17.89,5.3,24.69.6,1.71,1.15,3.25,1.59,4.58a5.71,5.71,0,0,1-3.64,7.21A5.54,5.54,0,0,1,676.15,817.43Z"/><path fill="#571519" d="M810.47,1141a5.71,5.71,0,0,1-5.49-4.13c-10.4-36.16-21.09-63.43-36-98.31a5.71,5.71,0,1,1,10.5-4.5c15.13,35.29,25.95,62.91,36.52,99.65a5.72,5.72,0,0,1-3.91,7.07A5.79,5.79,0,0,1,810.47,1141Z"/><path fill="#571519" d="M900.17,1183.32c-28.06,0-63.24-15.28-75.77-23.63-10-6.64-22.09-16-27.53-29.58-4.68-11.71-1.37-16.32,2.24-18.12a5.71,5.71,0,0,1,6.89,8.82,22.71,22.71,0,0,0,1.48,5c4.26,10.66,14.67,18.59,23.26,24.32,15,10,62,28.63,84.73,19.2a34.28,34.28,0,0,0,15.15-12.05,5.71,5.71,0,1,1,9.33,6.6,45.57,45.57,0,0,1-20.12,16C914.08,1182.32,907.36,1183.32,900.17,1183.32Z"/><path fill="#571519" d="M1003.33,1466.05c-1.35,0-2.71-.06-4.08-.19-25.94-2.41-53.11-17.59-80.75-45.12-30.63-30.51-60.59-93.72-91.58-193.24-4.48-14.38-9.89-28.82-15.13-42.79-5.3-14.14-10.78-28.76-15.37-43.5-5.15-16.45-5.77-26.09-2.12-31.65a10.24,10.24,0,0,1,7.62-4.61,5.65,5.65,0,0,1,6.2,5,5.77,5.77,0,0,1-4.42,6.23c-.41,1.28-1.19,6.25,3.5,21.2s10,29.31,15.29,43.3,10.76,28.71,15.34,43.4c30.42,97.71,59.45,159.38,88.73,188.54,17.67,17.61,44.82,39.16,73.74,41.85s52.19-34.56,66.21-56.81l3.56-5.62c10.54-16.43,28.62-68.67,38.88-107.15a5.71,5.71,0,1,1,11,2.94c-10.44,39.15-28.82,92.48-40.3,110.38-1.11,1.73-2.28,3.59-3.51,5.54C1061.35,1427.29,1036.92,1466.05,1003.33,1466.05Z"/><path fill="#571519" d="M1059.12,1342h-.22a5.7,5.7,0,0,1-5.5-5.92c1.18-31.43-25.73-75.8-51.76-118.71C991,1199.76,980,1181.58,971,1164.48a5.71,5.71,0,1,1,10.12-5.31c8.79,16.79,19.72,34.81,30.29,52.25,26.9,44.34,54.71,90.21,53.41,125.06A5.71,5.71,0,0,1,1059.12,1342Z"/><path fill="#571519" d="M1119.32,1569.08a5.37,5.37,0,0,1-.8,0,5.71,5.71,0,0,1-4.87-6.45c2.74-19.5,0-110.6-3.22-216.1-1.77-58.25-3.59-118.48-4.84-176.56-.09-3.84-.15-7.71-.21-11.59a5.72,5.72,0,0,1,11.43-.17c0,3.86.12,7.69.2,11.51,1.25,58,3.07,118.24,4.84,176.47,3.35,110.38,6,197.57,3.12,218A5.71,5.71,0,0,1,1119.32,1569.08Z"/><path fill="#571519" d="M1757.12,1571.92a5.71,5.71,0,0,1-5.7-5.44c-1.09-22.23,1.36-64.39,3.32-98.26,1.11-19,2.06-35.5,2.11-43.67a5.72,5.72,0,0,1,5.71-5.69h0a5.71,5.71,0,0,1,5.68,5.75c0,8.47-1,25.06-2.12,44.28-2,33.6-4.38,75.41-3.33,97a5.7,5.7,0,0,1-5.42,6Z"/><path fill="#571519" d="M1780.38,1471.43c-5.11,0-9.5-1.62-12.46-4.69-2-2.11-5.17-6.89-3.23-15.1a5.71,5.71,0,0,1,11.12,2.63c-.3,1.26-.65,3.52.34,4.55s3.55,1.61,7.31.86c10-2,16.12-8.41,23.81-16.55l1.76-1.85c25.57-26.88,46.18-74.41,50.12-115.59.11-1.16.3-2.65.52-4.36,2.35-18.17,1.43-27.88-2.75-28.87a5.71,5.71,0,1,1,2.64-11.12c16.3,3.86,13.14,28.31,11.44,41.45-.2,1.57-.38,2.93-.48,4-4.15,43.48-26,93.81-53.22,122.37l-1.72,1.83c-8,8.47-16.29,17.23-29.91,19.91A27.45,27.45,0,0,1,1780.38,1471.43Z"/><path fill="#571519" d="M1464.56,846.1c-2.33,0-4.65-.06-7-.17-61.6-3-113.2-45.23-138-113a5.71,5.71,0,1,1,10.73-3.93c23.2,63.35,71,102.81,127.85,105.55,66,3.17,130.32-43.13,167.64-120.88a5.71,5.71,0,0,1,10.3,5C1598,797.85,1532.8,846.1,1464.56,846.1Z"/><path fill="#571519" d="M1315.12,567.93c-33.5,0-60.76-27.5-60.76-61.3a5.72,5.72,0,0,1,11.43,0c0,27.5,22.13,49.87,49.33,49.87s49.34-22.37,49.34-49.87a5.71,5.71,0,0,1,11.42,0C1375.88,540.43,1348.62,567.93,1315.12,567.93Z"/><path fill="#571519" d="M1464.53,566.86c-33.5,0-60.76-27.5-60.76-61.3a5.72,5.72,0,0,1,11.43,0c0,27.5,22.13,49.87,49.33,49.87s49.34-22.37,49.34-49.87a5.71,5.71,0,0,1,11.42,0C1525.29,539.36,1498,566.86,1464.53,566.86Z"/><path fill="#571519" d="M1368.38,520a5.6,5.6,0,0,1-1.8-.29,5.72,5.72,0,0,1-3.62-7.23c3.54-10.63,12.47-17.47,23.88-18.28,12.43-.9,24.53,5.73,29.9,16.46a5.71,5.71,0,1,1-10.22,5.11c-3.27-6.54-11-10.75-18.87-10.17-3.19.23-10.92,1.7-13.85,10.49A5.71,5.71,0,0,1,1368.38,520Z"/><path fill="#571519" d="M1261.86,511.81a5.72,5.72,0,0,1-2.34-10.93l27.88-12.51a5.72,5.72,0,0,1,4.68,10.43l-27.88,12.51A5.7,5.7,0,0,1,1261.86,511.81Z"/><path fill="#571519" d="M1511.72,505.74a5.71,5.71,0,0,1-1.82-11.13l71.49-24a5.72,5.72,0,0,1,3.63,10.84l-71.48,23.95A5.83,5.83,0,0,1,1511.72,505.74Z"/><path fill="#571519" d="M1431.66,634.77a5.74,5.74,0,0,1-1.58-.22c-3-.87-6.19-1.89-9.4-2.94-13.7-4.48-27.86-9.1-39.74-3.16a5.71,5.71,0,1,1-5.1-10.22c16.08-8.05,33.24-2.43,48.38,2.52,3.08,1,6.09,2,9,2.82a5.71,5.71,0,0,1-1.56,11.2Z"/><path fill="#571519" d="M1406,454.18c-4.18,0-8.29-.76-11.39-3.22a11.48,11.48,0,0,1-4.32-8.63,5.71,5.71,0,0,1,11.41-.64,1.15,1.15,0,0,0,.06.39c.77.7,3.86,1.28,13.82-.47,1-.17,1.84-.32,2.54-.42,6.78-1,18.6-3.77,30-6.46,26.16-6.17,30.58-6.9,33.77-5.52a5.71,5.71,0,0,1-3.49,10.82c-3.33.08-17.35,3.39-27.66,5.82-11.67,2.75-23.74,5.59-31,6.65-.61.09-1.36.22-2.2.37A67.92,67.92,0,0,1,1406,454.18Zm71.39-14.48h0Z"/><path fill="#571519" d="M1388.43,459a5.69,5.69,0,0,1-4.64-2.38c-6.81-9.47-5.93-16.79-4-21.26a5.71,5.71,0,0,1,10.49,4.53c-1.11,2.57-.17,5.95,2.78,10.06a5.71,5.71,0,0,1-4.63,9.05Z"/><path fill="#571519" d="M1323.33,460.24c-14.34,0-27.62-2.4-31.54-4.09a5.71,5.71,0,1,1,4.53-10.49c8,3.44,53.16,6.65,58.8-6.41a5.71,5.71,0,1,1,10.48,4.53C1360.05,456.65,1340.89,460.24,1323.33,460.24Z"/><path fill="#571519" d="M1487.66,489.52a5.71,5.71,0,0,1-.7-11.38,106.06,106.06,0,0,1,13.36-.89,5.72,5.72,0,0,1,0,11.43,96.62,96.62,0,0,0-11.94.79A5.81,5.81,0,0,1,1487.66,489.52Z"/><path fill="#571519" d="M1501.59,504.7a5.61,5.61,0,0,1-1.07-.1c-3.66-.7-5.46-1.12-6.55-1.37a7.8,7.8,0,0,0-2.59-.22h-1.18a5.71,5.71,0,0,1,0-11.42h1.16a17.13,17.13,0,0,1,5.22.51c1,.24,2.67.63,6.08,1.28a5.71,5.71,0,0,1-1.07,11.32Z"/><path fill="#571519" d="M1301.64,503.44a5.69,5.69,0,0,1-2.55-.61l-.84-.42a5.6,5.6,0,0,1-1.48-1.07l-1.23-1-3.82-2.55a5.71,5.71,0,0,1,6.36-9.49l5,3.35a6.82,6.82,0,0,1,.88.73l.21.2a5.72,5.72,0,0,1-2.57,10.82Z"/><path fill="#571519" d="M1298.27,516.09h-2.53a5.71,5.71,0,0,1,0-11.42l2.22-.1,1.13-.57a5.72,5.72,0,0,1,5.12,10.22l-1.69.84a5.51,5.51,0,0,1-1.17.44l-1.69.42A5.88,5.88,0,0,1,1298.27,516.09Z"/><path fill="#571519" d="M1367.69,416.81c-5.25,0-11.11-1.23-18-4.67a5.71,5.71,0,0,1,5.11-10.22c11.43,5.71,18.11,3.32,27.36,0,6.32-2.26,13.48-4.83,22.81-4.83a5.72,5.72,0,0,1,0,11.43c-7.35,0-13,2-19,4.16C1380.34,414.73,1374.52,416.81,1367.69,416.81Z"/><path fill="#571519" d="M1356.06,647.28a5.73,5.73,0,0,1-5.42-3.91c-4.39-13.17-1.2-22,2.5-32.11.69-1.92,1.43-3.94,2.14-6.09a5.71,5.71,0,1,1,10.84,3.61c-.75,2.26-1.52,4.37-2.25,6.38-3.44,9.48-5.52,15.2-2.39,24.6a5.72,5.72,0,0,1-3.61,7.23A6,6,0,0,1,1356.06,647.28Z"/><path fill="#571519" d="M1458.14,645.59a5.63,5.63,0,0,1-2.12-.41,5.71,5.71,0,0,1-3.18-7.42c4.14-10.36,2.55-17.86-5.49-25.9a5.71,5.71,0,1,1,8.08-8.08c11.2,11.2,13.82,23.7,8,38.22A5.7,5.7,0,0,1,1458.14,645.59Z"/><path fill="#571519" d="M1000.85,1162.53c-87.66,0-147-10.51-147.62-10.62a5.73,5.73,0,0,1-4-2.89c-.44-.8-44-80.88-67.54-139.6a563.57,563.57,0,0,1-27.94-93.37,5.71,5.71,0,0,1,11.18-2.32,552.92,552.92,0,0,0,27.37,91.43c21,52.38,58.19,122.12,65.64,136,13.26,2.13,74.44,11.12,158.95,9.87,80.57-1.2,184.07-11.73,215.45-15.11-11.11-16.65-37.15-57.41-57.17-102.25-26-58.24-42.55-124.87-42.72-125.53-.09-.33-14.81-52.17-30.58-96.3s-32.94-81.66-33.11-82a5.73,5.73,0,0,1-.38-3.67l37.13-160.69c-29.42,5.1-129.46,21.88-214.39,29.14a1485.43,1485.43,0,0,1-177.5,4.3l-8,158.29a5.71,5.71,0,0,1-11.41-.58l8.32-164a5.76,5.76,0,0,1,1.89-4,5.66,5.66,0,0,1,4.14-1.45c.81.05,82,4.5,181.62-4,99.76-8.52,220.64-30.28,221.85-30.5a5.71,5.71,0,0,1,6.58,6.91L1080,726.79c3.62,8,18.72,42.08,32.68,81.17,15.89,44.5,30.72,96.69,30.87,97.21.21.85,16.52,66.52,42.1,123.8s61.11,107.75,61.47,108.25a5.72,5.72,0,0,1-4,9c-1.29.15-129.79,14.79-226,16.21Q1008.81,1162.53,1000.85,1162.53Z"/><path fill="#571519" d="M746.56,877.9a5.72,5.72,0,0,1-5.3-3.57l-1.47-3.64a5.71,5.71,0,0,1,10.59-4.28l1.47,3.64a5.71,5.71,0,0,1-3.15,7.43A5.62,5.62,0,0,1,746.56,877.9Z"/><path fill="#571519" d="M772.81,651.75a7.31,7.31,0,0,1-5.26-2.29,6.94,6.94,0,0,1-1.92-5.47c.26-3.37,2.86-6.94,5-9.32a6.94,6.94,0,0,1-4.88-1.64,7.52,7.52,0,0,1-2.88,2c-4.72,1.67-10.13,3.22-14.61.47-4-2.45-5-7-5.4-10.12a5.71,5.71,0,1,1,11.33-1.48,11.06,11.06,0,0,0,.3,1.63,21.31,21.31,0,0,0,3.56-.93l.94-1.06c2.45-2.79,5-5.66,9-4.26a7.41,7.41,0,0,1,3.29,2.4c2.18-1.68,5.18-3.51,8.77-2.26,1.75.6,4.58,2.32,5.32,7.12,7.5-2.34,16.14-3.72,20.64-2.16a5.71,5.71,0,1,1-3.74,10.8c-2.78-.76-12.61,1.54-18.46,4-1.58,5.2-4.24,10.36-8.07,12A7.3,7.3,0,0,1,772.81,651.75ZM759,624.22h0Z"/><path fill="#571519" d="M875.67,641.31a5.7,5.7,0,0,1-3.4-1.12,6.14,6.14,0,0,1-1.17-1.12,9.13,9.13,0,0,1-5.4,1.6c-5.22-.06-9.56-4.35-13.38-8.14a7.65,7.65,0,0,1-3.46,1.74c-6.88,1.44-22.2,2.66-29.11,2.6a5.72,5.72,0,0,1-5.64-5.79,5.6,5.6,0,0,1,5.79-5.64,185.26,185.26,0,0,0,25.3-2.1l0-.06c4.35-6.32,9-4,10.27-3.15a32.58,32.58,0,0,1,4.82,4.26,42,42,0,0,0,5.09,4.52,36.12,36.12,0,0,0,2.09-3.44c2-3.58,4.25-7.65,8.69-8.8a7.26,7.26,0,0,1,8.62,3.49c.12.24.23.49.33.74,9.05-1.84,20,.7,28.44,2.66a93.14,93.14,0,0,0,10.95,2.14l.18-.28c.95-1.45,3.1-4.47,6.78-4.42a7.4,7.4,0,0,1,4.89,1.9c.38-.71.75-1.46,1.05-2,2.15-4.3,4.38-8.75,9.21-8.75h.09c2.87,0,4.59,1.63,6.56,5.19a73.84,73.84,0,0,1,11.42-1.43c1.67-.13,3.19-.23,4.37-.39a5.71,5.71,0,0,1,1.48,11.33c-1.36.18-3.1.31-5,.45s-5.26.39-7.85.79a5.75,5.75,0,0,1-3,5,5.82,5.82,0,0,1-7.69-2.27,15.37,15.37,0,0,1-.92-1.87c-1.68,3.07-3.67,5.79-6.77,6.78a8.11,8.11,0,0,1-7.5-1,8.7,8.7,0,0,1-6.23,2.53c-4.07-.06-9-1.2-14.64-2.51-13.09-3-23.67-5-28.23-.19a22.69,22.69,0,0,1-3.36,5.43A5.8,5.8,0,0,1,875.67,641.31Z"/><path fill="#571519" d="M990.66,627.33c-2.43,0-4.76-1.14-6.95-3.38a5.71,5.71,0,0,1,6.15-9.32c1.57-2.17,4.86-5.74,9.95-4,10.76,3.74,10.77,3.74,20.55-3.67a5.92,5.92,0,0,1,7.29.31c3.33,2.84,5.45,3.89,6.13,4.11a5.79,5.79,0,0,1,5.91,5,5.71,5.71,0,0,1-4.93,6.4c-2,.26-5.34.05-11.07-4.07-9.78,7-13.67,7.39-25.21,3.56-1.26,1.89-3.32,4.66-7.07,5C991.16,627.31,990.91,627.33,990.66,627.33Z"/><path fill="#571519" d="M843.73,687.5c-1.58,0-3.52-.65-5.07-3.21a25.44,25.44,0,0,0-3.18-4.5c-3.61-1-7.75.64-12.52,2.53a47.19,47.19,0,0,1-11.29,3.4c-4.78.61-10.71-1.52-17-3.78-3.64-1.31-7.4-2.67-9.84-3h0c-.73,0-2.94,1.89-4,2.79-3.14,2.68-10.48,8.93-18.1,2a12.7,12.7,0,0,1-2.94-4.08c-3.5,1.73-6.69,2.82-9.19,2.74a5.71,5.71,0,0,1,.07-11.42h0c1.74-.17,4.87-1.74,7.81-3.71a26.47,26.47,0,0,1,1.86-6.63c1.82-4,4.93-8.89,9.48-9a6.59,6.59,0,0,1,6,3.81c1,2.14,2.25,6.54-1.26,12a26.43,26.43,0,0,1-4.9,5.53,3.71,3.71,0,0,0,.77,2.22l0,.05A23.37,23.37,0,0,0,773.4,673c3.07-2.62,7.3-6.19,13-5.42,3.61.5,7.75,2,12.14,3.57,3.84,1.38,9.66,3.48,11.67,3.2a38.94,38.94,0,0,0,8.56-2.69c6.19-2.45,13.23-5.24,21-2.55a10.93,10.93,0,0,1,4.5,3.27c4.48-1.35,10.08-.86,12.92-.47h.1a11.85,11.85,0,0,1,5.17-4.63c3.57-1.72,7-.56,10.24,3.48l.11.15c1.21-.14,2.44-.36,3.72-.59,4.14-.74,8.84-1.58,14.06.23a5.71,5.71,0,1,1-3.76,10.79c-2.39-.83-5-.36-8.3.23a50.29,50.29,0,0,1-6.71.87,8.13,8.13,0,0,1-6.12-2.4c-2.19,2.87-5.3,3.83-10.06,3.18a36.05,36.05,0,0,0-6.17-.19,6.09,6.09,0,0,1-2.85,3.73A6.18,6.18,0,0,1,843.73,687.5Z"/><path fill="#571519" d="M798.33,730.81a9.07,9.07,0,0,1-6.66-2.54c-2.37-2.38-2.65-5.44-2.61-7.74-3.72.46-10.67,3.17-13.6,4.32-5.22,2-7.85,3.06-10.39,2.63a7.51,7.51,0,0,1-6-5.55,15.74,15.74,0,0,1-5.33,3.67,5.71,5.71,0,1,1-4-10.68,13.37,13.37,0,0,0,2.23-2c2.28-2.31,6.1-6.19,11.63-4.72,3.87,1,5.22,4.26,5.78,6.76l2-.76c9.88-3.87,21.08-8.25,27.13-2a7.09,7.09,0,0,1,1.19,1.62c1.67-3.25,4.18-6.6,8.64-6.6h.12c5.61.07,7,5.74,7.6,8.16.06.26.14.56.22.88,1.09-.47,2.34-1,3.26-1.46,5.39-2.47,7.84-3.6,10.81-1.33,2.7,1.13,17.05.28,20.68-1.48a5.71,5.71,0,1,1,5,10.29c-4.77,2.31-21,4.48-29.37,1.84l-2.33,1.06c-5,2.27-7,3.14-8.91,3.23a8.6,8.6,0,0,1-8-4.1c-1.68,3.2-4.09,6.32-8.39,6.51Z"/><path fill="#571519" d="M932.55,730a7.28,7.28,0,0,1-2.41-.42c-4.07-1.4-4.29-3.71-3.7-12.42a7.19,7.19,0,0,1-.67.37c-4.16,2-7.87,1.07-11-2.81a10.73,10.73,0,0,1-2.11,2.47c-3.55,3-7.79,2.48-10.61,2.15a12.39,12.39,0,0,0-2.72-.14,5.71,5.71,0,0,1-2.87-11.06,19,19,0,0,1,6.89-.15,19.9,19.9,0,0,0,2.09.18c.1-.24.29-.61.5-1,1.41-2.56,4-7.36,9.31-6.85,3.48.31,5.5,2.7,6.79,4.71l1.73-2.27c5-6.64,6.09-8,9.52-7.67a5.74,5.74,0,0,1,4.6,3.21c.81,1.65,1,3.44.64,9.89l2.1-.38c6.46-1.19,9.71-1.79,15-6.23,6-5,13.61-4.18,20.33-3.43,5.94.65,10,.93,12.08-1.11a5.71,5.71,0,1,1,8,8.19c-6.1,5.95-14.53,5-21.3,4.27-4.88-.53-9.49-1-11.76.85-7.62,6.37-13.21,7.39-20.29,8.69l-2.47.46c-.06.41-.11.82-.15,1.14-.36,2.85-.81,6.39-3.95,8.34A6.66,6.66,0,0,1,932.55,730Z"/><path fill="#571519" d="M836.22,772.69a7.52,7.52,0,0,1-1.74-.21c-5.4-1.3-12.69-10.86-13.39-12.93-.07-.19-.29-1.2-.53-2.63-5.69,5.69-9.37,9.15-13.93,9.08-5.92-.08-9-5.15-10.75-8.18l-.22-.36a11.64,11.64,0,0,1-5.43,3.49c-4,1-8.16-.11-11.81-1.15-2.25-.63-5-1.42-6.3-1.09-4.9,1.26-8.49-.94-10.8-3a5.64,5.64,0,0,1-7.3-7c.43-1.26,1.76-5.08,5.72-6s6.44,1.75,8,3.3a9.26,9.26,0,0,0,1.83,1.6c4-1.13,8.22.07,12,1.14a22.46,22.46,0,0,0,5.51,1.13c.26-.23.51-.52.77-.79,1.49-1.54,3.74-3.87,7.38-4.35,5.81-.74,8.73,4.21,10.5,7.17.34.58.83,1.39,1.26,2a76,76,0,0,0,5.88-5.5c5.22-5.24,8.67-8.69,13.27-7.09,3.75,1.29,4.23,4.29,5.66,13.21.06.35.11.67.15.95.43.57,1.05,1.32,1.73,2.1a8.29,8.29,0,0,1,4.82-4c5.8-1.86,9.89,1.19,12.09,2.83.37.28.91.67,1.23.87,11.55-.63,29.58-5.49,41.29-11.17a6.62,6.62,0,0,1,5.3-.26,7.81,7.81,0,0,1,4.22,4.33c2.37-.56,4.91-1.4,7.55-2.28,8.64-2.85,18.42-6.09,29.26-2.32a5.71,5.71,0,1,1-3.75,10.79c-7.19-2.49-14.34-.13-21.92,2.38a69.47,69.47,0,0,1-12.45,3.28q-4.59.57-7.4-3.74c-13,5.54-30.22,9.88-42,10.42-3.72.18-6.41-1.82-8.18-3.13l-.52-.39a9,9,0,0,1-2.35,5.55A6.56,6.56,0,0,1,836.22,772.69ZM797.2,756Z"/><path fill="#571519" d="M815.22,809.47a5.7,5.7,0,0,1-5.66-5l-.18-1.42a5.24,5.24,0,0,1,0-.79l0-1.62-.13-1a3.73,3.73,0,0,1,0-.47l-.16-3.44a5.71,5.71,0,1,1,11.41-.51l.3,4.37a7.16,7.16,0,0,1,0,.8l0,1.61.13,1a5.72,5.72,0,0,1-4.93,6.4A6.23,6.23,0,0,1,815.22,809.47Z"/><path fill="#571519" d="M828.61,835.06a5.69,5.69,0,0,1-5.52-4.28l-.58-2.22a5.58,5.58,0,0,1-.13-.69l-.74-5.67a5.73,5.73,0,0,1,.27-2.6l.41-1.21a5.71,5.71,0,0,1,10.82,3.67l.52,4,.49,1.89a5.72,5.72,0,0,1-4.1,7A5.92,5.92,0,0,1,828.61,835.06Z"/><path fill="#571519" d="M822.43,878.16a5.73,5.73,0,0,1-5.15-3.23l-.78-1.63a5.6,5.6,0,0,1-.57-2.55v-1.26l-.38-1.49a5.27,5.27,0,0,1-.14-.69l-.18-1.42a5.61,5.61,0,0,1,.27-2.6l.62-1.81a5.71,5.71,0,1,1,10.8,3.74l-.17.48.43,1.67a5.74,5.74,0,0,1,.19,1.49v.68l.2.42a5.72,5.72,0,0,1-5.14,8.2Z"/><path fill="#571519" d="M826.25,909.87a5.71,5.71,0,0,1-5.58-4.54l-2.22-10.65a5.71,5.71,0,1,1,11-2.88l1.16,4.45a5.94,5.94,0,0,1,.14.71l.36,2.83.69,3.2a5.71,5.71,0,0,1-4.42,6.76A5.91,5.91,0,0,1,826.25,909.87Z"/><path fill="#571519" d="M830.77,935.75a5.71,5.71,0,0,1-5.43-4l-1-3a5.87,5.87,0,0,1-.22-1l-.19-1.41a7.32,7.32,0,0,1,0-.81l0-2a5.82,5.82,0,0,1,5.79-5.64,5.71,5.71,0,0,1,5.64,5.79l0,1.62.06.49.82,2.54a5.72,5.72,0,0,1-3.7,7.19A5.91,5.91,0,0,1,830.77,935.75Z"/><path fill="#571519" d="M850.41,812.08c-7.31,0-13.92-1-17.69-3.93a5.71,5.71,0,1,1,7-9c4.29,3.3,29.07,1,41.4-3,.13,0,.26-.19.84-1,1.26-1.75,4.62-6.43,11.91-3.89a5.72,5.72,0,0,1-3,11,12.28,12.28,0,0,1-6.32,4.75A136.82,136.82,0,0,1,850.41,812.08Z"/><path fill="#571519" d="M849.94,839.77a5.71,5.71,0,0,1-.73-11.38,163.35,163.35,0,0,0,19.67-4c4-1,8.35-2.09,13.47-3.15,4.48-.94,9.2.22,13.37,1.26,2.89.71,5.88,1.46,7.64,1.17,2-.32,2-.43,3-2.26a14.75,14.75,0,0,1,7-7.38c5.54-2.7,11.39.37,15.66,2.61a24.94,24.94,0,0,0,2.76,1.34c3.64,1.26,7.54.2,12.07-1,5.28-1.41,11.26-3,17.62-.82a5.71,5.71,0,1,1-3.75,10.79c-3-1-6.68-.07-10.89,1.07-5.56,1.49-11.85,3.19-18.79.77a32.25,32.25,0,0,1-4.32-2c-1.5-.79-4.65-2.44-5.72-2.34-.5.29-.71.61-1.52,2.19-1.36,2.65-3.63,7.1-11.35,8.34-4,.66-8.19-.37-12.19-1.36-3.13-.78-6.36-1.59-8.29-1.17-5,1-9.12,2.07-13,3.05a172.72,172.72,0,0,1-21,4.26A6.27,6.27,0,0,1,849.94,839.77Z"/><path fill="#571519" d="M856.81,879.39a21.54,21.54,0,0,1-7.77-1.88c-1.49-.59-3.54-1.38-4.14-1.09a5.71,5.71,0,0,1-5-10.28c5.09-2.47,9.82-.63,13.27.72,1.16.45,3.11,1.24,3.68,1.1,12.11-5.87,24.19-6.5,35.87-7.12,4.78-.25,9.29-.48,13.76-1.06a15.91,15.91,0,0,0,3.89-1.25c3.4-1.41,8.06-3.34,15.09-.9a5.71,5.71,0,1,1-3.75,10.79c-2.93-1-4.19-.49-7,.66a25.89,25.89,0,0,1-6.79,2c-4.92.64-9.86.89-14.64,1.14-11,.58-21.46,1.13-31.52,6A11.34,11.34,0,0,1,856.81,879.39Z"/><path fill="#571519" d="M868.47,922.5a5.72,5.72,0,0,1-1.89-.31,8.38,8.38,0,0,1-5.79-6.39,8.82,8.82,0,0,1-.09-2.57c-1-1.34-1.81-2.59-2.58-3.76a5.72,5.72,0,0,1-4.82-8.75c-1.45-3.51-1.51-5.67-1.23-7.33a7.53,7.53,0,0,1,3.22-5.06,6.49,6.49,0,0,1,8.43.66c2.45,2.47,2.54,6.8,1.79,10.68.45.79,1,1.7,1.65,2.73a104.55,104.55,0,0,1,7.79-7.16l.66-.56c8.69-7.57,17.56-4.61,24-2.46,3,1,5.81,1.92,7.83,1.66a111.66,111.66,0,0,0,15.49-3.6c2.19-.61,4.41-1.24,6.68-1.83a5.71,5.71,0,0,1,2.87,11.06c-2.19.57-4.33,1.18-6.45,1.77A120.33,120.33,0,0,1,909,905.21c-4.65.6-9-.86-12.91-2.15-6.51-2.17-9.5-2.75-12.91.22l-.83.71a70.63,70.63,0,0,0-8.62,8.23c1,2.16,1.73,5.35-.27,8A6.33,6.33,0,0,1,868.47,922.5Z"/><path fill="#571519" d="M867.58,947.07a8.06,8.06,0,0,1-2.7-.49,7,7,0,0,1-4.67-5.39,10.29,10.29,0,0,1,1.25-6.36c-1.24-4.51-2.3-9.73.31-13.72A5.71,5.71,0,0,1,872.22,925a54.79,54.79,0,0,1,8.6-2.9c3.36-.92,6.53-1.79,9.32-3.54,5.23-3.29,11.33-2.23,16.24-1.38a24.32,24.32,0,0,0,5.64.59c1.45-.19,4-1.5,6-2.54,3.43-1.77,6.66-3.45,10-3.15a66.91,66.91,0,0,1,11.13,2.18c4.7,1.23,8.77,2.29,14,1.61a5.71,5.71,0,0,1,1.47,11.33c-7.42,1-13-.48-18.35-1.88a56.8,56.8,0,0,0-8.95-1.83,31.07,31.07,0,0,0-4.08,1.89c-3,1.54-6.36,3.27-9.79,3.72a31.18,31.18,0,0,1-9.06-.66c-3-.53-6.7-1.17-8.2-.21a44.1,44.1,0,0,1-12.39,4.89c-3.78,1-7.08,1.94-10,4,.64,3.08.59,5.91-1.77,8.14A6.62,6.62,0,0,1,867.58,947.07Zm59.92-23.64Z"/><path fill="#571519" d="M849.28,1025.15l-.78,0a10.13,10.13,0,0,1-6.32-3.13,5.71,5.71,0,0,1-7-9,19.28,19.28,0,0,0,1.62-2.37,28.1,28.1,0,0,1-.51-4.66c-.19-9.19,5.31-10.62,7-10.84a7.24,7.24,0,0,1,8,4.36c1.37,3.33-.06,8.17-2.16,12.5.05.13.11.26.17.38,1.51-1.79,3.72-4.11,7.18-4.57,5.66-.74,10.9.12,16,.94,5.76.93,11.19,1.81,16.52.11a22.07,22.07,0,0,0,5.84-3.34c4.29-3,10.17-7.17,19.25-4a5.71,5.71,0,1,1-3.75,10.79c-3.38-1.17-4.92-.25-8.91,2.56a32.12,32.12,0,0,1-9,4.88c-8,2.54-15.32,1.34-21.83.28-4.2-.67-8.17-1.32-12-1-.29.31-.7.79-1,1.14C856,1022.08,853.46,1025.15,849.28,1025.15Zm-13.78-12.42-.26.21A2.65,2.65,0,0,1,835.5,1012.73Z"/><path fill="#571519" d="M891.34,1080a8.07,8.07,0,0,1-5.75-2.64c-5.29-5.42-3.61-14.8-3-17.54,1.46-6.28,4.53-10.94,8.53-13.08.05-1.19.07-2.34.09-3.4-2.23,2.66-4.41,4.53-6.91,5.33-5.76,1.85-11.17,1.12-15.12.6a27.33,27.33,0,0,0-3.9-.35c-4.52.21-6.8.87-7.38,1.39-3.12,2.72-6.45,2.31-9.9-1.25l-.41-.42a5.71,5.71,0,0,1,6.45-9.19c2.28-1,5.58-1.71,10.72-2a37.11,37.11,0,0,1,5.92.45c3.35.44,6.82.89,10.15-.16,1.09-.68,4.2-5.15,5.69-7.29,3.22-4.64,5.17-7.45,8.61-7.9a7.25,7.25,0,0,1,6.28,2.08c3,3.1,2.31,7.48,1.64,11.7a24.64,24.64,0,0,0-.44,3.87s0,.37,0,1l2.15-1.22c10.61-6,22.63-12.88,36.41-8.09a5.72,5.72,0,0,1-3.75,10.8c-8.88-3.08-17.69,1.91-27,7.22-2.62,1.49-5.31,3-8,4.37-.63,10.14-2.56,22.49-8.14,25A7,7,0,0,1,891.34,1080Z"/><path fill="#571519" d="M874.89,1106a6.2,6.2,0,0,1-5.37-3.18,12.82,12.82,0,0,1-2.11-8.15l-.58-.17a5.71,5.71,0,0,1-3.52-7.27c.91-2.63,3.32-9.53,9.48-8.89,5.17.6,7,6.18,7.83,11.32l1.76.85c.56.28,1.34.66,1.86.88a130.22,130.22,0,0,0,20-5c3.3-1,6.49-2,9.59-2.81,3.41-.89,6.28.83,8.46,2.29,1.7-1.65,4.78-4.45,9.89-3.6A68.6,68.6,0,0,1,942,1085c4.37,1.48,9.32,3.12,12.28,2.76a5.71,5.71,0,1,1,1.48,11.32c-5.57.73-11.58-1.29-17.4-3.24a64.68,64.68,0,0,0-7.57-2.24c-.21.18-.4.38-.6.58a14.29,14.29,0,0,1-5.32,3.62c-3.46,1.23-6.33-.73-8.43-2.16l-1-.67c-2.52.69-5.1,1.49-7.75,2.31-6.76,2.09-14.42,4.46-22.78,5.55a8.9,8.9,0,0,1-4.43-.66,5.84,5.84,0,0,1-3.69,3.53A6,6,0,0,1,874.89,1106Z"/><path fill="#571519" d="M1017.37,1014.76a5.72,5.72,0,0,1-4.6-9.09l2.28-3.08.41-.54c.93-9.19,8.44-21,9.43-21.83a5.71,5.71,0,0,1,9.25,5.63c-1.06,4.67-1.9,8-2.73,10.66a11.22,11.22,0,0,1,3.15-.62c15.39-.71,23.07-2.36,39.1-8.39,4.3-1.63,8.16-.4,11,.49s3.24.85,3.72.5a5.71,5.71,0,0,1,6.9,9.1c-5.36,4.07-10.82,2.33-14.08,1.29-1.36-.43-2.91-.93-3.49-.69-17.19,6.47-26,8.35-42.61,9.12-.13.11-.87.92-1.36,1.45-1.61,1.75-4,4.39-8.07,4.67a10.88,10.88,0,0,1-4.13-.45A5.71,5.71,0,0,1,1017.37,1014.76Z"/><path fill="#571519" d="M1027.47,1080.84a13.67,13.67,0,0,1-7.22-2.27c-4.4-2.71-6.36-7.55-5.4-13.27,1.27-7.46,7.57-16.56,14.07-22.6,0-.15-.09-.29-.14-.43a5.71,5.71,0,0,1,9.58-5.78c.28-.09.54-.16.8-.22,6.29-1.4,9.74,2.46,11.21,4.12a99.79,99.79,0,0,0,10.11-3.34c3.06-1.13,5.78-2.13,8-2.72,0-.07.08-.16.12-.25a19.86,19.86,0,0,1-.81-2.3c-1.89-6.54-1-14.5,5.26-16.52a6.26,6.26,0,0,1,6.26,1.48c2.77,2.7,2.68,8.36,2.08,12.76a22.23,22.23,0,0,1,8.19,2.44,17.24,17.24,0,0,0,4.11,1.51c3.22.56,7-.15,11-.9,6-1.12,12.8-2.39,20,.1a5.71,5.71,0,0,1-3.74,10.8c-4.34-1.5-9.11-.61-14.16.33-4.8.9-9.76,1.83-15,.94a27.34,27.34,0,0,1-6.94-2.4c-2.57-1.18-3.75-1.62-5-1.32a9.53,9.53,0,0,1-2.27.27,8.84,8.84,0,0,1-5.5,3.94,75.87,75.87,0,0,0-7.63,2.56c-7.54,2.77-12.37,4.44-15.93,4.12a10,10,0,0,1-6.66-3.89c-.11-.14-.26-.3-.4-.45,1.19,10.85-.17,25.25-7.08,30.83A11.08,11.08,0,0,1,1027.47,1080.84Zm2.77-22.21a32.35,32.35,0,0,0-3.19,5.62c-1.23,2.88-1,4.28-.94,4.5a3.82,3.82,0,0,0,1.4.66C1028.83,1068.46,1029.87,1064,1030.24,1058.63Z"/><path fill="#571519" d="M1042.13,1098.7a5.72,5.72,0,0,1-4.6-9.09c5.31-7.24,8-10.45,12-10.76a7.78,7.78,0,0,1,6.17,2.63c.63.63.84.83,2.83.46,1.41-.26,3.12-1.6,4.92-3,2.67-2.11,6-4.73,10.43-5.3,8.3-1.09,16.23.41,23.9,1.87,12.27,2.31,20.1,3.42,26.33-2.65a5.71,5.71,0,1,1,8,8.18c-10.8,10.53-24.41,8-36.42,5.69-6.79-1.29-13.82-2.6-20.31-1.77-1.31.17-3,1.52-4.83,3-2.54,2-5.71,4.51-9.89,5.28-5,.93-8.22-.13-10.33-1.42-.82,1-2,2.48-3.53,4.62A5.71,5.71,0,0,1,1042.13,1098.7Z"/><path fill="#571519" d="M1759.09,1071.3a5.71,5.71,0,0,1-3.35-10.34l35.49-25.66a5.71,5.71,0,1,1,6.7,9.25l-35.49,25.67A5.73,5.73,0,0,1,1759.09,1071.3Z"/><path fill="#571519" d="M1634,1157.77a22.77,22.77,0,0,1-18.52-9.44l-49.78-68.84a22.82,22.82,0,0,1,5.12-31.87l197.72-143a22.83,22.83,0,0,1,31.87,5.12l49.77,68.85a22.83,22.83,0,0,1-5.11,31.87l-17.15,12.4a5.71,5.71,0,0,1-6.7-9.26l17.15-12.4a11.39,11.39,0,0,0,2.56-15.91l-49.78-68.85a11.4,11.4,0,0,0-15.92-2.56l-197.72,143a11.41,11.41,0,0,0-2.55,15.92l49.77,68.84a11.44,11.44,0,0,0,15.93,2.56l15.53-11.23a5.71,5.71,0,0,1,6.69,9.25l-15.53,11.24A22.78,22.78,0,0,1,1634,1157.77Z"/><path fill="#571519" d="M1616.62,1107.69a10.26,10.26,0,0,1-6-18.58h0l183-132.32a10.27,10.27,0,1,1,12,16.64l-183,132.32A10.24,10.24,0,0,1,1616.62,1107.69Zm.67-9.32Z"/><path fill="#571519" d="M1609.38,1077.56a16.12,16.12,0,0,1-13.14-6.61h0a15.94,15.94,0,0,1-2.75-12.33,17.09,17.09,0,0,1,19-13.76,15.91,15.91,0,0,1,10.83,6.47,16.53,16.53,0,0,1-4,23A16.94,16.94,0,0,1,1609.38,1077.56Zm-3.89-13.31a5.34,5.34,0,0,0,8.62-6.22,4.65,4.65,0,0,0-3.15-1.86,5.63,5.63,0,0,0-4,1,5.53,5.53,0,0,0-2.23,3.47,4.6,4.6,0,0,0,.76,3.57Z"/><path fill="#571519" d="M1648.22,1049.5a16.45,16.45,0,0,1-2.32-.16,15.95,15.95,0,0,1-13.58-18.79,16.91,16.91,0,0,1,6.77-10.68,16.28,16.28,0,1,1,19.07,26.38A16.9,16.9,0,0,1,1648.22,1049.5Zm.85-21.45a5.69,5.69,0,0,0-5.52,4.56,4.65,4.65,0,0,0,.77,3.57,4.57,4.57,0,0,0,3.15,1.84,5.41,5.41,0,0,0,4-1,5.11,5.11,0,0,0,1.47-7A4.71,4.71,0,0,0,1649.07,1028.05Z"/><path fill="#571519" d="M1687,1021.43a16.55,16.55,0,0,1-2.32-.16,15.93,15.93,0,0,1-10.83-6.47,16.53,16.53,0,0,1,4-23,16.91,16.91,0,0,1,12.27-3.1,16,16,0,0,1,13.59,18.8,17.12,17.12,0,0,1-16.73,13.92Zm.84-21.45a5.57,5.57,0,0,0-3.27,1.08,5.1,5.1,0,0,0-1.46,7,4.58,4.58,0,0,0,3.15,1.85,5.4,5.4,0,0,0,4-1,5.54,5.54,0,0,0,2.24-3.48,4.54,4.54,0,0,0-3.92-5.41A6,6,0,0,0,1687.88,1000Z"/><path fill="#571519" d="M1725.86,993.35a16.09,16.09,0,0,1-13.14-6.63,15.89,15.89,0,0,1-2.75-12.31,16.86,16.86,0,0,1,6.78-10.68,16.53,16.53,0,0,1,23.09,3.37,15.92,15.92,0,0,1,2.75,12.33,17.09,17.09,0,0,1-16.73,13.92Zm.86-21.44a5.57,5.57,0,0,0-3.28,1.08,5.49,5.49,0,0,0-2.23,3.47A4.53,4.53,0,0,0,1722,980h0a5.1,5.1,0,0,0,7.14.82,5.54,5.54,0,0,0,2.24-3.48,4.65,4.65,0,0,0-.77-3.57A4.72,4.72,0,0,0,1726.72,971.91Z"/><path fill="#571519" d="M1764.69,965.27a16.1,16.1,0,0,1-13.14-6.62,16.74,16.74,0,1,1,23.09,3.38A16.91,16.91,0,0,1,1764.69,965.27Zm.86-21.44a5.58,5.58,0,0,0-3.28,1.09,5.1,5.1,0,0,0-1.47,7h0a5.34,5.34,0,0,0,8.62-6.23A4.74,4.74,0,0,0,1765.55,943.83Z"/><path fill="#571519" d="M1647.49,1130.27a18.21,18.21,0,0,1-2.32-.16,15.91,15.91,0,0,1-10.83-6.47h0a15.92,15.92,0,0,1-2.81-12,16.81,16.81,0,0,1,6.84-11,16.52,16.52,0,0,1,23.09,3.39,15.9,15.9,0,0,1,2.81,12,17.09,17.09,0,0,1-16.78,14.28Zm.85-21.45a5.66,5.66,0,0,0-3.28,1.08,5.49,5.49,0,0,0-2.25,3.59,4.58,4.58,0,0,0,.78,3.45h0a4.66,4.66,0,0,0,3.15,1.85,5.42,5.42,0,0,0,4-1,5.54,5.54,0,0,0,2.26-3.58,4.65,4.65,0,0,0-.79-3.46A4.72,4.72,0,0,0,1648.34,1108.82Z"/><path fill="#571519" d="M1736.29,1064.65a5.91,5.91,0,0,1-.93-.07,5.71,5.71,0,0,1-4.71-6.56,4.55,4.55,0,0,0-3.94-5.3,5.43,5.43,0,0,0-4,1,5.53,5.53,0,0,0-2.11,3,5.71,5.71,0,0,1-11-3.23,17.14,17.14,0,0,1,6.38-9,16.82,16.82,0,0,1,12.26-3.09,15.94,15.94,0,0,1,13.64,18.45A5.71,5.71,0,0,1,1736.29,1064.65Z"/><path fill="#571519" d="M1764,1046a16.11,16.11,0,0,1-13.14-6.62h0a16.74,16.74,0,1,1,23.09,3.38A16.93,16.93,0,0,1,1764,1046Zm-3.88-13.31a5.34,5.34,0,1,0,1.46-7,5.09,5.09,0,0,0-1.46,7Z"/><path fill="#571519" d="M1813,1011.42a5.64,5.64,0,0,1-2.42-.54,5.72,5.72,0,0,1-2.76-7.59,4.76,4.76,0,0,0-.34-4.86,4.66,4.66,0,0,0-3.16-1.85,5.49,5.49,0,0,0-4,1,5.71,5.71,0,0,1-6.7-9.26,16.84,16.84,0,0,1,12.27-3.09,16,16,0,0,1,10.83,6.47,16.28,16.28,0,0,1,1.45,16.4A5.73,5.73,0,0,1,1813,1011.42Z"/><path fill="#571519" d="M2240,1575.91H598.53a5.71,5.71,0,1,1,0-11.42H2240a5.71,5.71,0,0,1,0,11.42Z"/><path fill="#571519" d="M1110.24,1709.06a4.36,4.36,0,0,1-.72,0L763.4,1665a5.71,5.71,0,0,1-1.56-10.91l104.35-45.26a5.87,5.87,0,0,1,3-.43l338.16,41.06a5.72,5.72,0,0,1,1.86,10.79l-96.38,48.19A5.79,5.79,0,0,1,1110.24,1709.06ZM785.49,1656.3l323.75,41.16,77.84-38.92L869.31,1620Z"/><path fill="#571519" d="M1110.24,1773a4.36,4.36,0,0,1-.72,0l-346.12-44a5.71,5.71,0,0,1-5-5.67v-63.48a5.71,5.71,0,1,1,11.42,0v58.44l339.41,43.15,14.82-7.41a5.71,5.71,0,0,1,5.11,10.22l-16.38,8.19A5.79,5.79,0,0,1,1110.24,1773Z"/><path fill="#571519" d="M1206.69,1714.91h0a5.72,5.72,0,0,1-5.67-5.76l0-2.94a5.8,5.8,0,0,1,5.75-5.67,5.72,5.72,0,0,1,5.67,5.76l0,2.94A5.71,5.71,0,0,1,1206.69,1714.91Z"/><path fill="#571519" d="M1206.85,1693.31h0a5.73,5.73,0,0,1-5.68-5.76l.24-32.36a5.71,5.71,0,0,1,5.71-5.67h0a5.71,5.71,0,0,1,5.67,5.75l-.23,32.36A5.71,5.71,0,0,1,1206.85,1693.31Z"/><path fill="#571519" d="M1110.66,1773a5.72,5.72,0,0,1-5.71-5.69l-.25-63.12a5.72,5.72,0,0,1,5.69-5.74h0a5.72,5.72,0,0,1,5.72,5.69l.24,63.12a5.7,5.7,0,0,1-5.69,5.74Z"/><path fill="#571519" d="M1229.87,1727h-.39l-.86-.06a5.71,5.71,0,1,1,.77-11.39l.86,0a5.71,5.71,0,0,1-.38,11.41Z"/><path fill="#571519" d="M1170.18,1777.36a3.17,3.17,0,0,1-.43,0l-58-4.34a5.71,5.71,0,1,1,.85-11.39l56.17,4.2,79-46.74a5.71,5.71,0,1,1,5.82,9.82l-80.5,47.67A5.64,5.64,0,0,1,1170.18,1777.36Z"/><path fill="#571519" d="M1169.5,1776.3a5.51,5.51,0,0,1-1.94-.34,5.71,5.71,0,0,1-3.43-7.31l5.34-14.8a5.69,5.69,0,0,1,2.57-3l80.5-45.41a5.71,5.71,0,0,1,8.47,5.74l-1.62,12a5.72,5.72,0,0,1-11.33-1.53l.09-.67-68.65,38.73-4.63,12.81A5.7,5.7,0,0,1,1169.5,1776.3Z"/><path fill="#571519" d="M1153.61,1764.9a5.58,5.58,0,0,1-.7,0L1113.2,1760a5.71,5.71,0,1,1,1.4-11.33l39,4.81a11,11,0,0,0,4.93-2c2-1.88,9.68-6.15,33.17-18.88,9.81-5.32,19.9-10.78,25-13.75l-20.62-2a5.71,5.71,0,1,1,1.08-11.37l22.81,2.18a5.25,5.25,0,0,1,1.47.34c2,.74,8.55,3.65,9.21,9.57.23,2-.15,6-5.25,9.32-3.76,2.46-15.64,8.9-28.23,15.72-12.14,6.59-28.77,15.6-31,17.34-4.5,4.16-11.22,4.92-12,5Z"/><path fill="#571519" d="M1147.55,1750.72c-10.92,0-17.7-3.73-17.7-9.72a5.72,5.72,0,0,1,10.76-2.68,20.34,20.34,0,0,0,7.12,1,5.73,5.73,0,0,1,6.41-7.44c9.67,1.69,11.12,6.46,11.12,9.15C1165.26,1747,1158.48,1750.72,1147.55,1750.72Zm7.57-6.74h0Z"/><path fill="#571519" d="M1177.73,1733.44a34.92,34.92,0,0,1-9.34-1.17,5.71,5.71,0,0,1,3.14-11,25.66,25.66,0,0,0,7.25.71,5.72,5.72,0,0,1,6.7-7.2c8.66,1.89,10,6.41,10,8.94C1195.43,1729.72,1188.65,1733.44,1177.73,1733.44Zm7.56-6.74h0Z"/><path fill="#571519" d="M1141.16,1744a5.48,5.48,0,0,1-.7,0l-25.69-3.18a5.71,5.71,0,1,1,1.4-11.33l24.95,3.08a11,11,0,0,0,4.94-2c2-1.87,9.64-6.13,33.06-18.82,9.89-5.35,20.05-10.87,25.12-13.83l-55.18-6.27a5.71,5.71,0,1,1,1.29-11.35l57.21,6.5a5.2,5.2,0,0,1,1.36.33c2,.75,8.56,3.64,9.22,9.56.22,2-.15,6-5.25,9.33-3.77,2.47-15.7,8.93-28.32,15.77-12.11,6.56-28.69,15.55-30.89,17.28-4.51,4.17-11.22,4.92-12,5Z"/><path fill="#571519" d="M1135.1,1729.77c-10.92,0-17.7-3.72-17.7-9.7s6.78-9.72,17.7-9.72,17.7,3.73,17.7,9.72S1146,1729.77,1135.1,1729.77Z"/><path fill="#571519" d="M1165.27,1712.5c-10.92,0-17.7-3.73-17.7-9.71s6.78-9.72,17.7-9.72,17.71,3.73,17.71,9.72S1176.19,1712.5,1165.27,1712.5Z"/><path d="M1517,1728l-10.73-319.77s19.84-13.51,31.32-16.53,49.69-3.24,57.18-3.3,40,.37,47.36,2.41,22.94,3.23,29.49,5.59,17.67,12.79,17.67,12.79l-13,317.3s-8.58,7.94-24.35,13.43c-14.81,5.17-36.21,7.91-55.5,8.09-18.88.18-42.6-4-57.19-8.75C1523,1734,1517,1728,1517,1728Z" style="isolation:isolate" fill="#fff" fill-rule="evenodd" opacity=".5"/><path d="M1516.74,1685.48l-8.27-194.93s27.49-11,33.2-12.11,44.08-3.41,53.43-3.28,41.49.95,53.26,3.44,20.08,1.67,28.38,5.48,8.09,6.32,7.64,16.38-7.51,186.54-7.51,186.54-42.83,16.12-82.86,15.74S1516.74,1685.48,1516.74,1685.48Z" style="isolation:isolate" fill="#fff" fill-rule="evenodd" opacity=".8"/><path fill="#571519" d="M1596.79,1433.78c-3.94,0-96.55-.29-96.55-25.48s92.61-25.48,96.55-25.48,96.55.29,96.55,25.48S1600.73,1433.78,1596.79,1433.78Zm-85-25.48c3.72,5.25,34,14,85,14s81.23-8.8,85-14c-3.73-5.25-34-14-85-14S1515.55,1403.05,1511.83,1408.3Z"/><path fill="#571519" d="M1596.79,1753.3c-40.54,0-85.7-11.81-85.7-28.76,0-9.39-11.69-311.66-11.81-314.71a5.72,5.72,0,0,1,5.49-5.93h.22a5.71,5.71,0,0,1,5.71,5.49c.48,12.47,11.81,305.54,11.81,315.15,2.15,5,32.54,17.34,74.28,17.34s72.12-12.35,74.33-17.78c-.06-5.45,11.1-303.8,11.58-316.5a5.71,5.71,0,1,1,11.41.43c-4,107.3-11.61,311.55-11.62,316.51C1682.49,1741.49,1637.32,1753.3,1596.79,1753.3Z"/><path fill="#571519" d="M1596.79,1708.15c-35.93,0-85.7-8.93-85.7-25.7a5.71,5.71,0,0,1,11.37-.77c3.6,4.7,32.06,15,74.33,15s70.72-10.35,74.32-15a5.72,5.72,0,0,1,11.38.77C1682.49,1699.22,1632.72,1708.15,1596.79,1708.15Z"/><path fill="#571519" d="M1597.09,1513.88c-15.47,0-92.63-1.08-92.63-22.27s77.16-22.27,92.63-22.27,92.64,1.08,92.64,22.27S1612.56,1513.88,1597.09,1513.88Zm-80.25-22.27c6.39,4.2,33.55,10.84,80.25,10.84s73.87-6.64,80.26-10.84c-6.39-4.2-33.55-10.84-80.26-10.84S1523.23,1487.41,1516.84,1491.61Z"/></g></svg>