<svg xmlns="http://www.w3.org/2000/svg" enable-background="new 0 0 2000 2000" viewBox="0 0 2000 2000"><path fill="#fa5743" d="M5,1895.3c0,0,4.4,71,18.1,72c1.8,0.1,69.7,0.1,69.7,0.1l86.6-0.5c0,0-0.6-20.9-25.9-25.3
			c-25.3-4.4-67.7-22.2-83-55.7C54.4,1850.9,5,1895.3,5,1895.3z"/><path fill="#fa5743" d="M197.9,1895.3c0,0,4.4,71,18.1,72c1.8,0.1,69.7,0.1,69.7,0.1l86.6-0.5c0,0-0.6-20.9-25.9-25.3
			c-25.3-4.4-67.7-22.2-83-55.7C247.2,1850.9,197.9,1895.3,197.9,1895.3z"/><path fill="#040404" d="M479.3,978.3L479.3,978.3c14.4,11.2,35.1,8.7,46.3-5.6l150.6-192.3c11.2-14.4,8.7-35.1-5.6-46.3v0
				c-14.4-11.2-35.1-8.7-46.3,5.6L473.7,932C462.4,946.3,465,967.1,479.3,978.3z"/><path fill="#e52213" d="M270.9,560.5c0,0,151.6,126.5,210.7,114.8c46.2-9.2,117.2-33.5,117.2-33.5l14.2,36.3
				c0,0-63.6,86.3-130,86.9c-103.7,0.9-180.3-44.9-180.3-44.9L270.9,560.5z"/><path fill="#ffae73" d="M600,645c0,0,6-13.4,9.8-19.7c3.9-6.3,20.3-24.9,23.1-20.7c2.8,4.2,14,32.5,8.1,40.4
				c-6,7.9,0.4,21.7-29.2,30L600,645z"/><path fill="#2f2f3f" d="M0,1900.3c0,0,26.3,8.8,46.9,8.8c22.9,0,43.8-6.2,43.8-6.2s5-47.9,32.2-153.5
				c14.3-55.4,34.7-126.5,63.8-215c80.3-244.4,104.8-387.4,107-400.9c0.1-0.7,0.2-1.1,0.2-1.1l-0.3-0.1l-247-108.4
				c0,0,30.5,336.9-8.4,466.2c-5.5,18.1-10.1,39.1-14.1,61.9C-0.6,1692.3,0,1900.3,0,1900.3z"/><path fill="#3a3a47" d="M122.9,1749.3c14.3-55.4,34.7-126.5,63.8-215c80.3-244.4,104.8-387.4,107-400.9c0-0.4,0-0.8-0.1-1.2
				l-247-108.4c0,0,30.5,336.9-8.4,466.2C32.7,1508,122.9,1749.3,122.9,1749.3z"/><path fill="#2f2f3f" d="M337.9,1031.7c0,0,3.2,218.3-34.6,486.3c-37.8,268-25,381.8-25,381.8s-25.9,8.4-36.4,9.3
				c-26.7,2.2-54-6.3-54-6.3s-54.1-268.1-38.6-402.3c15.5-134.1-74-460.3-74-460.3L337.9,1031.7z"/><path fill="#ffae73" d="M162.8,520.9l48.2,31.6l43.9-12.4c8-11.5,10.2-33.5,10.3-52.6c0.1-19-1.7-35.1-1.7-35.1l-65-28.7L174.1,413
				c0.1,0.4,1.9,19.9,2.1,22.8C180.8,486.5,162.8,520.9,162.8,520.9z"/><path fill="#f72c16" d="M339,1092.4c-60,57.9-287.1,48.2-301.1-15.6c-14-63.8,15.3-543.3,117.8-573.5c21.3-6.3,135,30.5,135,30.5
				s17.8,46.7,29.5,106.1c2.3,11.6,8.9,134.1,13.9,248.7c2.3,53.6,4.3,105.5,5.3,143.5C340.2,1067.8,340.3,1091.1,339,1092.4z"/><path fill="#ffa05e" d="M181.1,436.7c13.2,22.3,59.5,41.8,84,50.8c0.1-19-1.7-35.1-1.7-35.1l-65-28.7
				C184,423.5,175.3,426.7,181.1,436.7z"/><path fill="#ffae73" d="M288,448.4c0,0-104.8,32.7-124.1-32.9C144.5,350,117.9,310,184,286.4c66.1-23.6,86.5-2.5,98.3,17.8
				C294.1,324.6,314.7,438.2,288,448.4z"/><path fill="#010a09" d="M278.2,297.9c0,0-6.7,76.3-22.5,73c-15.8-3.3-33.2-10.4-30.8,12.6c2.3,23-15.3,62.4-38.1,62.3
				C138,445.7,85,320.4,98.3,296.7C136.9,228.2,333.9,214.3,278.2,297.9z"/><path fill="#e52213" d="M262.8,505c-1.4-0.6-78-35-87-32c-9,3-20.1,30.3-20.1,30.3l135,30.5C290.7,533.8,280,512.2,262.8,505z"/><path fill="#e52213" d="M339.3,1032.2C102.5,863.4,122.2,638.3,122.2,638.3c86.5,48.8,172.4,156.7,211.8,250.3
				C336.4,942.3,338.3,994.2,339.3,1032.2z"/><path fill="#ffae73" d="M573,955.3c16.7-3.9,27.9-16.5,30.2-18.7c0,0,7.1,0.5-1.2,15.7c-0.7,1.3-2.2,4.5-3.4,6.8
					c-0.5,0.9,0.2,2,1.2,2.1c9.6,0.7,19.3-3.1,37.9,0.8c2.6,0.5,3.3,6.7,3.2,9.3c-0.2,4.4,0.2,9.4-5,16.2c-3,3.9-11.3,8.2-29.9,15.7
					c-7.1,2.8-27.3,0.7-46.3-5.8l-15.2-7l4.7-28.2l3.8,0.8C559.2,964.3,566.7,956.9,573,955.3z"/><path fill="#f72c16" d="M195.7,533.8c0,0-212.7,40.5,62.6,348.6c44,49.3,282,113.4,282,113.4s24.1-20.5,12-37.2
					c0,0-163.8-119-199.9-137.9c-16.2-8.5-62.9-189.9-89.4-233.5C236.6,543.6,195.7,533.8,195.7,533.8z"/><path fill="#ffae73" d="M605.8,648.7c0,0,7-13.3,8.3-20.3c1.4-7,10.1-27.5,13.7-31.1c1.4-1.4,6.2,0.4,6.8,6.6
				c0.2,2.7-1.1,7.6-3.4,13.5c-3.8,9.5-3.2,22.4-4.5,26.7C623.4,654.9,605.8,648.7,605.8,648.7z"/><path fill="#ebedec" d="M557,1665.8l202.7-155.1l6.9,2.7l55.5,21.6l153.5,59.6l6.1-5.1l112.7-95l83.4-70.3l53.7-45.3l85.6,21.5
				l22,5.5l54.7,13.8l156.9,39.5l1.2-1l47.7-39.8c0,0,0,0,0,0l30.8-25.7l0,0l87.1-72.6l18.9-15.8l263.4,22.9l-138-177.7
				l-211.8-272.7l-183.8,17.4l-40.7,25.6l-85,53.4l-8.1,5.1L1120.4,951l-2.4-0.3l-43.5,35.7l-114.7,94.3l-5.1,4.2l-121-28.4
				l-13.2-3.1l-59.2,45.6l-108.8,83.8L557,1665.8z"/><polygon fill="#dfbd3f" points="768 1514 759 1511.4 774.5 1389 783.8 1390.6"/><polygon fill="#dfbd3f" points="955.4 1537.7 959 1537.9 960 1538 960 1538 960.1 1535.7 965 1423.1 955.8 1419 955.8 1419 955.7 1418.9 950.7 1535.3"/><path fill="#4db67b" d="M965,1422.9c1.6,0.6,3.3,1.2,5,1.8c1.6,0.5,3.1,1,4.8,1.4c1.6,0.4,3.1,0.8,4.8,1.1
				c24.9,5.1,58.5,1,107.2-27.6c4.3-2.5,9.6-3.1,14.3-1.5c14.4,5,39.3,16.1,68.8,23.9c5,1.3,10.3,0.1,14.2-3.2l39.3-33.2
				c5.2-4.3,12.1-5.9,18.6-4.3l73.3,18.4c1.3,0.3,2.7-0.2,3.4-1.3c0-0.1,0.1-0.1,0.1-0.2c4-6.6,13.6-6.4,16.9,0.6
				c1.1,2.2,2,4.2,2.9,5.7c0.4,0.8,1.1,1.3,2,1.5l52.4,13.2c0.7,0.2,1.5,0.1,2.2-0.2c3.2-1.6,6.7-5.6,10.4-9.4
				c5.2-5.3,13.6-5.9,19.2-1c29.2,24.8,61.6,30.7,105.3-0.9c1.9-1.4,3.8-2.8,5.7-4.3c4.1-3.1,9.4-4.3,14.5-3.2
				c21,4.5,41,13.8,49.4,18.1c0,0,0,0,0,0c0.8,0.4,1.5,0.8,2.1,1.1c1.2,0.6,2.7,0.4,3.7-0.6l25-26.2l0,0l8.1-8.5c1.5-1.5,1-4-0.9-5
				c-16.6-8.4-79.1-48.5-43.3-163.6c3.2-10.2,0-21.4-8.3-28c-16.2-12.7-42.9-19-58.7,22.1c0,0.1-0.1,0.2-0.1,0.4
				c-5.4,23.5-57.4,50.5-84-1.4c-1.7-3.3-3.2-6.8-4.7-10.8c0-0.1,0-0.1-0.1-0.2c-5.2-14-8.9-32.3-10.2-55.7c-0.3-4.8-2-9.5-4.9-13.3
				c-6.6-8.8-14.9-17-25.6-24.4c-24.3-16.7-60.8-28.9-116.7-32.9c-0.7,0-1.3-0.3-1.8-0.8c-8.2-7.5-80-70.9-140.4-48.4
				c-14.2,5.3-27.7,15.3-39.7,31.9c-26.3,34.3-93.9,60.1-63.6,106.5c0.7,1.1,0.7,2.4,0,3.5c-6.1,8.9-35.4,47.2-67.4,4.9
				c-1.7-2.2-3.3-4.6-5-7.2h0v0c-3.9-6.1-7.7-13.4-11.6-22.2c-0.2-0.3-0.3-0.7-0.6-0.9c-14.1-14.6-99.4,21.8-116,4.8
				c-1.8-2-6.9-2.9-13.7-2.6c-33.5,1.7-107.5,33.5-19.8,106.9c0.6,0.5,1,1.3,1.1,2.1c2.3,19.1-18.2,88.1-100.9,47.8
				c-18.5-9-40.9-2.6-51.3,15.1c-25.2,43.2-22.9,111.6,120.6,78.9c1.4-0.3,2.8,0.3,3.5,1.6c2.3,4.4,4.7,9.6,7.4,15
				c19.4,39.4,51.7,93.5,145.8-3.2c1-1.1,2.7-1.3,3.9-0.5c7,4.5,14.8,9.9,24,14.4L965,1422.9z"/><path fill="#17b2e8" d="M822.2,1534.9l153.5,59.6l6.1-5.1l112.7-95l-3.9-11.6c-3.7-3-50.2-74.6-112.5,20.5
				c-6.3,9.7-12.9,21.1-19.5,34.5C932.4,1530.4,891.5,1466.8,822.2,1534.9z"/><path fill="#17b2e8" d="M1575.7,1105c24.7,42.8,48.8,72.9,71.9,93.5c108.3,96.1,195-19.6,214.4-49l-211.8-272.7l-183.8,17.4
				l-40.7,25.6C1403.9,1184.3,1531.1,1104,1575.7,1105z"/><path fill="#17b2e8" d="M761.4,1099.1c17.8,23.2,39.6,30.1,61.8,29.3c35.2-1.2,71.6-21.7,95.3-27.2c16.9,15.9,31.1,22.3,43.2,22.2
				c32.1-0.3,50.2-45.9,68.7-79.2c44.3-0.5,46.6-36.9,44.2-57.8l-114.7,94.3l-5.1,4.2l-121-28.4l-13.2-3.1L761.4,1099.1z"/><rect width="9.4" height="140.3" x="1677.9" y="1189.1" fill="#dfbd3f" transform="rotate(-29.942 1682.68 1259.287)"/><polygon fill="#dfbd3f" points="1394.7 1107.7 1393.9 1107 1393.5 1106.1 1336.4 975 1345 971.3 1402.1 1102.4 1397.8 1104.3"/><rect width="9.4" height="55" x="1536.3" y="1405.4" fill="#dfbd3f" transform="rotate(-23.537 1541.032 1432.793)"/><rect width="9.4" height="73.5" x="1125" y="949.8" fill="#dfbd3f" transform="rotate(-14.557 1129.876 986.591)"/><polygon fill="#dfbd3f" points="955.3 1084.4 957 1123.1 957 1123.6 962.2 1123.3 963.5 1123.3 966.4 1123.2 966.4 1123 964.5 1080.5 959.8 1080.7"/><rect width="72.6" height="9.4" x="792.2" y="1087.8" fill="#dfbd3f" transform="rotate(-81.651 828.484 1092.476)"/><path fill="#dfbd3f" d="M665.4,1327.5c-2.1,1.1-4.5,1.6-6.6,1.2c-4.9-0.9-9.9-1.9-15-2.8c-3.8-0.7-5-4-2.8-7.4
						c2.2-3.4,7.1-5.6,10.8-4.9c5.1,1,10.1,1.9,15,2.8c3.8,0.7,5,4,2.8,7.4C668.7,1325.3,667.2,1326.6,665.4,1327.5z"/><path fill="#dfbd3f" d="M1274.7,1235.3c-0.4,0.2-0.8,0.4-1.3,0.6c-12.3,4.7-24.4,7-36.9,7.2c-4.2,0.1-6.5-2.7-5.1-6.1
						c1.3-3.5,5.8-6.3,10-6.4c10-0.2,19.7-2,29.5-5.7c4.3-1.6,8.4-0.5,9.1,2.6C1280.6,1230.2,1278.3,1233.5,1274.7,1235.3z
						 M1305.5,1217.9c-3.2,1.6-6.9,1.8-9,0.1c-2.5-2-1.7-5.9,1.8-8.7c7.4-5.9,14.5-13.2,21.6-22.3c2.6-3.3,7.5-5.2,11.1-4.1
						c3.5,1,4.3,4.5,1.7,7.8c-8.1,10.4-16.3,18.8-25.1,25.8C1306.9,1217.1,1306.2,1217.5,1305.5,1217.9z M1541.5,1081.6
						c-2.2,1.1-4.6,1.6-6.7,1.1c-9.8-2.1-19.5-3.5-28.7-4.4c-4-0.4-5.7-3.4-3.9-6.9c1.8-3.4,6.5-5.9,10.5-5.6
						c9.8,0.9,20.1,2.4,30.5,4.6c3.7,0.8,4.8,4.2,2.5,7.5C1544.7,1079.5,1543.2,1080.8,1541.5,1081.6z M1211.3,1238.5
						c-2.2,1.1-4.6,1.6-6.7,1.1c-5.2-1.1-10.3-2.3-15.7-3.5c-4.1-1-8.4-2-12.7-2.9c-3.7-0.8-4.8-4.2-2.5-7.6
						c2.3-3.4,7.2-5.4,10.9-4.6c4.4,1,8.7,2,12.9,3c5.3,1.2,10.3,2.4,15.3,3.5c3.7,0.8,4.9,4.1,2.6,7.5
						C1214.5,1236.4,1213,1237.6,1211.3,1238.5z M1346.9,1167.9c-2.1,1.1-4.5,1.6-6.5,1.2c-3.8-0.7-5-4-2.8-7.4l1.6-2.5
						c5.1-7.9,10.4-16,16.2-24c2.4-3.3,7.4-5.3,11-4.4c3.6,0.9,4.6,4.3,2.1,7.7c-5.5,7.6-10.7,15.5-15.7,23.2l-1.6,2.5
						C1350.2,1165.7,1348.7,1167,1346.9,1167.9z M1480.2,1076.7c-1.4,0.7-2.9,1.2-4.5,1.3c-10.9,0.7-21.4,2.5-31.2,5.3
						c-4.4,1.2-8-0.4-8.2-3.6c-0.1-3.2,3.3-6.9,7.7-8.1c11.3-3.2,23.3-5.2,35.6-6c4.2-0.3,6.8,2.3,5.8,5.7
						C1484.7,1073.4,1482.7,1075.5,1480.2,1076.7z M1385.9,1116.8c-2.8,1.5-6.1,1.8-8.3,0.6c-3-1.6-2.8-5.4,0.4-8.5
						c9.3-9,19.3-16.4,30.5-22.7c4.1-2.3,8.7-2,10.3,0.6c1.7,2.6-0.3,6.6-4.3,8.8c-9.3,5.3-17.7,11.5-25.6,19.1
						C1388,1115.6,1387,1116.3,1385.9,1116.8z M1153.5,1227.3c-1.9,0.9-4,1.4-5.9,1.3c-10.2-0.9-20.1-1-30.2-0.2
						c-4.3,0.4-6.9-2.2-5.9-5.6c1-3.4,5.2-6.5,9.5-6.9c11.2-0.9,22.1-0.9,33.3,0.2c4,0.4,5.7,3.5,3.8,6.9
						C1157.2,1224.8,1155.5,1226.3,1153.5,1227.3z M908.3,1344.1c-0.3,0.2-0.6,0.3-0.9,0.4c-11.8,4.9-23.6,8.2-36.2,10.1
						c-4.3,0.7-7.3-1.6-6.7-5c0.6-3.4,4.6-6.7,8.9-7.3c10.7-1.6,20.8-4.4,30.8-8.5c4.3-1.8,8.5-0.8,9.4,2.2
						C914.4,1338.7,912.1,1342.2,908.3,1344.1z M939.7,1327c-3.6,1.8-7.6,1.7-9.5-0.4c-2.1-2.3-0.7-6.3,3.2-8.9
						c9.6-6.4,20.1-14.2,28.1-20.2c3.6-2.8,8.6-3.3,11-1.2c2.4,2.1,1.4,6-2.2,8.8c-8.3,6.3-19.1,14.3-29.3,21.1
						C940.5,1326.6,940.1,1326.8,939.7,1327z M996.4,1285.1c-3.3,1.7-7.1,1.8-9.1,0c-2.4-2.1-1.4-6,2.2-8.8
						c11.7-8.8,20.6-15.3,29.1-21.1c3.8-2.6,8.6-2.9,10.8-0.6c2.2,2.3,0.9,6.2-2.9,8.8c-8.1,5.6-16.8,11.9-28.2,20.4
						C997.6,1284.4,997,1284.7,996.4,1285.1z M1088.4,1232.8c-0.8,0.4-1.7,0.7-2.6,1c-1.9,0.5-3.7,1-5.7,1.5
						c-7.3,2-15.7,5.5-24.6,10.2c-4,2.2-8.6,1.8-10.1-0.9s0.6-6.6,4.7-8.8c0.9-0.5,1.8-1,2.8-1.4c9.7-4.9,18.4-8.5,26.8-10.8
						c2.1-0.6,4.2-1.1,6.2-1.6c4.4-1.1,7.9,0.7,7.9,4C1093.8,1228.4,1091.5,1231.2,1088.4,1232.8z M842.3,1355.2
						c-1.7,0.8-3.5,1.3-5.3,1.3c-9.5-0.2-19.9-1-31.6-2.3c-3.9-0.4-5.5-3.6-3.6-7c1.9-3.4,6.7-5.9,10.6-5.4
						c11.2,1.3,21.1,2,30.1,2.2c4.1,0.1,6.2,3,4.7,6.4C846.4,1352.4,844.5,1354.1,842.3,1355.2z M781.7,1348.9c-2,1-4.3,1.5-6.4,1.2
						c-8.7-1.4-18.3-3-29.4-5c-3.8-0.7-5.1-4-2.9-7.4c2.2-3.4,7-5.6,10.8-4.9c11,2,20.6,3.6,29.1,5c3.8,0.6,5.2,3.9,3.1,7.3
						C785.1,1346.6,783.5,1347.9,781.7,1348.9z M723.4,1338.5c-2.1,1.1-4.5,1.6-6.6,1.2c-9.2-1.7-18.8-3.6-29-5.5
						c-3.8-0.7-5-4-2.7-7.4c2.2-3.4,7.1-5.6,10.9-4.8c10.1,1.9,19.8,3.8,28.9,5.5c3.8,0.7,5,4,2.8,7.4
						C726.6,1336.4,725.1,1337.6,723.4,1338.5z"/><path fill="#dfbd3f" d="M1583.4,1093.6c-2.5,1.3-5.4,1.7-7.5,0.9c-4.5-1.6-9-3.1-13.5-4.5c-3.5-1.1-4.2-4.6-1.5-7.9
						c2.6-3.3,7.6-5.1,11.1-4c4.6,1.4,9.2,3,13.9,4.6c3.4,1.2,3.9,4.8,1.1,8.1C1586,1091.9,1584.8,1092.9,1583.4,1093.6z"/><path fill="#ed1b24" d="M1581.7,1064.8c-50-107.5-107.1-202-177.9-271.1c-86.4-131,1.4-306.3,158-315.7h0
					c156.6-9.3,264.6,154.4,188.6,294.6c-63.3,83.3-113.6,180.1-150.2,291C1597.5,1072.4,1585.6,1073.1,1581.7,1064.8z"/><path fill="#c61910" d="M1572.6,833.6c-87.9,0-159.5-71.5-159.5-159.5s71.5-159.5,159.5-159.5c87.9,0,159.5,71.5,159.5,159.5
							S1660.5,833.6,1572.6,833.6z M1572.6,540.8c-73.5,0-133.3,59.8-133.3,133.3s59.8,133.3,133.3,133.3
							c73.5,0,133.3-59.8,133.3-133.3S1646.1,540.8,1572.6,540.8z"/><circle cx="1572.6" cy="674.1" r="133.1" fill="#fff" transform="rotate(-45.001 1572.619 674.112)"/><path fill="#ed1b24" d="M644.7,1321.3c-26.1-56.2-55.9-105.5-92.9-141.6c-45.1-68.4,0.7-160,82.5-164.9l0,0
					c81.8-4.9,138.2,80.6,98.5,153.9c-33.1,43.5-59.3,94.1-78.4,152C653,1325.2,646.7,1325.6,644.7,1321.3z"/><path fill="#c61910" d="M640,1200.5c-45.9,0-83.3-37.4-83.3-83.3c0-45.9,37.4-83.3,83.3-83.3c45.9,0,83.3,37.4,83.3,83.3
							C723.3,1163.1,685.9,1200.5,640,1200.5z M640,1047.5c-38.4,0-69.6,31.2-69.6,69.6s31.2,69.6,69.6,69.6
							c38.4,0,69.6-31.2,69.6-69.6S678.4,1047.5,640,1047.5z"/><circle cx="640" cy="1117.2" r="69.5" fill="#fff"/><circle cx="179.6" cy="167.1" r="6.8" fill="#fdd503"/><path fill="#f9c900" d="M215,141.3h-0.2c-3.8,0-7.1-2.8-7.7-6.5l-15.2-93.2c-0.8-4.7,2.9-9,7.7-9h28.2c4.7,0,8.3,4.2,7.7,8.8
				l-12.8,93.2C222.1,138.4,218.8,141.3,215,141.3z"/><path fill="#fdd503" d="M209.5,141.3h-0.2c-3.8,0-7.1-2.8-7.7-6.5l-15.2-93.2c-0.8-4.7,2.9-9,7.7-9h28.2c4.7,0,8.3,4.2,7.7,8.8
				l-12.8,93.2C216.7,138.4,213.4,141.3,209.5,141.3z"/><path fill="#f9c900" d="M128.6,176.1l-0.1,0.2c-2.4,2.9-6.6,3.7-9.9,1.8l-81.6-47.5c-4.1-2.4-5.1-8-2.1-11.7l17.9-21.8
				c3-3.6,8.5-3.8,11.7-0.3l63.9,69.1C131,168.8,131.1,173.1,128.6,176.1z"/><path fill="#fdd503" d="M124.6,180.2l-0.1,0.2c-2.4,2.9-6.6,3.7-9.9,1.8l-81.6-47.5c-4.1-2.4-5.1-8-2.1-11.7l17.9-21.8
				c3-3.6,8.5-3.8,11.7-0.3l63.9,69.1C126.9,172.9,127,177.2,124.6,180.2z"/><path fill="#f9c900" d="M177.7,157.3L177.7,157.3c-3.3,2.1-7.5,1.4-10.1-1.5L97.9,75c-3.1-3.6-2.3-9.1,1.7-11.6l24-15.3
				c3.9-2.5,9.2-1,11.2,3.2l45.7,96.1C182.2,150.9,181,155.2,177.7,157.3z"/><path fill="#fdd503" d="M172.2,157.3L172.2,157.3c-3.3,2.1-7.5,1.4-10.1-1.5L92.5,75c-3.1-3.6-2.3-9.1,1.7-11.6l24-15.3
				c3.9-2.5,9.2-1,11.2,3.2l45.7,96.1C176.8,150.9,175.6,155.2,172.2,157.3z"/><circle cx="208.1" cy="154.9" r="8.2" fill="#fdd503"/><circle cx="138.8" cy="190.3" r="8.2" fill="#fdd503"/><path fill="#fdd503" d="M216.3,173.9c0,1.5-1.2,2.7-2.7,2.7c-1.5,0-2.7-1.2-2.7-2.7c0-1.5,1.2-2.7,2.7-2.7
				C215.1,171.2,216.3,172.4,216.3,173.9z"/><circle cx="186.4" cy="182.1" r="2.7" fill="#fdd503"/><g><line x1="882.3" x2="840.1" y1="147.1" y2="270.7" fill="#13a5de"/><path fill="#13a5de" d="M842.9,275.3c-1.3,0.8-3,1-4.6,0.5c-2.8-1-4.3-4-3.4-6.9l42.2-123.6c1-2.8,4.1-4.3,6.9-3.4
						c2.8,1,4.3,4,3.4,6.9l-42.2,123.6C844.8,273.7,844,274.7,842.9,275.3z"/></g><g><line x1="733.9" x2="790.6" y1="181.2" y2="275.2" fill="#13a5de"/><path fill="#13a5de" d="M793.4,279.9c-2.6,1.5-5.9,0.7-7.4-1.8l-56.7-94c-1.5-2.6-0.7-5.9,1.8-7.4c2.6-1.5,5.9-0.7,7.4,1.8
					l56.7,94C796.8,275,796,278.3,793.4,279.9z"/></g><g><line x1="646.7" x2="736.8" y1="252.8" y2="301.6" fill="#13a5de"/><path fill="#13a5de" d="M739.6,306.2c-1.6,1-3.6,1.1-5.4,0.1l-90-48.8c-2.6-1.4-3.6-4.7-2.2-7.3c1.4-2.6,4.7-3.6,7.4-2.2l90,48.8
						c2.6,1.4,3.6,4.7,2.2,7.3C741,305,740.4,305.7,739.6,306.2z"/></g><g><line x1="1748.3" x2="1658.6" y1="353.2" y2="448.1" fill="#13a5de"/><path fill="#13a5de" d="M1659.3,453.5c-1.5,0.2-3.1-0.3-4.3-1.4c-2.2-2.1-2.3-5.5-0.2-7.7l89.7-95c2.1-2.2,5.5-2.3,7.7-0.2
						c2.2,2.1,2.3,5.5,0.2,7.7l-89.7,95C1661.7,452.8,1660.5,453.4,1659.3,453.5z"/></g><g><line x1="1599.1" x2="1611.7" y1="322.7" y2="431.7" fill="#13a5de"/><path fill="#13a5de" d="M1612.3,437.1c-3,0.3-5.7-1.8-6-4.8l-12.6-109.1c-0.3-3,1.8-5.7,4.8-6c3-0.3,5.7,1.8,6,4.8l12.6,109.1
					C1617.5,434.1,1615.3,436.8,1612.3,437.1z"/></g><g><line x1="1490.1" x2="1551.8" y1="351.6" y2="433.3" fill="#13a5de"/><path fill="#13a5de" d="M1552.4,438.7c-1.8,0.2-3.8-0.5-5-2.1l-61.7-81.7c-1.8-2.4-1.3-5.8,1.1-7.6c2.4-1.8,5.8-1.3,7.6,1.1
						l61.7,81.7c1.8,2.4,1.3,5.8-1.1,7.6C1554.3,438.3,1553.3,438.6,1552.4,438.7z"/></g><g><path fill="#f6fffc" d="M665,467.8c-76.5,111.5-79,242.8-5.4,293.3c73.6,50.5,195.2,1,271.8-110.5s79-240.2,5.4-290.7
					C863.2,309.4,741.6,356.3,665,467.8z"/><path fill="#161515" d="M726.7,784.2c-25.7,0-49.2-6.8-69-20.4c-36.5-25.1-56.1-70-55-126.6c1-56,22.2-116.9,59.6-171.3l2.7,1.9
					l-2.7-1.9c37.2-54.2,86.4-95.4,138.5-115.9c52.2-20.5,101.2-18,137.8,7.2c36.5,25.1,56.1,69.6,55,125.3
					c-1,55.2-22.2,115.6-59.6,170c-37.4,54.5-86.6,96.1-138.5,117.2C771.6,779.4,748.4,784.2,726.7,784.2z M868.1,342.9
					c-66.8,0-145.6,47.1-200.3,126.7c-36.7,53.4-57.4,113-58.4,167.7c-1,54.3,17.5,97.2,52.1,121c34.6,23.8,81.4,25.6,131.7,5.2
					c50.7-20.6,98.9-61.4,135.5-114.8c36.7-53.4,57.4-112.5,58.4-166.4c1-53.4-17.5-95.9-52.1-119.7
					C915.4,349.2,892.5,342.9,868.1,342.9z"/></g></svg>