<svg xmlns="http://www.w3.org/2000/svg" viewBox="0 0 4680 3120"><defs><clipPath id="a"><path fill="none" d="M1845.51 906H3527.2a15.4 15.4 0 0 1 15.4 15.4v1030.74a15.39 15.39 0 0 1-15.39 15.39h-1681.7a15.4 15.4 0 0 1-15.4-15.4V921.43a15.4 15.4 0 0 1 15.4-15.43Z" transform="rotate(90 2686.35 1436.79)"/></clipPath></defs><g data-name="9"><path fill="#afe2d8" d="M2854.41 653c-667.6-113.63-1519.86 156.25-1515.12 838.06C577 1671 510.7 2262.82 690.62 2646.34h3205.44C4279.57 1476.85 3522 766.64 2854.41 653Z"/><circle cx="1166.96" cy="1589.77" r="466.66" fill="#afe2d8" transform="rotate(-45 1166.963 1589.768)"/><circle cx="2092.44" cy="718.8" r="272.47" fill="#afe2d8" transform="rotate(-45 2092.438 718.804)"/><circle cx="4051.31" cy="1813.51" r="217.8" fill="#afe2d8"/><path fill="#6bb861" d="M4044.5 1384.46s139.85 421.06-19 802.38c-79.7 191.3-182.11 351.8-283.12 456.47l-367.05-17c-34.11-152 4.2-402.51 112.88-663.34 158.85-381.32 556.29-578.51 556.29-578.51Z"/><path fill="#c4db98" d="M4025.46 2186.84c-79.7 191.3-182.11 351.8-283.12 456.47l-207.25-9.6 509.41-1249.25s139.85 421.06-19.04 802.38Z"/><path fill="#53b744" d="M4232.1 2148.39s-13.94 232-165.42 386.49c-76 77.51-157 135.63-226.52 166.87L3665 2622c13-80.57 80.39-194.92 184-300.6 151.45-154.47 383.1-173.01 383.1-173.01Z"/><path fill="#c4db98" d="M4066.68 2534.88c-76 77.51-157 135.63-226.52 166.87l-98.92-45 490.86-508.35s-13.94 231.97-165.42 386.48Z"/><path fill="#53b744" d="M3219.71 2011.88s170.53 157.88 194 373c11.75 107.92 5.3 207.43-14.61 281l-172.71 84.92c-54.06-61.15-99.75-185.75-115.77-332.89-23.46-215.15 109.09-406.03 109.09-406.03Z"/><path fill="#c4db98" d="M3413.67 2384.86c11.75 107.92 5.3 207.43-14.61 281l-97.52 48-81.83-701.9s170.53 157.8 193.96 372.9Z"/><path fill="#6bb861" d="M642 1618.25s-114.38 344.37 15.57 656.25c65.19 156.46 149 287.73 231.56 373.33l300.2-13.9c27.89-124.36-3.44-329.21-92.32-542.53C967.05 1779.53 642 1618.25 642 1618.25Z"/><path fill="#c4db98" d="M657.56 2274.5c65.19 156.46 149 287.73 231.56 373.33l169.5-7.85L642 1618.25s-114.39 344.37 15.56 656.25Z"/><path fill="#53b744" d="M410.89 2139.52s14.16 235.7 168.11 392.68c77.18 78.8 159.51 137.8 230.12 169.55l178-81c-13.22-81.87-81.67-198.05-187-305.43-153.87-156.97-389.23-175.8-389.23-175.8Z"/><path fill="#c4db98" d="M579 2532.2c77.18 78.8 159.51 137.8 230.12 169.55l100.5-45.75-498.73-516.5s14.16 235.72 168.11 392.7Z"/><path fill="#53b744" d="M1375.7 2222.1s47.92 138.28-2.85 264.73c-25.48 63.44-58.57 116.81-91.44 151.77l-121.13-4c-11.9-50-.34-132.78 34.39-219.27 50.78-126.49 181.03-193.23 181.03-193.23Z"/><path fill="#c4db98" d="M1372.85 2486.83c-25.48 63.44-58.57 116.81-91.44 151.77l-68.4-2.28 162.69-414.22s47.92 138.28-2.85 264.73Z"/><rect width="3356.95" height="127.84" x="614.87" y="2632.16" fill="#3f9e83" rx="26.34"/><path fill="#7ab7e1" d="M3403 1081.47a9.55 9.55 0 0 1-2.35-.28l-78.42-18.76a10.13 10.13 0 0 1-7.76-9.92l.71-90.7a278.47 278.47 0 0 1-59.81-50.21l-73.5 25.48a10.31 10.31 0 0 1-12.13-4.58L3129 860.6a10 10 0 0 1 1.79-12.24l60-57.84a294.36 294.36 0 0 1-9.23-85.41l-64.74-31.48a10.1 10.1 0 0 1-5.43-11.34l18.44-81.14c1-4.62 4.45-8.61 10-7.86l78.61 1a276.07 276.07 0 0 1 51.32-65.7l.08-.08-20.43-73.4a10.14 10.14 0 0 1 4.76-11.53l70.62-40a10.18 10.18 0 0 1 12.78 2.37l48.61 58.82a263.26 263.26 0 0 1 79.52-7.94l39.68-71.58a10.12 10.12 0 0 1 12-4.74l76.84 24.81a10.13 10.13 0 0 1 7 10.54l-7.43 81.27a278.5 278.5 0 0 1 63 53.37l76.09-24.14a10.21 10.21 0 0 1 11.93 4.78l39.72 72.53a10.14 10.14 0 0 1-2 12.32L3720 653.13a295.77 295.77 0 0 1 8.35 77.07l69.87 39.94a10.1 10.1 0 0 1 4.72 11.53l-22.6 80c-1.32 4.62-5.43 7.94-10.55 7.31l-77.43-6.17a277.24 277.24 0 0 1-49.47 65.07l24.75 74.82a10.11 10.11 0 0 1-4.29 11.77l-69.09 42.71a10.27 10.27 0 0 1-12.78-1.78l-56-61.35a258.65 258.65 0 0 1-80.55 8.49l-32.69 73a10.14 10.14 0 0 1-9.24 5.93Zm-68.25-36.86 62.44 15 32.14-71.7c1.75-3.88 5.86-6.64 10-5.93a249.49 249.49 0 0 0 86.61-9.05 10 10 0 0 1 10.27 2.89l54.54 59.77 55.17-34.1-24.33-73.49a10.14 10.14 0 0 1 2.85-10.71 255.48 255.48 0 0 0 53.17-69.76c1.88-3.6 5.55-6 9.78-5.38l75.73 6 18.17-64.39-68.3-39a10.08 10.08 0 0 1-5.08-9.25 275.2 275.2 0 0 0-9-83.15 10.11 10.11 0 0 1 2.95-10l61.09-55.9-31.95-58.33-74.78 23.71a10.14 10.14 0 0 1-10.81-3.12l-3.85-4.86A257.59 257.59 0 0 0 3578 491.2a10.17 10.17 0 0 1-4.94-9.64l7.27-79.48-61.21-19.79-38.75 69.92a10 10 0 0 1-9.62 5.17 246.43 246.43 0 0 0-85.41 8.54 9.86 9.86 0 0 1-10.55-3.28l-47.35-57.28-56.35 31.91 20.09 72a10.13 10.13 0 0 1-3 10.27l-4.54 3.83a256.45 256.45 0 0 0-50.31 65.9 10.13 10.13 0 0 1-8.91 5.33h-.12l-76.5-1-14.87 65.4 63.54 30.9a10.06 10.06 0 0 1 5.67 9.71 273.85 273.85 0 0 0 9.75 91.34 10.08 10.08 0 0 1-2.72 10l-58.67 56.57 32.7 57.72 72.11-25a10.16 10.16 0 0 1 11.06 3l-6.06 8.69 7.68-6.59a258.51 258.51 0 0 0 62.52 52.1 10.17 10.17 0 0 1 4.93 8.77Zm124.62-126.45c-55 0-108-24.37-145.12-66.84-71.78-82.09-66.8-208.35 11.1-281.43a185.48 185.48 0 0 1 127.28-50.53c55.07 0 108 24.34 145.12 66.81 71.76 82.09 66.78 208.34-11.1 281.46a185.38 185.38 0 0 1-127.28 50.53Zm-6.74-378.57a165.3 165.3 0 0 0-113.45 45.08c-70 65.69-74.39 179.34-9.72 253.3 33.34 38.12 80.69 60 129.91 60a165.3 165.3 0 0 0 113.45-45.07c70-65.74 74.39-179.39 9.72-253.34-33.34-38.12-80.68-59.97-129.91-59.97ZM3806.17 1411.78a5 5 0 0 1-1.14-.13l-37.94-9.08a4.89 4.89 0 0 1-3.75-4.8l.34-43.89a135.08 135.08 0 0 1-28.94-24.29l-35.56 12.33a5 5 0 0 1-5.87-2.22l-19.7-34.79a4.87 4.87 0 0 1 .87-5.92l29-28a142.4 142.4 0 0 1-4.47-41.32l-31.33-15.24a4.88 4.88 0 0 1-2.62-5.48l8.92-39.26c.51-2.24 2.15-4.17 4.83-3.81l38 .48a133.35 133.35 0 0 1 24.83-31.79l-9.89-35.51a4.91 4.91 0 0 1 2.31-5.58l34.16-19.37a5 5 0 0 1 6.19 1.15l23.52 28.46a127.37 127.37 0 0 1 38.48-3.84l19.2-34.64a4.89 4.89 0 0 1 5.78-2.29l37.18 12a4.9 4.9 0 0 1 3.37 5.11l-3.59 39.32a134.89 134.89 0 0 1 30.48 25.82l36.82-11.68a4.94 4.94 0 0 1 5.77 2.31l19.22 35.1a4.9 4.9 0 0 1-1 6l-30.23 27.66a143.16 143.16 0 0 1 4 37.3l33.8 19.32a4.89 4.89 0 0 1 2.29 5.58l-10.93 38.71a4.69 4.69 0 0 1-5.11 3.53l-37.46-3a134.15 134.15 0 0 1-23.94 31.48l12 36.21a4.87 4.87 0 0 1-2.07 5.69l-33.28 20.59a5 5 0 0 1-6.19-.86l-27.09-29.69a124.81 124.81 0 0 1-39 4.11l-15.82 35.31a4.91 4.91 0 0 1-4.44 2.91Zm-33-17.83 30.21 7.24 15.55-34.69a4.71 4.71 0 0 1 4.84-2.87 120.76 120.76 0 0 0 41.91-4.37 4.82 4.82 0 0 1 5 1.39l26.38 28.92 26.7-16.49-11.77-35.58a4.92 4.92 0 0 1 1.38-5.18 123.85 123.85 0 0 0 25.73-33.75 4.55 4.55 0 0 1 4.73-2.6l36.64 2.92 8.79-31.16-33.05-18.88a4.87 4.87 0 0 1-2.45-4.47 133.1 133.1 0 0 0-4.36-40.24 4.88 4.88 0 0 1 1.42-4.85l29.57-27-15.45-28.2-36.18 11.47a4.9 4.9 0 0 1-5.23-1.51l-1.86-2.35a124.91 124.91 0 0 0-30.79-25.48 4.92 4.92 0 0 1-2.39-4.66l3.52-38.46-29.62-9.58-18.75 33.84a4.82 4.82 0 0 1-4.66 2.5 119.19 119.19 0 0 0-41.32 4.13 4.78 4.78 0 0 1-5.11-1.59l-22.9-27.72-27.27 15.45 9.72 34.83a4.94 4.94 0 0 1-1.44 5l-2.2 1.85a123.94 123.94 0 0 0-24.35 31.88 4.89 4.89 0 0 1-4.31 2.58h-.05l-37-.45-7.19 31.61 30.75 15a4.85 4.85 0 0 1 2.74 4.7 132.7 132.7 0 0 0 4.72 44.19 4.87 4.87 0 0 1-1.31 4.84L3684 1303.4l15.82 27.93 34.89-12.08a4.91 4.91 0 0 1 5.35 1.47l-2.93 4.21 3.72-3.2a125 125 0 0 0 30.25 25.27 4.9 4.9 0 0 1 2.39 4.24Zm60.3-61.19a93.56 93.56 0 0 1-70.22-32.34c-34.73-39.72-32.32-100.81 5.37-136.17a89.74 89.74 0 0 1 61.59-24.45 93.52 93.52 0 0 1 70.22 32.32c34.72 39.72 32.31 100.81-5.37 136.19a89.74 89.74 0 0 1-61.61 24.45Zm-3.26-183.17a80 80 0 0 0-54.9 21.81c-33.89 31.78-36 86.78-4.7 122.56a83.74 83.74 0 0 0 62.86 29 80 80 0 0 0 54.9-21.81c33.88-31.81 36-86.8 4.7-122.59a83.83 83.83 0 0 0-62.88-28.97Z"/><rect width="1187.41" height="2030.94" x="2092.65" y="501.93" fill="#05367c" rx="76.45"/><rect width="1187.41" height="2030.94" x="2092.65" y="421.32" fill="#12479b" rx="76.45"/><rect width="1124.46" height="1954.16" x="2124.12" y="459.71" fill="#5e72ea" rx="45.92"/><g clip-path="url(#a)"><g style="isolation:isolate"><path fill="#fff" d="m2340.03 566.45-16.4 36.45-98.1 218.01-27.67-5.69 98.44-217.72 16.46-36.41 27.27 5.36z"/><path fill="#fff" d="m2920.53 680.63-15.15 37.46-581.75-115.19 16.4-36.45 580.5 114.18z"/><path fill="#f8cc8b" d="m1772.42 1049.13-32.2 67.85q-8.71-1.38-17.57-2.09t-17.82-.83c-6-.07-12 .07-18 .41s-12.11.89-18.2 1.63l38.86-81Z"/><path fill="#739a00" d="m2837.76 777.32-65.6 160.93-114.29-23.53 66.65-160.08 113.24 22.68z"/><path fill="#fff" d="m2154.33 1062.98-28.08 62.78-327.36-70.88 5.48-11.59-26.47-5.71-5.48 11.55-64.95-14.06-14.22-3.06 29.55-61.49 14.17 3.04 417.36 89.42z"/><path fill="#e3a043" d="m2645.13 738.73-104.84 248.08-24.65 58.32-157.84-33.32-129.1-27.27 134.41-302.31 282.02 56.5z"/><path fill="#fff" d="m1804.37 1043.29-5.48 11.59-32.09 67.94-99.02 209.57-7.95 16.81-26.9-6.12 7.98-16.8 99.31-209.3 32.2-67.85 5.48-11.55 26.47 5.71z"/><path fill="#e3a043" d="m2671.42 1014.22-121.79 295.21-293.21-64.37 101.38-233.25 157.84 33.32 24.65-58.32 131.13 27.41z"/><path fill="#739a00" d="M1703.65 1472.24a119.43 119.43 0 0 1-25.8 35.55 142.11 142.11 0 0 1-37.12 25.44 144.64 144.64 0 0 1-43.44 12.9 125.57 125.57 0 0 1-44.72-2 98.36 98.36 0 0 1-37.39-17.24 80.15 80.15 0 0 1-23.55-28.5 78.4 78.4 0 0 1-7.86-35.73 93.08 93.08 0 0 1 9.63-39 119.3 119.3 0 0 1 25.95-35 142.93 142.93 0 0 1 36.78-24.92 145.78 145.78 0 0 1 42.83-12.65 125.61 125.61 0 0 1 44.14 1.84 98.45 98.45 0 0 1 37.21 16.71 80.49 80.49 0 0 1 23.88 28 77.81 77.81 0 0 1 8.47 35.47 92 92 0 0 1-9.01 39.13Z"/><path fill="#fff" d="M1667.77 1332.39a116.83 116.83 0 0 1 40.6 22.93 98 98 0 0 1 33.76 77 116.75 116.75 0 0 1-11.22 46.25 148.28 148.28 0 0 1-29.86 42.27 176.65 176.65 0 0 1-42.78 31.3 183 183 0 0 1-50.52 17.79 163.78 163.78 0 0 1-53 1.75l5.62-11.9-27.19-6.39-5.64 11.89a116.25 116.25 0 0 1-40.73-23.75 98.13 98.13 0 0 1-32.3-78.07 118.22 118.22 0 0 1 12.08-46 149.49 149.49 0 0 1 30.16-41.49 176.5 176.5 0 0 1 42.39-30.52 183.54 183.54 0 0 1 49.67-17.3 164.19 164.19 0 0 1 52.12-1.83l-8 16.8 26.9 6.12Zm-115.2 211.73a125.57 125.57 0 0 0 44.72 2 144.64 144.64 0 0 0 43.44-12.9 142.11 142.11 0 0 0 37.12-25.44 119.43 119.43 0 0 0 25.8-35.55 92 92 0 0 0 9-39.15 77.81 77.81 0 0 0-8.47-35.47 80.49 80.49 0 0 0-23.88-28 98.45 98.45 0 0 0-37.21-16.71 125.61 125.61 0 0 0-44.14-1.84 145.78 145.78 0 0 0-42.83 12.65 142.93 142.93 0 0 0-36.78 24.92 119.3 119.3 0 0 0-25.95 35 93.08 93.08 0 0 0-9.63 39 78.4 78.4 0 0 0 7.86 35.73 80.15 80.15 0 0 0 23.55 28.5 98.36 98.36 0 0 0 37.39 17.24ZM2970.51 557.08l140.17 26.96-335.39 852.17-147.2-32.68 277.29-685.44 15.15-37.46 49.98-123.55zM2226.55 1078.44l-94.91 214.89-28.72 65-119.24 269.87-74.4-17.42 120.29-268.92 28.97-64.78 67.71-151.32 28.08-62.78 72.22 15.46z"/><path fill="#739a00" d="m1527.52 1565.24-96.7 203.76q-1.15 2.48-2.24 4.9c-.73 1.61-1.42 3.21-2.09 4.8s-1.3 3.18-1.92 4.74-1.2 3.14-1.76 4.68q-8.67-2.7-16.86-6t-15.86-7.28q-7.66-3.93-14.85-8.48t-13.84-9.64c-23.26-17.79-41.81-40.65-55.35-67.3s-22-56.78-25.23-89.55c-3.22-32.6-1.24-67.67 6.22-104 7.42-36.14 20.25-73.52 38.77-111a534.27 534.27 0 0 1 150.73-184.4 458 458 0 0 1 94.36-56.68c32.37-14.3 65.34-23.78 97.71-27.7 6.09-.74 12.16-1.3 18.2-1.63s12-.48 18-.41 11.92.33 17.82.83 11.76 1.18 17.57 2.09l-99.31 209.3a164.19 164.19 0 0 0-52.12 1.83 183.54 183.54 0 0 0-49.67 17.3 176.5 176.5 0 0 0-42.39 30.52 149.49 149.49 0 0 0-30.16 41.49 118.22 118.22 0 0 0-12.08 46 98.13 98.13 0 0 0 32.3 78.07 116.25 116.25 0 0 0 40.75 23.76Z"/><path fill="#e3a043" d="m3852.16 726.71-279.07 829.58-327.48-72.12 62.75-174.17c13.6-37.74 17.58-75.42 13.16-111.22a233.49 233.49 0 0 0-36.79-99.53c-19.64-30-46.27-56.43-78.74-77.64-32.31-21.1-70.44-37-113.26-46l-45.74-9.7 142.1-366.74Z"/><path fill="#f8cc8b" d="m2226.55 1078.44-72.22-15.44L1737 973.55l446.05-930.21L4063.3 382.68l-106.25 1315.9-1181.76-262.37L3110.68 584l-140.17-27-50 123.55L2340 566.45l-27.26-5.36-16.44 36.41-98.44 217.72 27.67 5.69 98.1-218 581.75 115.17-277.3 685.46-496.45-110.22Zm962.54-479.31L3047 965.87l45.75 9.7c42.82 9 80.95 24.95 113.26 46 32.47 21.19 59.1 47.64 78.74 77.63a233.48 233.48 0 0 1 36.79 99.54c4.42 35.8.44 73.48-13.16 111.22l-62.75 174.16 327.48 72.1 279.07-829.56-663.09-127.53Zm-826 83.1L2228.7 984.54l129.1 27.27-101.38 233.25 293.2 64.37 121.8-295.21-131.13-27.43 104.84-248.06-282-56.5ZM2990 1103.3l-100.2 258.5a36.53 36.53 0 0 0-2.44 16.59 35 35 0 0 0 5.06 15.11 39.79 39.79 0 0 0 11.58 12 48.87 48.87 0 0 0 17.09 7.23l162.5 35.79a57.86 57.86 0 0 0 19.73.85 58.89 58.89 0 0 0 18.38-5.45 53.27 53.27 0 0 0 15-10.8 43.54 43.54 0 0 0 9.62-15.16l46.68-126.54a155.35 155.35 0 0 0 9-71.88 150.31 150.31 0 0 0-23.47-64.62 173.4 173.4 0 0 0-51-50.56c-21-13.76-45.89-24.12-73.84-29.95l-2.49-.52a57.7 57.7 0 0 0-19.15-.68 59.29 59.29 0 0 0-17.87 5.29 52.63 52.63 0 0 0-14.68 10.34 42.32 42.32 0 0 0-9.52 14.46Zm733.41 330-46.38 141 168.17 37 45-142.1-166.81-35.91Zm-998.89-678.66-66.66 160.08 114.3 23.53 65.6-160.93-113.24-22.68Z"/><path fill="#739a00" d="M3053.75 1074.41c27.95 5.83 52.82 16.19 73.84 29.95a173.64 173.64 0 0 1 51 50.56 150.36 150.36 0 0 1 23.47 64.62 155.35 155.35 0 0 1-9 71.88l-46.65 126.51a43.54 43.54 0 0 1-9.62 15.16 53.27 53.27 0 0 1-15 10.8 59.46 59.46 0 0 1-18.38 5.47 58.38 58.38 0 0 1-19.73-.87l-162.5-35.79a48.87 48.87 0 0 1-17.09-7.23 39.68 39.68 0 0 1-11.58-12 35 35 0 0 1-5.06-15.11 36.53 36.53 0 0 1 2.44-16.59L2990 1103.3a42.32 42.32 0 0 1 9.52-14.46 53 53 0 0 1 14.68-10.34 59.29 59.29 0 0 1 17.87-5.29 57.7 57.7 0 0 1 19.15.68ZM1766.8 1122.82c34.86 9.91 64.1 27.76 87.14 51.72s40 54.36 50.11 89c10.1 34.85 13.28 74.18 8.85 116.06-4.48 42.15-16.64 86.94-37.21 132.38a529.74 529.74 0 0 1-79.51 124.82 519.83 519.83 0 0 1-106.43 95c-38.55 25.66-79.27 44.68-119.93 55.64s-81.22 13.84-119.36 7.24q.81-2.33 1.71-4.66c.6-1.56 1.22-3.13 1.88-4.72s1.34-3.19 2-4.8 1.45-3.21 2.22-4.85l96.41-204a163.78 163.78 0 0 0 53-1.75 183 183 0 0 0 50.52-17.79 176.65 176.65 0 0 0 42.78-31.3 148.28 148.28 0 0 0 29.86-42.27 116.75 116.75 0 0 0 11.22-46.25 98 98 0 0 0-33.76-77 116.83 116.83 0 0 0-40.6-22.93Z"/><path fill="#e3a043" d="m2482.94 1531.88-32.39 78.84-118.49-27.27-231.91-53.34 33.86-77.54 348.93 79.31z"/><path fill="#f8cc8b" d="M1450.46 1794.72c38.14 6.6 78.68 3.73 119.36-7.24s81.38-30 119.92-55.64a519.38 519.38 0 0 0 106.44-95 529.33 529.33 0 0 0 79.51-124.84c20.57-45.43 32.73-90.22 37.2-132.37 4.44-41.9 1.26-81.21-8.84-116.07-10.06-34.66-27-64.94-50.11-89s-52.28-41.8-87.14-51.73l32.09-67.92 327.36 70.86-67.71 151.34-29 64.78-120.29 268.92 74.4 17.42 119.23-269.87 498.25 111.77-367 907.36c-1.92-1.35-3.85-2.7-5.78-4.07s-3.86-2.73-5.79-4.1l-5.82-4.12-5.85-4.13q-26-18.42-53.69-37.91t-57.09-39.68q-29.4-20.16-60.72-40.95t-64.57-41.8c-35-22.11-70-43.39-104.14-63.64s-67.31-39.3-99.05-57.21-61.74-34.48-89.61-49.72-53.33-29-75.92-41.16l-30.34-16.41c-9.28-5-17.68-9.63-25.12-13.73s-13.91-7.72-19.31-10.85-9.75-5.74-12.93-7.81c-17-11.14-31-22.2-42.07-33.43s-19.38-22.6-24.89-34.41a88.12 88.12 0 0 1-8.38-36.85c-.15-12.88 2.36-26.39 7.4-40.79Zm546.13-27.59-35.33 80.9 356.4 86.13 33.83-82.31-120-28.65 100.6-239.75 118.49 27.27 32.39-78.84-348.97-79.31-33.86 77.54-103.56 237Zm239.52 365.52 48.24-117.41-110.63-27.06L2124.8 2105l111.31 27.69Z"/><path fill="#e3a043" d="m2332.06 1583.45-100.6 239.75-34.33 81.83-235.87-57 35.34-80.89 103.55-237.03 231.91 53.34zM2942.48 1880.01l-42.25 113.92-173.8-41.55 43.32-112.98 172.73 40.61zM3245.52 1705.16l-163.79 461.39-168.81-41.06 167.97-457.75 164.63 37.42zM2667.14 2311.2l-45.54 120.34-129.71-33.12 46.34-119.58 128.91 32.36z"/><path fill="#739a00" d="m2967.79 2314.74-42.2 117.56-128.49-32.5 42.98-116.85 127.71 31.79z"/><path fill="#e3a043" d="m3083.61 2362.76-49.37 140.88-87.55-22.27 50.01-140.29 86.91 21.68z"/><path fill="#f8cc8b" d="m3192.37 2271.74-443.84-109.06 42.94-114-31.16-7.53-43.15 113.85-10.91 28.81L2780 2202l-86.83 232.33 31.94 8.14 86.44-232.67 370.63 91.44-131.77 381.45c-24-4.27-49-8.81-75.21-13.67s-53.46-10.06-82.14-15.63-58.6-11.48-90.08-17.84-64.33-13.12-98.92-20.39c-3.35-.71-6.68-1.42-10-2.17s-6.59-1.49-9.87-2.27-6.53-1.56-9.77-2.36-6.47-1.61-9.68-2.45c-27.62-7.2-54.14-15.62-79.82-25.12s-50.47-20.06-74.79-31.62-48-24-71.5-37.39-46.68-27.53-70-42.48l380.22-966 658 147.63Zm-111.48-604-168 457.75 168.81 41.06 163.79-461.39-164.63-37.42Zm-84.19 673.33-50 140.3-133.94-34.08-29.64 81 222.43 57.22 28.7-81.9 49.37-140.88-86.91-21.68Zm-196.94-737.19-55.16 142.38 163 37.85 53.89-143.5-161.68-36.73Zm-73.33 348.5 173.8 41.55 42.25-113.93-172.73-40.6-43.32 113Zm-59.29 358.82-128.91-32.38-46.34 119.6 129.71 33.12 45.54-120.34Zm172.94-28.2-43 116.84 128.48 32.5 42.21-117.56-127.69-31.78Z"/><path fill="#e3a043" d="m2961.45 1640.61-53.9 143.5-162.96-37.85 55.19-142.38 161.67 36.73zM2351.49 1851.85l-33.83 82.31-356.4-86.13 35.34-80.89-35.34 80.89 235.87 57 34.33-81.83 120.03 28.65zM3890.26 1469.22l-45.02 142.1-168.17-37.01 46.38-141.02 166.81 35.93zM2284.35 2015.24l-48.24 117.43-111.31-27.71 48.92-116.78 110.63 27.06z"/><path fill="#fff" d="m4211.68 409.44-91.54 1325.35-163.09-36.21 106.25-1315.9 16.89-209.14 147.51 3.96-16.02 231.94z"/><path fill="#f8cc8b" d="m4211.68 409.44 383.23 69.17-368.92 1279.68-105.87-23.5 91.56-1325.35z"/><path fill="#fff" d="m4293.85 1773.36-20.4 71.97-68.14-15.29-90.35-20.28-163.92-36.77-512.94-115.09 3.74-10.9-31.23-6.99-3.76 10.88-657.96-147.63-147.73-33.15-498.24-111.78 28.72-65 496.45 110.2 147.2 32.68 1181.76 262.37 163.09 36.21 105.85 23.5 67.86 15.07zM2791.47 2048.67l-42.94 114.03-8.87 23.51-31.4-7.74 8.9-23.48 43.15-113.85 31.16 7.53z"/><path fill="#f8cc8b" d="M3438.1 1657.9 3951 1773l-85.91 1063.84c-63.47-15.66-119.81-28.81-171.39-40.15-51.43-11.31-98.15-20.84-142.46-29.31s-86.05-15.83-127.77-22.84-83.15-13.7-126.81-20.7l-49.45-7.94q-25.12-4.07-51.43-8.36t-54.07-9q-27.8-4.71-57.4-9.87l81.18-236.52 337 84.81 9.76-30.55-336.49-84.33Zm79.05 576.32 183.85 44.51 38.49-123.19-363.1-86.36-40.92 121.09-61.57 182.17 183.48 45.56 59.77-183.76ZM3769 2656l24.69-82.08-179.43-44.92-25.47 81.37-306.66-77.67-32 95.76 489.34 125.57 29.48-98Zm-217.62-895.69L3466.8 2014l295.25 69.51 80.35-257.15-291.06-66Zm184 731.9L3773 2369l-185.77-45.37-39 122.2 187 46.45Z"/><path fill="#e3a043" d="m3842.4 1826.36-80.35 257.15-295.25-69.5 84.55-253.66 291.05 66.01z"/><path fill="#f8cc8b" d="M2084.29 2424.35q-7.89-6.24-15.85-12.48l-15.89-12.46q-8-6.22-15.94-12.43t-16-12.39c-47.61-36.8-108.9-76.15-176.61-115.59-67.16-39.14-140.59-78.35-213.29-115.29-72.17-36.66-143.66-71.11-207.77-101.11-63.72-29.82-120.25-55.29-163.06-74.27l101.52-211.63q6.66 5.11 13.84 9.64t14.85 8.48q7.68 4 15.86 7.28t16.86 6c-8 22.16-10.7 42-9.35 59.74a112.3 112.3 0 0 0 14.84 47.75c8.09 14.16 18.86 26.62 30.93 37.73A305.18 305.18 0 0 0 1498 1963c3.37 2.22 7.89 5 13.45 8.2s12.19 7 19.77 11.18 16.14 8.88 25.56 14 19.73 10.7 30.81 16.7c22.53 12.19 48 26 75.69 41.16s57.77 31.87 89.27 49.7 64.71 37.05 98.59 57.19 68.79 41.48 103.58 63.55q33.19 21 64.29 41.7t60.42 40.9q29.34 20.19 56.83 39.64t53.51 37.9l8.1 5.74c2.69 1.93 5.38 3.82 8.05 5.73l8 5.67 8 5.65-38 93.86q-12.54-9.51-25-19.11t-24.92-19.24q-12.43-9.64-24.86-19.35t-24.85-19.42Z"/><path fill="#fff" d="m2234.11 2377.46 367-907.36 147.73 33.16-380.21 966q-16.51-10.58-33.12-21.67t-33.29-22.59q-16.75-11.48-33.76-23.4t-34.35-24.14ZM3208.6 2275.73l-10.15 29.51-16.26-4.01-370.63-91.44 3.47-9.32-31.55-7.77-3.47 9.29-73.76-18.19 10.91-28.81-8.9 23.48 31.4 7.74 8.87-23.51 443.86 109.04 16.21 3.99z"/><path fill="#fff" d="m2815.03 2200.47-3.47 9.32-86.44 232.68-31.94-8.15 86.83-232.33 3.47-9.29 31.55 7.77z"/><path fill="#68d1dd" d="M2020.63 2374.59q8 6.19 16 12.39l15.94 12.43 15.9 12.46q7.93 6.24 15.84 12.48l24.84 19.42q12.43 9.69 24.86 19.35t24.92 19.25q12.49 9.6 25 19.11l-41.84 103.43q-16.74-12.57-33.34-25.36t-33.05-25.65q-16.46-12.89-32.88-25.87t-32.81-26q-7.89-6.21-15.78-12.45t-15.78-12.48c-5.27-4.16-10.54-8.34-15.82-12.48s-10.57-8.3-15.88-12.43c-44-34.38-101.14-71.55-164.82-109.14-63.24-37.31-132.84-75-202.34-110.85-69-35.6-137.93-69.36-200.53-99.17a8915.602 8915.602 0 0 0-162.1-75.14c-14.54-6.56-27.73-12.46-39.36-17.65s-21.71-9.61-30-13.28-14.84-6.49-19.4-8.46l-7.48-3.24 55.88-83.22c1.3.55 4.19 1.78 8.53 3.65s10.15 4.35 17.27 7.44 15.57 6.76 25.2 11 20.45 9 32.32 14.22c42.81 19 99.34 44.45 163.06 74.27 64.11 30 135.6 64.45 207.77 101.11 72.7 36.94 146.13 76.15 213.29 115.29 67.68 39.42 128.96 78.77 176.59 115.57Z"/><path fill="#739a00" d="m3739.53 2155.54-38.49 123.19-183.89-44.5 7.64-23.47-181.43-43.77-7.85 23.28 40.92-121.09 363.1 86.36z"/><path fill="#f8cc8b" d="m4084.63 2248.59 30.33-438.83 90.35 20.28-120.68 418.55z"/><path fill="#739a00" d="m3524.79 2210.76-7.64 23.47-59.77 183.75-183.44-45.54 61.57-182.17 7.85-23.28 181.43 43.77z"/><path fill="#e3a043" d="m3034.24 2503.64-28.7 81.89-222.43-57.22 29.64-81.02 133.94 34.08 87.55 22.27z"/><path fill="#fff" d="m3512.34 2506.39-9.77 30.56-337.04-84.81-16.25-4.09 10.34-30.06 16.23 4.08 336.49 84.32z"/><path fill="#e3a043" d="m3773.04 2368.98-37.74 123.27-187-46.45 38.97-122.2 185.77 45.38z"/><path fill="#f8cc8b" d="m2010 2502.05 32.81 26q16.43 13 32.88 25.86t33.05 25.66q16.6 12.78 33.34 25.36l-123.22 304.61L950.2 2614.18l266.8-556.27c43.83 19.78 99.88 45.53 162.1 75.14 62.59 29.81 131.52 63.57 200.53 99.17 69.49 35.84 139.1 73.54 202.33 110.85 63.69 37.59 120.87 74.74 164.83 109.14q8 6.2 15.88 12.43c5.28 4.14 10.55 8.32 15.82 12.48l15.78 12.48q7.86 6.24 15.73 12.45Z"/><path fill="#fff" d="m3441.84 1647-3.74 10.9-262.25 764.17-16.23-4.08-10.34 30.06 16.25 4.09-81.18 236.54-8.35-1.47-8.44-1.49c-2.83-.5-5.68-1-8.52-1.51s-5.74-1-8.61-1.52l131.76-381.46 16.26 4 10.15-29.51-16.21-4 214.46-620.85 3.76-10.88ZM2183.94 2501.48l38-93.86q17.34 12.28 34.34 24.19t33.8 23.41q16.82 11.52 33.45 22.59t33.3 21.67l-38.48 97.77-40.48 102.75-99.77 253.51-159.22-44 123.22-304.61Z"/><path fill="#e3a043" d="m3793.65 2573.96-24.69 82.08-180.17-45.64 25.47-81.37 179.39 44.93z"/><path fill="#e3a043" d="m3768.96 2656.04-29.48 98.02-489.34-125.57 31.99-95.76 306.66 77.67 180.17 45.64z"/><path fill="#fff" d="m1560.35 1559.74-5.62 11.9-96.41 204c-.77 1.64-1.51 3.25-2.22 4.85s-1.4 3.21-2 4.8-1.28 3.16-1.88 4.72-1.17 3.11-1.71 4.66c-5 14.4-7.55 27.91-7.42 40.76a87.94 87.94 0 0 0 8.39 36.85c5.51 11.81 13.77 23.21 24.88 34.41s25.12 22.29 42.07 33.43c3.18 2.08 7.52 4.7 12.93 7.81s11.88 6.75 19.31 10.85 15.84 8.69 25.12 13.73l30.34 16.41c22.59 12.2 48.15 26 75.92 41.16s58 31.87 89.61 49.73 65 37 99.05 57.21 69.15 41.52 104.14 63.63q33.33 21.08 64.58 41.81t60.71 41q29.46 20.21 57.09 39.66t53.7 37.91l5.84 4.13 5.82 4.12c1.93 1.38 3.87 2.73 5.79 4.1s3.86 2.72 5.78 4.07q17.35 12.27 34.35 24.18t33.76 23.4q16.77 11.52 33.34 22.58t33.12 21.67c23.3 14.95 46.52 29.15 70 42.48s47.24 25.87 71.49 37.41 49.14 22.13 74.79 31.6 52.2 17.92 79.82 25.12q4.83 1.26 9.68 2.45c3.24.82 6.5 1.6 9.77 2.38s6.57 1.52 9.87 2.25 6.64 1.46 10 2.17q51.88 10.91 98.92 20.4 47.22 9.52 90.08 17.85c28.68 5.55 56 10.74 82.14 15.61s51.22 9.4 75.22 13.68c2.87.52 5.75 1 8.61 1.52s5.69 1 8.52 1.51l8.44 1.49 8.35 1.47q29.66 5.18 57.4 9.85t54.09 9q26.31 4.33 51.41 8.36l49.45 7.94c43.66 7 85.18 13.67 126.81 20.7s83.55 14.4 127.77 22.84 91 18 142.46 29.31c51.58 11.34 107.92 24.49 171.39 40.17l7.3 1.8 7.34 1.82 7.42 1.85 7.49 1.88-8.65 30.88c-2-.49-4-1-5.93-1.49l-5.91-1.48-5.85-1.46-5.82-1.45c-64.16-15.95-121.06-29.33-173.06-40.86s-98.92-21.16-143.51-29.72-86.52-16-128.46-23.13-83.54-13.8-127.4-20.86c-37.63-6.06-76.44-12.32-117.87-19.21s-85.25-14.39-133.17-23-99.55-18.21-156.61-29.37c-56.9-11.12-119-23.73-187.75-38.27-3.55-.71-7.07-1.47-10.58-2.25s-7-1.58-10.46-2.4-6.92-1.67-10.37-2.53-6.84-1.73-10.25-2.63c-27.78-7.27-54.43-15.7-80.22-25.19s-50.63-20-75-31.41-48-23.8-71.43-37-46.49-27.17-69.62-41.91q-16.62-10.59-33.3-21.67t-33.45-22.59q-16.78-11.5-33.8-23.41t-34.34-24.19c-2.65-1.86-5.31-3.76-8-5.64l-8-5.68-8.05-5.73-8.1-5.74q-25.93-18.42-53.51-37.9t-56.83-39.64q-29.25-20.13-60.42-40.9t-64.29-41.7c-34.79-22.07-69.57-43.33-103.58-63.55s-67-39.27-98.59-57.17-61.51-34.5-89.27-49.72-53.16-29-75.69-41.15c-11.08-6-21.39-11.57-30.81-16.7s-18-9.81-25.56-14-14.2-7.93-19.77-11.18-10.07-6-13.45-8.2a305 305 0 0 1-38.77-29.7c-12.07-11.11-22.84-23.57-30.93-37.73a112.3 112.3 0 0 1-14.84-47.75c-1.35-17.79 1.31-37.58 9.35-59.73.56-1.54 1.15-3.11 1.76-4.68s1.26-3.15 1.92-4.74 1.36-3.19 2.09-4.8 1.47-3.25 2.24-4.9l96.7-203.75 5.64-11.89Z"/><path fill="#f8cc8b" d="m2318.31 2597.25 38.49-97.77c23.13 14.74 46.23 28.74 69.62 41.91s47.16 25.56 71.43 37 49.22 22 75 31.41 52.44 17.91 80.21 25.19c3.41.9 6.84 1.76 10.26 2.62s6.9 1.71 10.37 2.53 7 1.62 10.45 2.41 7 1.54 10.59 2.25c68.71 14.54 130.85 27.15 187.75 38.27 57.06 11.16 108.8 20.8 156.61 29.37s91.84 16.1 133.17 23 80.24 13.15 117.87 19.21c43.86 7.06 85.57 13.78 127.4 20.86s84 14.56 128.46 23.11 91.64 18.25 143.51 29.74 108.9 24.91 173.06 40.86l-7.8 96.6c-74.78-16.46-159.59-34.69-248.57-53-88.56-18.27-181.26-36.66-272.45-53.57-90.77-16.83-180.1-32.2-262.55-44.54-82.11-12.29-157.5-21.6-220.84-26.37q-25.21-1.91-49.53-4.86t-47.8-7q-23.47-4-46.18-8.92t-44.66-10.78q-48.76-12.95-94.22-30c-30.27-11.3-59.57-23.84-88-37.41s-55.95-28.15-82.86-43.57-53.1-31.69-78.79-48.55Z"/><path fill="#68d1dd" d="M2850.31 2788.28c63.34 4.77 138.73 14.08 220.85 26.37 82.44 12.34 171.77 27.71 262.54 44.54 91.19 16.91 183.89 35.3 272.45 53.57 89 18.35 173.79 36.58 248.58 53l-8.88 109.86c-74.45-16.64-159.71-35.28-249.53-54.17-89.36-18.8-183.22-37.81-275.49-55.33-91.84-17.44-182.15-33.39-265.08-46.18-82.61-12.75-158-22.36-220.46-27.21q-28.66-2.2-56.25-5.64t-54.08-8q-26.52-4.56-52-10.2t-50.13-12.25q-49.1-13.23-94.81-30.17t-88.47-36.85q-42.72-19.92-83.05-42.52t-78.63-47.1l40.45-102.76q38.55 25.32 78.71 48.5 40.36 23.13 82.86 43.57 42.69 20.38 88 37.41 45.54 17 94.22 30 22 5.85 44.66 10.78t46.18 8.92q23.49 4 47.8 7t49.56 4.86Z"/><path fill="#fff" d="m4027.16 3080.85-181.31-5.19 8.88-109.86 7.79-96.6 5.82 1.45 5.85 1.46 5.91 1.48c2 .5 3.94 1 5.93 1.49l8.65-30.88-7.49-1.88-7.42-1.85-7.34-1.82c-2.45-.61-4.88-1.2-7.3-1.82L3951 1773l164 36.76-30.31 438.83-52.29 757.07Z"/></g><path fill="#f8cc8b" d="M2835.29 2892.77c62.46 4.83 137.85 14.46 220.46 27.21 82.93 12.79 173.24 28.74 265.08 46.18 92.27 17.51 186.11 36.53 275.49 55.33 89.8 18.89 175.08 37.53 249.53 54.17l-608.54-22.36-1059.22-99.78 99.77-253.52q38.41 24.6 78.6 47.14 40.39 22.54 83.05 42.52 42.85 19.95 88.47 36.85 45.78 16.86 94.81 30.17 24.6 6.6 50.12 12.25t52.05 10.2q26.53 4.56 54.08 8t56.25 5.64Z"/><path fill="#ed1525" d="M2872.23 1164.64c0-98.91-80.17-179.07-179-179.07a179.06 179.06 0 0 0-179.06 179.07s-8.09 62.12 62.7 163.16c19.35 27.61 58.07 88.23 85.53 131.61a36.49 36.49 0 0 0 61.65 0c27.46-43.38 66.19-104 85.53-131.61 70.75-101.04 62.65-163.16 62.65-163.16Zm-179 96.41a96.42 96.42 0 1 1 96.42-96.41 96.42 96.42 0 0 1-96.46 96.41Z"/><path fill="#f6ac00" d="M2562.69 1167.82a130.48 130.48 0 0 0 130.48 130.48v-261a130.48 130.48 0 0 0-130.48 130.52Z"/><path fill="#f6d900" d="M2693.17 1037.33v261a130.49 130.49 0 1 0 0-261Z"/></g><path fill="#2c4bce" d="M2801.24 544.5h-234.7A25.54 25.54 0 0 1 2541 519a25.54 25.54 0 0 1 25.53-25.54h234.7a25.54 25.54 0 0 1 25.54 25.54 25.54 25.54 0 0 1-25.53 25.5Z"/><path fill="#68c5e8" d="M1359.9 572a20.68 20.68 0 1 1-20.67-20.68A20.66 20.66 0 0 1 1359.9 572Z"/><path fill="#68c5e8" d="M1487.93 572a20.68 20.68 0 1 1-20.67-20.68 20.66 20.66 0 0 1 20.67 20.68Z"/><path fill="#68c5e8" d="M1616 572a20.68 20.68 0 1 1-20.68-20.68A20.67 20.67 0 0 1 1616 572Z"/><path fill="#68c5e8" d="M1744 572a20.68 20.68 0 1 1-20.68-20.68A20.67 20.67 0 0 1 1744 572Z"/><path fill="#68c5e8" d="M1872 572a20.68 20.68 0 1 1-20.68-20.68A20.67 20.67 0 0 1 1872 572Z"/><circle cx="1339.23" cy="700.06" r="20.68" fill="#68c5e8" transform="rotate(-76.72 1339.172 700.072)"/><path fill="#68c5e8" d="M1487.93 700.06a20.68 20.68 0 1 1-20.67-20.68 20.67 20.67 0 0 1 20.67 20.68Z"/><path fill="#68c5e8" d="M1616 700.06a20.68 20.68 0 1 1-20.68-20.68 20.68 20.68 0 0 1 20.68 20.68Z"/><circle cx="1723.32" cy="700.06" r="20.68" fill="#68c5e8" transform="rotate(-76.72 1723.258 700.079)"/><path fill="#68c5e8" d="M1872 700.06a20.68 20.68 0 1 1-20.68-20.68 20.68 20.68 0 0 1 20.68 20.68Z"/><circle cx="1339.23" cy="828.09" r="20.68" fill="#68c5e8" transform="rotate(-45 1339.228 828.094)"/><path fill="#68c5e8" d="M1487.93 828.09a20.68 20.68 0 1 1-20.67-20.68 20.67 20.67 0 0 1 20.67 20.68Z"/><path fill="#68c5e8" d="M1616 828.09a20.68 20.68 0 1 1-20.68-20.68 20.68 20.68 0 0 1 20.68 20.68Z"/><circle cx="1723.32" cy="828.09" r="20.68" fill="#68c5e8" transform="rotate(-45 1723.316 828.09)"/><path fill="#68c5e8" d="M1872 828.09a20.68 20.68 0 1 1-20.68-20.68 20.68 20.68 0 0 1 20.68 20.68Z"/><path fill="#68c5e8" d="M1359.9 956.12a20.68 20.68 0 1 1-20.67-20.67 20.67 20.67 0 0 1 20.67 20.67Z"/><path fill="#68c5e8" d="M1487.93 956.12a20.68 20.68 0 1 1-20.67-20.67 20.67 20.67 0 0 1 20.67 20.67Z"/><path fill="#68c5e8" d="M1616 956.12a20.68 20.68 0 1 1-20.68-20.67 20.68 20.68 0 0 1 20.68 20.67Z"/><path fill="#68c5e8" d="M1744 956.12a20.68 20.68 0 1 1-20.68-20.67 20.68 20.68 0 0 1 20.68 20.67Z"/><path fill="#68c5e8" d="M1872 956.12a20.68 20.68 0 1 1-20.68-20.67 20.68 20.68 0 0 1 20.68 20.67Z"/><path fill="#68c5e8" d="M1359.9 1084.15a20.68 20.68 0 1 1-20.67-20.67 20.67 20.67 0 0 1 20.67 20.67Z"/><path fill="#68c5e8" d="M1487.93 1084.15a20.68 20.68 0 1 1-20.67-20.67 20.67 20.67 0 0 1 20.67 20.67Z"/><path fill="#68c5e8" d="M1616 1084.15a20.68 20.68 0 1 1-20.68-20.67 20.68 20.68 0 0 1 20.68 20.67Z"/><path fill="#68c5e8" d="M1744 1084.15a20.68 20.68 0 1 1-20.68-20.67 20.68 20.68 0 0 1 20.68 20.67Z"/><path fill="#68c5e8" d="M1872 1084.15a20.68 20.68 0 1 1-20.68-20.67 20.68 20.68 0 0 1 20.68 20.67Z"/><path fill="#ff8762" d="M1627.94 1096.83c5.14 17.76-18.1 51.63-22.34 59 12.54 22.43 92.62 13.11 95.88 1.17 1.39-16.84.68-36.85.68-36.85 12.5 7.89 55.09 3 46-64.79a38.13 38.13 0 0 0 11.51-12.41 4.82 4.82 0 0 0-2.26-6.69c-6.75-2.89-16.62-10.68-19.09-19.9-3.11-11.59-7-68.84-59.15-72s-73.42 18.71-81.47 44.05-22.42 44.23 30.24 108.42Z"/><path fill="#2b1710" d="M1690.27 947.59a5.33 5.33 0 0 1-1.88 1.15c3.89 5.62 6.7 31.58-27.91 26.46 17.73 19.35 8.75 24.6 8.75 24.6 16.61 23.33 10.71 35.58 2.17 39.18s-8.37 18.33-7 21.69c6 17.56 23.33 49.77-23.58 49-7.36 5.38-16.07-.3-24.4-18.86s-80.13-66-34.83-107.7c-11-16.95 13-19.85 12.88-20.8-1.5-38.94 26.13-17.27 26.59-21.49 29.72-61.21 111.34-53.33 97.8 3.21a11.57 11.57 0 0 1-17.83 6.77l-.1-.08c-3.03-2.18-7.93-5.72-10.66-3.13Z"/><path fill="#2b1710" d="M1705.33 1006a59.57 59.57 0 0 1 15.74-8.86 2.51 2.51 0 0 0-.52-4.82c-7-1.26-15.13 3-19 10.6a2.51 2.51 0 0 0 3.78 3.08ZM1722.16 1014.57c.61 5.06-1.18 9.44-4 9.78s-5.61-3.49-6.22-8.55 1.18-9.44 4-9.78 5.61 3.49 6.22 8.55Z"/><path fill="#e0b3a8" d="M1719.42 1028.76a8.49 8.49 0 0 1-3.67-.4 11.87 11.87 0 0 1-6.86-6.6.81.81 0 1 1 1.48-.66 10.3 10.3 0 0 0 5.9 5.72 6.22 6.22 0 0 0 5-.35.81.81 0 0 1 .8 1.42 7.21 7.21 0 0 1-2.65.87Z"/><path fill="#ff7557" d="M1734.4 1047.29c1.26 10.42-6.59 19.93-17.52 21.26s-20.83-6-22.09-16.47 6.59-19.93 17.53-21.25 20.82 6.05 22.08 16.46Z"/><path fill="#ff7a52" d="M1681.89 1042.63a19.31 19.31 0 1 1-21.49-16.86 19.31 19.31 0 0 1 21.49 16.86Z"/><path fill="#e0b3a8" d="M1661.06 1031.29a13.68 13.68 0 0 0-10.1 6.51.81.81 0 0 0 1.39.84 12.06 12.06 0 0 1 14.21-5.18 4.69 4.69 0 0 0-.53 0 8.24 8.24 0 1 0 8.78 10.79 12.18 12.18 0 0 1-3.93 9.67.81.81 0 0 0-.06 1.15.81.81 0 0 0 1.15.05 13.76 13.76 0 0 0-10.91-23.84Zm6.75 16.93a6.62 6.62 0 1 1 5.78-7.36 6.63 6.63 0 0 1-5.78 7.36Z"/><path fill="#fff" d="M1726.67 1073.56c6.5.71 13.92 2 14.5 3.17.93 4.16-9.77 12.94-14.5-3.17Z"/><path fill="#e0b3a8" d="M1735.31 1088.15a7.27 7.27 0 0 1-2.48-.15 8.34 8.34 0 0 1-5.45-4.14.82.82 0 0 1 1.48-.69 6.82 6.82 0 0 0 4.34 3.25 5.27 5.27 0 0 0 4.64-1.09.82.82 0 0 1 1.15.13.81.81 0 0 1-.12 1.14 7 7 0 0 1-3.56 1.55Z"/><path fill="#2b1710" d="M1617.38 944h-.06a.82.82 0 0 1-.85-.78c-.23-5-2-8.94-4.93-11.16-2.67-2-6.18-2.51-10.44-1.5a.81.81 0 0 1-.38-1.58c4.69-1.12 8.77-.5 11.79 1.78 3.35 2.52 5.33 6.92 5.59 12.39a.82.82 0 0 1-.72.85ZM1725.38 935.47h-.12a.82.82 0 0 1-.8-.83c.22-9.9-2.7-17.69-8.67-23.16-7.88-7.24-21.14-10.26-37.32-8.51a.81.81 0 0 1-.9-.72.84.84 0 0 1 .72-.9c16.66-1.8 30.37 1.37 38.6 8.93 6.33 5.8 9.43 14 9.2 24.39a.82.82 0 0 1-.71.8ZM1674.21 1000.34h-.21a.83.83 0 0 1-.73-.9c0-.44.13-.92.22-1.45.73-4.48 1.83-11.26-13.24-16.9a.82.82 0 0 1 .57-1.53c16.32 6.12 15 14 14.27 18.69-.08.49-.15 1-.2 1.37a.82.82 0 0 1-.68.72ZM1681.3 1035.08a.86.86 0 0 1-.63-.19.81.81 0 0 1-.09-1.14s3.83-4.86.11-15.6a.83.83 0 0 1 .51-1 .82.82 0 0 1 1 .51c4 11.69-.22 17-.41 17.17a.83.83 0 0 1-.49.25Z"/><path fill="#2b1710" d="M1683.93 1038.29a.82.82 0 0 1-.62-1.44c3.56-2.94 1.31-7.81 1.28-7.86a.81.81 0 1 1 1.47-.7c1 2.09 1.9 6.82-1.71 9.82a.83.83 0 0 1-.42.18ZM1565.25 1032.75a.81.81 0 0 1-.83-.46c-3.17-6.69-3.88-15.91-1.86-24.06a33.19 33.19 0 0 1 18.54-22.61.82.82 0 0 1 .7 1.48 31.57 31.57 0 0 0-17.66 21.53c-1.94 7.79-1.27 16.59 1.75 23a.82.82 0 0 1-.39 1.09.78.78 0 0 1-.25.03ZM1614.34 942.8a.8.8 0 0 1-.79-.4c-5.19-8.79-12.37-4.94-12.67-4.77a.81.81 0 1 1-.79-1.42c.09-.05 8.88-4.78 14.86 5.37a.81.81 0 0 1-.29 1.11.94.94 0 0 1-.32.11Z"/><path fill="#ff8762" d="m1763.35 2508.31 10.36 62c-13 34.1-7.26 77.28-7.26 77.28l253.73.22c-27.41-51.36-146.44-55.25-159-79.84s-18-97.49-18-97.49Z"/><path fill="#2b1710" d="M1820.33 2573.61c-.39-8.89 6.17-40.86 29.18-50.37 2.86 17.48 6.73 35 11.72 44.75 12.51 24.59 131.54 28.48 159 79.84l-253.73-.22s-5.71-43.18 7.26-77.28c-.05 0 45.76 19.31 46.57 3.28Z"/><path fill="#693e2f" d="M2013.37 2638a54.45 54.45 0 0 1 6.81 9.8l-253.73-.22s-.5-3.82-.87-10.06ZM1842.72 2580.17a1.46 1.46 0 0 0 1.31-1c0-.11 3.81-10.45 11.21-13.69a12.05 12.05 0 0 1 9.83.19 1.46 1.46 0 0 0 1.14-2.69 14.87 14.87 0 0 0-12.16-.17c-8.54 3.76-12.6 14.9-12.77 15.38a1.46 1.46 0 0 0 .88 1.86 1.52 1.52 0 0 0 .56.12ZM1866.7 2597a1.47 1.47 0 0 0 1.31-1c0-.1 3.82-10.44 11.21-13.68a12 12 0 0 1 9.83.19 1.46 1.46 0 0 0 1.14-2.69 14.87 14.87 0 0 0-12.16-.17c-8.54 3.76-12.6 14.9-12.77 15.37a1.47 1.47 0 0 0 .88 1.87 1.55 1.55 0 0 0 .56.11ZM1906.05 2608.23a1.44 1.44 0 0 0 1.31-1c0-.11 3.82-10.45 11.21-13.69a12.08 12.08 0 0 1 9.84.19 1.45 1.45 0 1 0 1.13-2.68 14.85 14.85 0 0 0-12.15-.18c-8.55 3.76-12.61 14.9-12.78 15.38a1.46 1.46 0 0 0 .89 1.86 1.32 1.32 0 0 0 .55.12Z"/><path fill="#ff8762" d="m1214.59 1966.64-57-26.43c-20.84-30-59.71-49.59-59.71-49.59L954.5 2100c57.88 6.34 128.24-89.75 155.6-86.21s90.66 40.12 90.66 40.12Z"/><path fill="#2b1710" d="M1128.53 1976.86c7.56 4.68 30.26 28.14 25.13 52.5-16-7.5-32.65-14.16-43.56-15.57-27.36-3.54-97.72 92.55-155.6 86.21l143.33-209.38s38.87 19.64 59.71 49.59c0 0-41.79 26.92-29.01 36.65Z"/><path fill="#693e2f" d="M966.44 2099.9a54.22 54.22 0 0 1-11.94.1l143.33-209.38s3.43 1.74 8.79 5ZM1110.48 1991.63a1.47 1.47 0 0 0 .06 1.63c.07.09 6.47 9 5 17a12 12 0 0 1-5.71 8 1.46 1.46 0 0 0 1.58 2.45 14.84 14.84 0 0 0 7-9.94c1.72-9.17-5.19-18.81-5.49-19.22a1.45 1.45 0 0 0-2-.32 1.67 1.67 0 0 0-.44.4ZM1083.05 2001.93a1.47 1.47 0 0 0 0 1.63c.07.09 6.47 9 5 17a12 12 0 0 1-5.71 8 1.46 1.46 0 0 0 1.66 2.44 14.84 14.84 0 0 0 7-9.94c1.72-9.17-5.19-18.81-5.49-19.22a1.45 1.45 0 0 0-2.41.09ZM1051.58 2028.1a1.47 1.47 0 0 0 .06 1.62c.07.09 6.47 9 5 17a12 12 0 0 1-5.71 8 1.46 1.46 0 0 0 1.58 2.46 14.86 14.86 0 0 0 7-9.94c1.72-9.18-5.19-18.81-5.49-19.22a1.44 1.44 0 0 0-2-.32 1.38 1.38 0 0 0-.44.4Z"/><path fill="#082d71" d="M1642.13 2106.2c17.45-58.07 24.45-104.28 29.13-173.48 0 0 82.57 432.35 67.25 622.17h160.89c15.32-81.82 45-664.58-22.66-931.85l-195.69-56.5-190.27 64.36-21.78 316.44c-3.89 39.14-45.92 62.17-81 44.36-105.12-53.38-189.75-85.06-189.75-85.06l-37.62 170.12c163.62 112.87 441.15 186.48 481.5 29.44Z"/><path fill="#ff7a00" d="M1517.6 1192.4c-131.53 134.08-217.08 383.08 10.21 421.39s-10.21-421.39-10.21-421.39Z"/><path fill="#ff8762" d="M2169.34 1162c-2.63-8.19-20-59.81-20.29-66.46s16.69-64.46 19.5-69.1 28.51-35.19 29.67-35.54c10.48 4 10.2 14.19 5.67 25.67s-12 25.56-11.85 27.61.24 14.67 2.67 14.35 28.15 15.06 35.39 20.87 12.49 19 11 33.34-26.53 76-26.53 76Z"/><path fill="#ffa000" d="M1768.9 1174.25c44.94-2 123.79 47.15 178.28 73.34s179.66 3.22 206.87-117.15c5.86 1.36 66.57 56.79 66.57 56.79 13.7 55.68-32.91 185.15-157.19 241.68s-246.23-34.11-271.67-68.41c-44.55-60.08-50.03-154.23-22.86-186.25Z"/><path d="M2021.39 1285.38a1.24 1.24 0 0 0 1.25-1c.72-4.31-.78-11.81-2-17.84-.45-2.24-1-4.91-1.15-6.4 2.17 1.5 7.09 6.55 7 9.2a1.23 1.23 0 0 0 2.45.09c.12-3.27-3.89-7.7-6.27-9.8-2.9-2.56-4-2.39-4.34-2.32a1.7 1.7 0 0 0-1 .61c-.67 1-.43 2.58.88 9.1 1.11 5.52 2.62 13.09 2 17a1.22 1.22 0 0 0 1 1.41Z" style="mix-blend-mode:multiply" fill="#d9d9d9"/><path fill="#bfbfbf" d="M1666.15 1909.54a1.58 1.58 0 0 0 .63-.13 1.62 1.62 0 0 0 .87-2.13c-2.76-6.64-6-23.38-9.71-42.77-7.83-40.7-17.57-91.35-31.92-98.53-19.94-10-32-80.66-19.63-114.6a1.63 1.63 0 0 0-3.07-1.12c-13.11 35.84-.21 107.92 21.24 118.64 12.91 6.46 22.89 58.34 30.18 96.23 3.76 19.56 7 36.46 9.9 43.4a1.63 1.63 0 0 0 1.51 1.01Z"/><path fill="#bfbfbf" d="M1872.16 2505.44a1.64 1.64 0 0 0 1.63-1.52c.39-5.78 38.45-580.55-23.88-851.77a1.63 1.63 0 0 0-3.18.74c62.23 270.74 24.19 845 23.8 850.81a1.63 1.63 0 0 0 1.52 1.74Z"/><path fill="#bfbfbf" d="M1894.29 2524.17a1.63 1.63 0 1 0 0-3.26l-137.91-1.71a1.61 1.61 0 0 0-1.65 1.61 1.64 1.64 0 0 0 1.61 1.66l137.91 1.7Z"/><path fill="#ed1525" d="M1240.13 1463.66a148.91 148.91 0 1 0-297.81 0s-6.72 51.66 52.15 135.69c16.09 23 48.29 73.37 71.13 109.45a30.34 30.34 0 0 0 51.27 0c22.83-36.08 55-86.49 71.12-109.45 58.87-84.03 52.14-135.69 52.14-135.69Zm-148.9 80.18a80.18 80.18 0 1 1 80.19-80.18 80.18 80.18 0 0 1-80.19 80.18Z"/><path fill="#f6ac00" d="M982.71 1466.31a108.51 108.51 0 0 0 108.51 108.51v-217a108.5 108.5 0 0 0-108.51 108.49Z"/><path fill="#f6d900" d="M1091.22 1357.8v217a108.51 108.51 0 1 0 0-217Z"/><path fill="#3778f9" d="m963.6 891.91 245.96-264.99-203.84 163.07-42.12 101.92z"/><path fill="#37ccf9" d="m1209.56 626.92-203.84 163.07L1109 923.16l100.56-296.24z"/><path fill="#37ccf9" d="m820.91 749.22 138.61 24.46 250.04-146.76-388.65 122.3z"/><path fill="#37acf9" d="m959.52 773.68 4.08 118.23 42.12-101.92 203.84-163.07-250.04 146.76z"/><path fill="#37ccf9" d="M573.58 1193a3.48 3.48 0 0 1-3.39-2.72 197 197 0 0 1-3.52-21.63 3.47 3.47 0 1 1 6.91-.73 187.65 187.65 0 0 0 3.39 20.85 3.48 3.48 0 0 1-2.63 4.15 4 4 0 0 1-.76.08Zm-4-59.39h-.26a3.47 3.47 0 0 1-3.21-3.72 237.67 237.67 0 0 1 6.08-38.26 3.47 3.47 0 0 1 6.75 1.64 230.78 230.78 0 0 0-5.9 37.14 3.48 3.48 0 0 1-3.43 3.19Zm268.23-21.23a3.47 3.47 0 0 1-.28-6.93 75.51 75.51 0 0 0 34.29-11.5 3.47 3.47 0 0 1 3.7 5.88 82.28 82.28 0 0 1-37.41 12.54Zm-37.59-5a3.32 3.32 0 0 1-1.11-.19c-1.3-.44-2.61-.9-3.92-1.4a114.14 114.14 0 0 1-30.61-17.13 3.47 3.47 0 1 1 4.31-5.44 107.21 107.21 0 0 0 28.76 16.07c1.23.47 2.46.91 3.68 1.32a3.48 3.48 0 0 1-1.11 6.77Zm100.31-33.76a3.46 3.46 0 0 1-2.9-5.37 97 97 0 0 0 13.81-33.94 3.47 3.47 0 1 1 6.81 1.34 103.89 103.89 0 0 1-14.81 36.4 3.45 3.45 0 0 1-2.88 1.57Zm-158.47-13a3.46 3.46 0 0 1-3-1.77 108.69 108.69 0 0 1-12.62-37.14 3.47 3.47 0 1 1 6.86-1 102.14 102.14 0 0 0 11.81 34.79 3.46 3.46 0 0 1-3 5.17Zm-154.6-.95a3.52 3.52 0 0 1-1.34-.27 3.48 3.48 0 0 1-1.87-4.54 248.64 248.64 0 0 1 17.63-34.48 3.47 3.47 0 1 1 5.92 3.64 241.3 241.3 0 0 0-17.14 33.51 3.47 3.47 0 0 1-3.17 2.1Zm327.28-59.11a3.46 3.46 0 0 1-3.39-2.76 82.18 82.18 0 0 0-15.11-33 3.47 3.47 0 1 1 5.52-4.21 89 89 0 0 1 16.38 35.83 3.46 3.46 0 0 1-2.68 4.11 3.53 3.53 0 0 1-.69-.01Zm-287.34-5.67a3.43 3.43 0 0 1-2.27-.85 3.47 3.47 0 0 1-.35-4.9 223.3 223.3 0 0 1 27.84-27 3.47 3.47 0 1 1 4.38 5.39 215.09 215.09 0 0 0-27 26.13 3.48 3.48 0 0 1-2.57 1.19Zm102.6-8.32a4.55 4.55 0 0 1-.52 0 3.48 3.48 0 0 1-2.92-3.95 155.26 155.26 0 0 1 10.74-37.46 3.47 3.47 0 1 1 6.39 2.71 148.38 148.38 0 0 0-10.26 35.78 3.48 3.48 0 0 1-3.43 2.92Zm-43.47-39.48a3.47 3.47 0 0 1-1.66-6.52 205.66 205.66 0 0 1 35.68-15.18 3.47 3.47 0 1 1 2.1 6.62 199.2 199.2 0 0 0-34.47 14.66 3.4 3.4 0 0 1-1.63.42Zm183.75-5.77a3.44 3.44 0 0 1-1.72-.46A129.9 129.9 0 0 0 834 927.59a3.47 3.47 0 0 1 1.6-6.76 136.74 136.74 0 0 1 36.45 14 3.47 3.47 0 0 1-1.73 6.49Zm-111.42-17.25a3.47 3.47 0 0 1-.42-6.92 229.92 229.92 0 0 1 38.7-1.42 3.47 3.47 0 0 1-.33 6.94 222.3 222.3 0 0 0-37.52 1.38Zm.4-7.32a3.47 3.47 0 0 1-2.83-5.49 198.63 198.63 0 0 1 25.65-29.14 3.48 3.48 0 0 1 4.75 5.08 190.62 190.62 0 0 0-24.75 28.1 3.45 3.45 0 0 1-2.82 1.45Zm55.29-52a3.47 3.47 0 0 1-1.89-6.39A243 243 0 0 1 846.77 840a3.47 3.47 0 1 1 2.79 6.36 234.89 234.89 0 0 0-33.13 17.77 3.48 3.48 0 0 1-1.88.57Zm69.57-30.78a3.47 3.47 0 0 1-.93-6.82 309.26 309.26 0 0 1 37.81-7.98 3.47 3.47 0 1 1 1 6.87 303.11 303.11 0 0 0-36.92 7.75 3.31 3.31 0 0 1-.96.13Z"/></g></svg>