<svg xmlns="http://www.w3.org/2000/svg" viewBox="0 0 2000 2000"><path fill="#efedea" d="M1194.23,1519.97c.01-.68,.32-17,5.14-43.59,1.69-9.34,4.09-20.68,7.47-33.49,.04-.27,.11-.54,.21-.8,.16-.58,.31-1.17,.47-1.76-.51-9.97-3.13-35.81-9.69-45.81-.07-.12-.15-.22-.22-.33,0-.02-.02-.03-.03-.05-.01-.02-.03-.04-.04-.07-.69-1.02-7.41-11.22-13.45-23.05-8.99-17.64-11.61-29.42-8.02-36.02,1.58-2.89,5.09-6.17,12.87-5.34,6.82,.73,12.05,3.94,15.55,9.57,9.53,15.35,2.27,44.52,.12,52.15,4.38,7.55,6.95,19.77,8.42,30.16,4.26-13.53,9.54-28.14,16.06-43.42-.07-.26-.11-.53-.12-.82l-1.74-44.69c-1.17-1.68-8.39-12.16-14.92-24.4-10.02-18.77-13.06-31.5-9.3-38.92,1.68-3.3,5.53-7.12,14.38-6.54,8.74,.58,15.16,4.53,19.11,11.75,9.27,16.97,1.09,46.78-2,55.6l1.29,33.12c2.32-4.95,4.74-9.86,7.22-14.71,.02-.03,.04-.06,.05-.09,10.23-19.94,21.86-39.07,34.82-57.27t0,0c.79-1.41,8.59-16.14,3.04-34.48-1.67-2.47-8.78-13.18-15.21-25.64-10.26-19.9-13.3-33.44-9.29-41.39,1.77-3.52,5.85-7.62,15.16-7.16,8.11,.4,14.26,3.81,18.29,10.12,11.56,18.1,.62,55.05-1.76,62.46,2.1,7.24,2.46,13.94,1.98,19.72,1.79-2.3,3.61-4.59,5.45-6.86,.05-.07,.1-.13,.16-.19,0,0,0-.01,.01-.01,7.18-8.85,14.7-17.44,22.54-25.78,4.18-4.44,8.45-8.8,12.81-13.09l5.87-37.59c-1.61-4.08-4.67-12.29-7.11-21.45-4.89-18.31-4.83-30.46,.19-37.15,2.42-3.23,7.26-6.67,16.52-4.74,7.72,1.6,12.84,5.62,15.22,11.94,3.13,8.32,1.07,20.21-6.14,35.32-5.14,10.78-11.02,19.23-11.27,19.58l-.64,.92-3.86,24.75c4.84-4.52,9.78-8.95,14.83-13.3,.14-.12,.27-.24,.41-.36,0,0,.01,0,.02-.01,21.07-18.08,43.98-34.64,68.61-49.59l5.13-26.47c-.36-2.48-1.45-10.73-1.4-20.12,.08-15.51,3.19-26.14,9.26-31.61,5-4.5,11.61-5.35,19.66-2.51,7.64,2.7,11.94,7.11,12.77,13.11,1.12,8.07-4.37,17.8-16.76,29.75-6.82,6.58-13.73,11.83-16.48,13.86l-3.67,18.93c16.19-9.43,33.09-18.19,50.68-26.25,1.83-2.39,7.79-9.96,15.5-17.69,12.67-12.7,23.56-19.32,32.35-19.69,5.13-.22,9.51,1.63,13.01,5.48,2.43,2.5,5.89,8.44,3.77,15.18-4.01,12.72-25.15,21.06-64.63,25.49-.2,.02-.4,.03-.6,.02-19.12,8.92-36.91,18.46-53.47,28.46-21.44,12.96-40.8,26.71-58.29,40.92l52.8-8c7.13-5.15,33.3-22.74,51.84-17.74,6.68,1.8,11.69,6.22,14.88,13.14,3.6,7.79,1.84,12.6-.26,15.26-1.83,2.33-4.72,3.98-8.68,4.95-6.76,1.66-16.69,1.37-29.94-.86-14.64-2.46-27.85-6.38-28.41-6.55l-.62-.18-63.04,9.55c-7.72,6.67-15.06,13.44-22.01,20.25-7.66,7.5-14.87,15.07-21.65,22.66,8.9-4.32,19.21-8.38,26.84-8.58,2.65-1.45,11.38-6.07,21.91-9.9,17.22-6.26,30.32-7.22,38.95-2.85,5.88,2.98,9.56,8.25,10.95,15.67,1.63,8.76-1.43,13.46-4.28,15.86-1.78,1.5-4.01,2.58-6.71,3.24-7.54,1.86-18.72,.46-33.85-4.18-12.64-3.88-23.81-8.78-26.72-10.1-11.35,.3-32.58,12.03-41.2,17.37h0c-6.21,7.64-12,15.26-17.41,22.82-11.16,15.62-20.68,30.99-28.77,45.72,10.29-5.08,24.76-12.02,32.27-14.62l.24-.25c1.02-1.03,25.24-25.17,43-22.08,5.67,.99,10.07,4.45,13.08,10.28,3.51,6.79,2.13,11.33,.36,13.95-1.93,2.85-5.35,4.88-10.32,6.1-5.27,1.3-12.29,1.69-21.13,1.19-8.95-.5-17.24-1.78-20.98-2.42-4.96,1.07-27.31,11.78-42.76,19.62-3.7,7.23-7.06,14.26-10.1,21.06-.71,1.58-1.4,3.16-2.08,4.73-7.55,17.39-13.44,33.95-18.04,49.01,8.07-8.48,19.36-18.45,29.96-21.26,1.48-2.69,5.14-9,10.06-15.48,8.93-11.76,17.4-18.03,25.19-18.64,4.11-.32,10.16,.85,15.69,8.22,5.25,6.99,4.62,12.43,3.17,15.77-2.58,5.96-9.82,10.36-22.04,13.36-2.18,.54-4.51,1.03-7,1.48-8.79,1.58-17.04,2.14-20.59,2.32-.02,0-.04,0-.06,0-13.57,1.4-32.48,22.62-39.29,31.5-3.23,12.31-5.54,23.2-7.18,32.22-2.37,13.03-3.64,23.64-4.31,31.01-.68,7.38-.76,11.51-.76,11.59-.03,1.79-1.21,3.27-2.79,3.66-.3,.07-.62,.11-.95,.1-2.03-.06-3.64-1.85-3.61-3.99Z"/><path fill="#efedea" d="M1354.66,1207.11c.14-.12,.27-.24,.41-.36"/><path fill="#efedea" d="M984.47,1376.77c12.94-1.25,24.56-3.69,27.6-4.36,11.11,2.34,30.44,16.94,38.2,23.39h0c5.09,8.12,9.78,16.14,14.1,24.04,8.91,16.31,16.23,32.1,22.24,47.04-9.45-6.52-22.75-15.5-29.79-19.25l-.21-.27c-.87-1.13-21.49-27.61-39.36-28.03-5.7-.13-10.48,2.23-14.21,7.01-4.35,5.57-3.59,9.97-2.19,12.68,1.52,2.95,4.61,5.43,9.34,7.46,5.01,2.15,11.86,3.78,20.61,4.94,8.86,1.17,17.18,1.51,20.94,1.61,4.73,1.88,25.29,15.75,39.45,25.73,2.68,7.28,5.05,14.32,7.15,21.09,.48,1.57,.96,3.14,1.42,4.7,5.13,17.27,8.73,33.49,11.26,48.09-6.81-9.22-16.59-20.39-26.64-24.9-1.1-2.73-3.87-9.16-7.85-15.98-7.22-12.38-14.72-19.66-22.3-21.63-4-1.04-10.1-1.08-16.51,4.65-6.08,5.43-6.18,10.52-5.2,13.84,1.75,5.92,8.29,11.26,19.9,16.23,2.07,.89,4.29,1.76,6.69,2.63,8.43,3.05,16.46,5.06,19.93,5.88,.02,0,.04,.01,.06,.02,13.15,3.75,28.94,26.6,34.46,35.96,1.55,11.84,2.39,22.22,2.81,30.76,.04,.75,.06,1.46,.1,2.19h7.31c-.03-.66-.06-1.32-.09-1.99-.43-8.85-1.29-19.65-2.93-31.98,0-.25-.04-.51-.1-.77-.08-.56-.15-1.13-.23-1.69,1.81-9.02,7.8-32.16,15.57-40.11,.09-.09,.17-.18,.26-.26,.01-.01,.02-.02,.04-.04,.02-.02,.03-.03,.05-.06,.81-.81,8.77-8.9,16.27-18.62,11.17-14.49,15.3-24.78,12.63-31.47-1.17-2.93-4.19-6.57-11.94-7.23-6.8-.58-12.37,1.41-16.54,5.91-11.39,12.3-8.1,40.28-7,47.65-5.3,6.1-9.44,16.81-12.26,26.03-2.4-13.14-5.66-27.47-10.06-42.62,.1-.23,.17-.47,.22-.72l7.61-40.53c1.37-1.33,9.86-9.59,17.89-19.58,12.32-15.33,17-26.42,14.28-33.89-1.21-3.32-4.49-7.52-13.27-8.6-8.66-1.06-15.5,1.38-20.33,7.26-11.35,13.82-7.24,42.56-5.37,51.19l-5.64,30.04c-1.63-4.95-3.35-9.87-5.16-14.77-.01-.04-.03-.07-.04-.09-7.42-20.09-16.34-39.7-26.67-58.7t0,0c-.59-1.43-6.31-16.32,1.56-32.07,1.96-1.95,10.37-10.45,18.33-20.67,12.71-16.32,17.48-28.15,14.59-36.15-1.28-3.54-4.74-8.04-13.95-9.31-8.02-1.11-14.52,.88-19.31,5.92-13.75,14.44-7.87,50.21-6.51,57.42-3.02,6.24-4.26,12.3-4.55,17.67-1.46-2.43-2.94-4.85-4.45-7.26-.04-.07-.08-.14-.13-.21,0,0,0-.01,0-.01-5.89-9.4-12.14-18.62-18.75-27.67-3.52-4.82-7.14-9.59-10.87-14.3l-.81-35.43c2.12-3.44,6.21-10.38,9.82-18.31,7.22-15.84,8.77-26.96,4.71-33.99-1.96-3.39-6.25-7.42-15.61-7.35-7.8,.06-13.37,2.8-16.54,8.14-4.18,7.04-3.71,18.28,1.37,33.41,3.63,10.79,8.3,19.59,8.49,19.96l.51,.96,.53,23.33c-4.16-5.01-8.43-9.97-12.83-14.86-.12-.13-.24-.27-.36-.4,0,0-.01,0-.02-.02-18.32-20.37-38.66-39.68-60.9-57.84l-1.55-25.13c.68-2.2,2.84-9.54,4.04-18.14,1.97-14.19,.31-24.48-4.93-30.58-4.32-5.03-10.71-7.01-18.99-5.88-7.87,1.07-12.67,4.32-14.28,9.66-2.16,7.17,1.95,17.07,12.55,30.25,5.84,7.26,11.93,13.32,14.37,15.68l1.11,17.97c-14.67-11.57-30.13-22.66-46.35-33.24-1.48-2.52-6.34-10.52-12.9-19-10.78-13.92-20.61-21.96-29.2-23.9-5.01-1.14-9.56-.25-13.51,2.64-2.72,1.84-6.91,6.65-5.71,13.19,2.26,12.36,21.94,23.84,60.17,35.08,.19,.06,.39,.1,.58,.12,17.62,11.64,33.84,23.6,48.8,35.76,19.36,15.76,36.58,31.86,51.89,48.03l-50.84-16.94c-6.33-6.01-29.73-26.86-48.62-25.67-6.81,.43-12.31,3.56-16.36,9.3-4.56,6.47-3.47,11.18-1.76,14,1.49,2.46,4.11,4.49,7.88,6.11,6.43,2.76,16.22,4.3,29.54,4.67,14.72,.42,28.22-.75,28.79-.81l.63-.05,60.7,20.22c6.71,7.51,13.03,15.03,18.96,22.52,6.54,8.26,12.63,16.48,18.29,24.66-8.18-5.57-17.77-11.16-25.25-12.74-2.41-1.81-10.39-7.62-20.22-13.04-16.1-8.86-28.85-12.13-37.91-9.71-6.17,1.65-10.49,5.8-12.83,12.33-2.76,7.71-.37,12.57,2.11,15.28,1.55,1.69,3.6,3.09,6.16,4.19,7.17,3.07,18.34,3.84,33.82,2.35Z"/><path fill="#efedea" d="M1006.57,1325.82c-.12-.13-.24-.27-.36-.4"/><path fill="#efedea" d="M1480.82,1364.54c-2.32-4.31-6.03-7.08-11.05-8.22-8.59-1.97-20.93,1.04-36.66,8.92-9.59,4.81-17.42,9.92-19.85,11.55-19.2,2.52-37.94,5.84-56.17,9.93l8.77-15.73c3.22-1.07,11.33-3.9,19.73-7.92,15.26-7.3,23.25-14.45,24.4-21.85,.86-5.51-2.07-10.52-8.7-14.88-6.98-4.6-13.6-5.58-19.67-2.91-7.36,3.24-13.31,11.8-17.67,25.45-2.64,8.27-3.87,15.82-4.2,18.1l-12.26,21.99c-27.9,6.76-54.59,15.38-79.92,25.82,0,0-.02,0-.02,0-.17,.07-.33,.14-.5,.21-6.08,2.51-12.07,5.13-17.99,7.85l10.56-20.81,.87-.65c.34-.24,8.35-6.16,16.29-14.32,11.13-11.44,16.41-21.38,15.68-29.53-.55-6.18-4.38-11.06-11.39-14.48-8.4-4.11-14.02-2.34-17.25-.12-6.7,4.59-10.12,15.28-10.45,32.69-.17,8.71,.51,16.74,.94,20.75l-16.05,31.6c-5.4,2.64-10.72,5.38-15.98,8.2-9.87,5.3-19.5,10.92-28.88,16.84,0,0,0,0-.01,0-.07,.04-.14,.08-.21,.13-2.4,1.52-4.79,3.06-7.16,4.62,2.06-4.97,3.56-10.97,3.54-17.9,4.34-5.91,25.11-35.62,18.95-54.59-2.14-6.61-7.14-11.22-14.85-13.69-8.86-2.83-13.92-.28-16.61,2.37-6.06,5.96-6.88,18.69-2.47,38.9,2.76,12.66,6.66,23.96,7.59,26.56,.28,17.6-11.31,28.55-12.46,29.59t0,0c-17.53,12.67-34.04,26.49-49.43,41.4-.02,.02-.05,.04-.08,.07-3.74,3.63-7.43,7.33-11.04,11.08l7.9-29.52c5.42-6.97,21.55-31.11,17.29-48.48-1.81-7.39-6.92-12.54-15.19-15.33-8.38-2.82-13.15-.46-15.68,2.02-5.68,5.56-6.26,17.57-1.78,36.73,2.92,12.49,7,23.6,7.66,25.39l-10.66,39.84c-.07,.25-.11,.5-.11,.75-10.52,11.76-19.65,23.27-27.5,34.08,1.45-9.54,2.35-20.98,.2-28.77,4.18-6.17,19.25-29.98,14.29-45.99-1.82-5.87-5.97-10.07-12.36-12.48-7.28-2.75-11.57-.78-13.9,1.36-5.29,4.88-6.02,15.94-2.22,33.83,2.56,12.01,6.23,22.74,6.62,23.82,0,.03,.02,.05,.02,.07,0,.02,.01,.03,.02,.05,.04,.12,.08,.23,.12,.35,3.57,10.52-1.04,33.98-3.3,42.9-.32,.48-.63,.95-.94,1.43-.17,.2-.31,.42-.42,.65-4.21,6.44-7.89,12.47-11.09,17.99h8.46c2.6-4.37,5.49-9.04,8.69-13.96,9.02-6.05,33.14-19.83,46.62-17.52,.02,0,.04,.01,.06,.01,3.48,.77,11.59,2.42,20.51,3.32,2.53,.25,4.92,.43,7.17,.52,12.63,.53,20.83-1.46,24.97-6.03,2.32-2.56,4.43-7.2,1.29-14.72-3.3-7.93-8.82-10.54-12.87-11.33-7.68-1.5-17.59,1.82-29.46,9.86-6.54,4.43-11.81,9.04-13.99,11.02-11.01-.28-24.66,5.56-34.79,10.93,8.59-12.08,18.86-25.14,30.95-38.5,1.09-1.21,2.19-2.41,3.31-3.62,4.81-5.2,9.99-10.52,15.56-15.93,17.08-2.88,41.61-6.5,46.69-6.14,3.43,1.54,11.08,4.82,19.57,7.6,8.39,2.74,15.28,4.23,20.72,4.46,5.13,.22,8.99-.68,11.64-2.69,2.44-1.84,5.02-5.48,3.51-12.38-1.29-5.93-4.59-10.12-9.78-12.47-16.29-7.35-46.34,7.61-47.6,8.26l-.3,.16c-7.97,.34-23.85,2.68-35.19,4.48,11.88-10.88,25.3-21.94,40.39-32.8,7.31-5.26,15-10.46,23.11-15.58h0c9.79-2.46,33.53-7.27,44.56-4.58,2.45,1.92,11.87,9.15,23,15.87,13.32,8.04,23.72,12.18,31.51,12.5,2.79,.12,5.24-.26,7.37-1.11,3.41-1.37,7.66-4.72,8.51-12.86,.72-6.9-1.38-12.51-6.23-16.67-7.12-6.1-20.03-8.67-38.38-7.64-11.21,.64-20.92,2.43-23.88,3.02-7.43-1.81-18.49-.92-28.28,.57,8.64-4.92,17.68-9.71,27.15-14.33,8.59-4.19,17.54-8.24,26.83-12.11l63.48,8.01,.55,.32c.49,.29,12.16,7.19,25.61,13.17,12.18,5.42,21.67,8.26,28.66,8.56,4.1,.17,7.34-.53,9.75-2.1,2.76-1.8,5.78-5.58,4.46-13.38-1.17-6.93-4.78-12.13-10.73-15.46-16.51-9.24-46.63-.56-54.93,2.12l-53.17-6.71c20.8-7.97,43.29-15.04,67.56-20.88,18.74-4.5,38.55-8.27,59.46-11.15,.19,.06,.38,.11,.58,.14,39.33,6.39,62.04,4.55,69.42-5.62,3.91-5.39,2.21-11.53,.55-14.36Z"/><path fill="#efedea" d="M1267.05,1415.01c.17-.07,.33-.14,.5-.21"/><path fill="#efedea" d="M473.78,1598.47c-70.19,5.23-234.19,13.44-179.24,64.84,17.11,7.77,45.9,5.91,60.46,17.56,39.91,31.42,76.65,54.04,144.22,59.19,114.74,9.97,234.7-.59,351.85,.77,96.84,.12,195.19,12.16,292.13,12.24,80.74,1.29,156.29-14.49,235.09-21.96,114.54-5.15,247.03-7.6,242.03-79.67-11.87-68.55-316.35-61.55-397.78-59.73-85.32,2.38-461.71-16.69-501.53-12.47-84.3,8.27-163.49,12.74-247.24,19.22Z"/><path fill="#5e7abf" d="M1110.66,1427.83c-33.73,0-30.58,22.16-53.77,44.35-23.19,22.21-34.76,49.57-34.76,82.09,0,36.66-16.65,58.74,7.33,79.12,23.96,20.38,80.63,37.04,112.79,37.04s58.46-10.33,82.16-30.98c23.7-20.65,35.57-49.05,35.57-85.18,0-32.51-11.34-59.88-33.99-82.09-22.65-22.19-82.15-44.35-115.34-44.35Z"/><path fill="#5e7abf" d="M1490.16,599.66c-30.57-51.35-73.95-91.97-130.14-121.82-56.18-29.86-121.08-44.79-194.7-44.79-79.23,0-148.56,17.91-207.96,53.69-59.42,35.78-104.62,80.94-135.57,135.44-30.98,54.53-46.46,108.35-46.46,161.45,0,25.56-25.07,45.9-5.52,67.82,19.54,21.94,78.38,36.29,106.82,36.29,48.23,0,80.99-31.54,98.26-94.63,18.29-60.21,40.62-105.81,67.03-136.75,26.4-30.94,67.53-46.44,123.4-46.44,47.72,0,86.69,15.35,116.91,46.02,30.21,30.7,45.33,68.35,45.33,112.99,0,22.87-4.96,44.07-14.85,63.59-9.91,19.54-22.08,37.26-36.55,53.15-14.47,15.89-37.94,39.46-70.43,70.7-37.07,35.73-66.52,66.55-88.33,92.48-21.84,25.96-39.34,56.09-52.55,90.39-13.21,34.3-19.79,74.89-19.79,121.75,0,37.38-22.89,63.33-4.92,82.28,17.97,18.98,72,30.68,98.32,30.68,50.64,0,80.76-29.02,90.38-87.06,5.62-27.34,9.82-46.44,12.63-57.32,2.79-10.86,6.74-21.74,11.84-32.62,5.1-10.88,12.87-22.87,23.34-36,10.45-13.1,24.35-28.3,41.69-45.6,62.18-61.39,105.29-105.04,129.31-131,24.01-25.96,44.75-56.78,62.2-92.51,17.43-35.73,26.17-77.31,26.17-124.76,0-60.26-15.3-116.07-45.87-167.42Z"/><path fill="#7693db" d="M1098.86,1427.31c-32.42,0-59.76,10.9-82.04,32.66-22.29,21.79-33.41,48.64-33.41,80.54,0,35.97,11.5,63.96,34.55,83.95,23.03,19.99,49.98,30.01,80.9,30.01s56.18-10.13,78.96-30.39c22.78-20.26,34.19-48.12,34.19-83.57,0-31.9-10.9-58.75-32.66-80.54-21.77-21.77-48.59-32.66-80.49-32.66Z"/><path fill="#7693db" d="M1442.19,583.72c-30.57-51.35-73.95-91.97-130.14-121.82-56.18-29.86-121.08-44.79-194.7-44.79-79.23,0-148.56,17.91-207.96,53.69-59.42,35.78-104.62,80.94-135.57,135.44-30.98,54.53-46.46,108.35-46.46,161.45,0,25.56,9.77,49.3,29.32,71.21,19.54,21.94,43.54,32.89,71.98,32.89,48.23,0,80.99-31.54,98.26-94.63,18.29-60.21,40.62-105.81,67.03-136.75,26.4-30.94,67.53-46.44,123.4-46.44,47.72,0,86.69,15.35,116.91,46.02,30.21,30.7,45.33,68.35,45.33,112.99,0,22.87-4.96,44.07-14.85,63.59-9.91,19.54-22.08,37.26-36.55,53.15-14.47,15.89-37.94,39.46-70.43,70.7-37.07,35.73-66.52,66.55-88.33,92.48-21.84,25.96-39.34,56.09-52.55,90.39-13.21,34.3-19.79,74.89-19.79,121.75,0,37.38,8.99,65.56,26.96,84.51,17.97,18.98,40.12,28.45,66.45,28.45,50.64,0,80.76-29.02,90.38-87.06,5.62-27.34,9.82-46.44,12.63-57.32,2.79-10.86,6.74-21.74,11.84-32.62,5.1-10.88,12.87-22.87,23.34-36,10.45-13.1,24.35-28.3,41.69-45.6,62.18-61.39,105.29-105.04,129.31-131,24.01-25.96,44.75-56.78,62.2-92.51,17.43-35.73,26.17-77.31,26.17-124.76,0-60.26-15.3-116.07-45.87-167.42Z"/><g><polygon fill="#faa186" points="500.41 1583.06 505.3 1638.66 539.14 1638.66 545.53 1582.44 500.41 1583.06"/><path fill="#faa186" d="M774.46,1632.71l-14.11-2.56c-10.8-1.96-19.16-10.57-20.81-21.42l-4.36-28.69-39.11,10.74,13.83,49.49,50.12,14.58,14.45-22.13Z"/><path fill="#4d4445" d="M498.97,1104.83c-8.12-3.33-30.02,71.32-30.79,75.07-15.1,73.6-4.05,152.1,.98,226.37,3.63,53.55,17.41,132.46,23.12,185.93,.95,8.85-.77,16.76,9.27,16.84l43.83,.65c10.64,.09,7.7-8.92,7.85-18.33l24.92-340.67c22.45,62.15,39.01,108.58,52.13,172.8,1.29,6.3,2.44,12.61,3.48,18.94,5.22,31.55,15.9,61.11,24.74,91.91,3.51,12.22,11.24,27.73,15.28,42.19,1.96,6.99,12.39,33.92,20.51,33.83l52.15,.21c10.91-.12,3.68-31.6,1.4-41.07l-108.68-452.65s-31.66,6.02-48.97,5.33c-54.11-2.18-91.22-17.37-91.24-17.38Z"/><path fill="#382d2f" d="M584.85,1237.09c5.24-6.37,6.45-15.44,7.41-22.73,2.2-16.58,4.47-33.73,4.13-50.72-.04-1.71-.09-3.42-.16-5.13-.17-4.94-.32-10.01,.15-15.02,.26-.02,.51-.03,.78-.06,.32-.04,.62-.11,.93-.17-.5,5.04-.37,10.19-.19,15.2,.06,1.72,.12,3.44,.15,5.16,.35,17.11-1.94,34.32-4.14,50.97-1,7.5-2.24,16.84-7.78,23.58-.13,.16-.31,.26-.49,.29-.23,.04-.48-.01-.68-.18-.36-.29-.41-.82-.11-1.18Z"/><path fill="#e65440" d="M623.11,900.7c-5.98-4.58-11.77-5.77-21.49-6.12-2.02-.47-4.11-.86-6.29-1.15,0,0,0,.12,0,.35-5.67,7.61-2.13,16.18-12.06,16.32-9.76,.14-30.76-7.47-39.52-11.27-2.21-.96-3.91-2.59-5.11-4.58h-.95c-19.37-2.58-35.41-1.53-47.65,2.46h0s-33.24,14.52-29.54,88.23c2.77,37.95,6.16,145.68,7.89,155.11,1.14,6.23,5.55,11.38,11.54,13.43,3.85,1.31,7.64,2.38,12.52,3.53,16.61,3.92,33.65,5.59,50.74,6.14h0s.02,0,.03,0c2.3,.07,4.6,.13,6.9,.16,0-.05,0-.1,.01-.16,12.83-.03,40.57-.28,58.52-1.92,0,.01,0,.02,0,.04,.44-.05,.87-.11,1.31-.16,4.51-.44,8.32-.97,11.02-1.62h0c1.7-.31,3.39-.63,5.08-1,8.75-1.88,14.98-3.13,22.96-7.37,19.72-12.98,12.85-74.48,14.75-99.65,.25-3.37,.3-14.4-.28-28.53,.27,.13-30.84-116.74-40.37-122.27Z"/><path fill="#382d2f" d="M711.77,1658.95h91.88c.39-.1,.78-.21,1.14-.38,3.51-1.54,4.84-5.84,5.09-9.67,.1-1.52,.08-3.13-.65-4.47-.99-1.8-3.01-2.71-4.92-3.47-10.18-4.03-20.81-6.9-31.63-8.54-4.45,7.04-13.06,10.63-21.38,10.94s-16.48-2.2-24.31-5.05c-5.1-1.86-15.82-8.41-20.97-4.45-4.85,3.73-4.36,13.7-1.74,18.38,1.67,2.98,4.42,5.2,7.5,6.72Z"/><path fill="#382d2f" d="M546.37,1658.95c2.06-2.72,3.25-5.8,3.25-9.08,0-10.93-12.98-19.78-28.98-19.78-16.01,0-28.98,8.86-28.98,19.78,0,3.28,1.19,6.36,3.25,9.08h51.46Z"/><path fill="#fba287" d="M603.41,1031.61c-3.84,.72-8.06,1.46-12.65,2.22-28.32,4.65-39.45-5.41-46.42-6.08-6.97-.67-19.78-.54-20.77,10.71-1,11.25,3.32,10.27,3.32,10.27,.1,3.67,3.81,4.21,3.81,4.21,2.29,4.25,6.26,6.52,11.25,6.39,4.99-.14,2.93-4.18,2.93-4.18l3.52,1.63c3.52,1.63,20.59,6.35,25.17,4.5,4.58-1.85,9.63-2.42,9.63-2.42,5.31,.55,12.58,.69,20.23,.62v-27.87Z"/><path fill="#e65440" d="M668.28,980.5c-12.04-59.68-46.46-80.74-46.46-80.74,0,0-3.63,14.15,9.51,45.12,10.37,24.43,4.4,39.44,3.13,48.54-1.27,9.1-1.4,31.5-1.4,31.5,0,0-14,4.26-42.32,8.92-1.7,.28-3.34,.5-4.91,.68,1.64,6.56,4.2,13.28,5.05,19.75,.22,1.65,.32,3.37,.31,5.1,20.23,.69,57.01-2.6,57.01-2.6,31.75-6.26,32.12-16.59,20.08-76.27Z"/><path fill="#bf3f2e" d="M599.72,1062.65l45.38-2.1c4.63-.82,9.96-2.06,14.44-4.24-4.35,2.7-9.37,4.12-14.33,5.24-3.79,.35-7.59,.55-11.39,.79-11.35,.62-22.74,.93-34.1,.33h0Z"/><path fill="#bf3f2e" d="M631.34,944.88c5.69,12.04,7.99,25.86,5.35,39.02-1.41,6.54-2.31,12.97-2.46,19.66-.31,6.76-.51,13.55-.58,20.32-7.11,2.01-14.32,3.48-21.54,4.86-7.08,1.35-14.21,2.48-21.35,3.45,5.31-.99,15.92-3.1,21.2-4.22,7.02-1.52,14.06-3.13,20.96-5.09,0,0-.41,.55-.41,.55,.11-9.98,.13-19.97,1.24-29.92,.98-6.61,2.81-12.95,3.05-19.63,.5-9.93-1.76-19.8-5.45-29.01h0Z"/><path fill="#fff" d="M592.95,1031.21l-12.84,2.81s11.66,15.82-2.28,26.32l16.59,1.41s14.37-14.7-1.47-30.53Z"/><path fill="#4d3932" d="M628.37,890.45c-.22,10.62,6.72,20.68,15.1,24.74,2.81,1.36-11.18,19.77-22.17,24.71-18.93,8.5-47.02-2.73-68.88-4.83-14.26-1.37-46.38,6.92-62.29,3.26-13.47-3.1-20.71-23.6-19.46-25.93,4.39-8.18,22.99-18.51,26.37-27.01,3.53-8.88,2.83-23.44-2.22-53.65-6.81-40.69-4.24-93.54,41.46-111.64,6.53-2.58,13.42-4.18,20.38-5.03,0,0,46.23-6.5,72.08,42.05,4.9,9.21,7.34,21.53,9.01,31.7,4.79,29.23-6.87,72.45-9.37,101.64Z"/><path fill="#382924" d="M626.19,843.68c-.55,5.91-1.22,11.78-2.54,17.46-1.31,5.67-3.3,11.16-6.27,16.07-2.97,4.91-6.9,9.26-10.94,13.55-2.01,2.14-4.05,4.21-6.37,5.93-1.16,.86-2.39,1.62-3.71,2.22-.33,.15-.67,.27-1.01,.41-.34,.12-.69,.22-1.04,.34l-1.07,.26c-.36,.06-.73,.11-1.1,.18,.37,.01,.74,.02,1.12,.03l1.12-.08c.37-.06,.74-.11,1.12-.18,.37-.09,.74-.17,1.1-.27,1.46-.41,2.86-1.06,4.17-1.81,2.64-1.53,4.95-3.51,7.13-5.54,2.18-2.02,4.3-4.13,6.3-6.38,1-1.13,1.96-2.3,2.87-3.5,.91-1.21,1.77-2.47,2.56-3.78,.38-.66,.75-1.33,1.12-1.99,.35-.68,.68-1.36,1.02-2.04,.31-.7,.6-1.4,.9-2.09,.27-.71,.54-1.42,.8-2.13,.99-2.87,1.71-5.81,2.19-8.78,.96-5.94,1.05-11.95,.5-17.86Z"/><path fill="#382924" d="M597.37,919.92c-2.44,.52-4.94,.46-7.34,.01-1.2-.22-2.39-.52-3.56-.89-1.16-.37-2.32-.8-3.43-1.29-1.11-.49-2.19-1.04-3.2-1.68-1.02-.63-1.96-1.37-2.86-2.17-.9-.8-1.77-1.66-2.65-2.54l-2.64-2.63c-1.76-1.75-3.53-3.5-5.3-5.24-1.77-1.75-3.55-3.47-5.27-5.23-1.72-1.76-3.41-3.54-4.96-5.41-1.57-1.87-3.05-3.81-4.44-5.82-1.4-2-2.72-4.07-3.98-6.18-1.26-2.11-2.46-4.26-3.62-6.43-2.32-4.35-4.49-8.8-6.56-13.29-4.13-8.99-7.68-18.24-10.57-27.76,1.81,9.79,4.87,19.35,8.66,28.59,1.9,4.62,3.98,9.16,6.24,13.62,1.13,2.23,2.33,4.43,3.59,6.61,1.27,2.17,2.62,4.29,4.06,6.37,1.45,2.06,2.98,4.08,4.62,6,1.64,1.93,3.39,3.75,5.18,5.5,1.79,1.75,3.62,3.45,5.44,5.14,1.82,1.69,3.64,3.38,5.47,5.06l2.75,2.52c.92,.84,1.86,1.69,2.86,2.48,1,.79,2.07,1.53,3.2,2.15,1.13,.62,2.3,1.14,3.49,1.57,1.2,.43,2.41,.78,3.64,1.08,1.23,.29,2.47,.52,3.73,.63,1.26,.11,2.52,.14,3.77,.03,1.25-.12,2.49-.36,3.67-.77Z"/><path fill="#382924" d="M546.11,733.73c-5.09,3.08-10.03,6.4-14.66,10.2-2.32,1.89-4.54,3.92-6.62,6.1-2.08,2.18-4.05,4.5-5.75,7.02l-.33,.47c-.11,.16-.2,.32-.31,.48l-.6,.97-.6,.97c-.19,.33-.37,.67-.55,1l-.54,1.01-.27,.5-.24,.52c-.32,.69-.64,1.38-.95,2.08l-.42,1.06-.21,.53-.19,.54-.37,1.08-.33,1.09-.16,.54-.15,.55-.29,1.1c-.16,.74-.35,1.47-.49,2.21l-.22,1.11-.19,1.11c-.13,.74-.23,1.48-.33,2.23-.19,1.49-.34,2.97-.45,4.46-.11,1.49-.19,2.97-.23,4.46l-.06,2.23c0,.74-.02,1.49-.01,2.23,1.12-5.84,1.97-11.72,3.53-17.34,.76-2.82,1.72-5.55,2.9-8.18,.32-.64,.63-1.29,.95-1.94l.24-.48,.27-.47,.53-.94,.53-.94,.58-.91,.58-.91c.1-.15,.19-.31,.29-.45l.31-.44c.42-.59,.82-1.19,1.25-1.77l1.33-1.72c.21-.29,.45-.57,.69-.84l.7-.83c.24-.28,.46-.56,.71-.83l.73-.81c.96-1.1,1.99-2.13,3-3.19l1.56-1.54c.52-.52,1.06-1.01,1.59-1.52,4.27-4.03,8.85-7.8,13.28-11.77Z"/><path fill="#fba287" d="M534.37,808.88s.81-.24,2.96-1.25c12.97-7.79,26.37-13.61,38.94-24.57,4.97-4.33,21.91-21.82,22.24-25.41,.13-.02,6.21,6.1,6.96,6.89,15.53,16.53,17.58,29.64,17.04,52.47-.29,12.32-2.52,24.68-7.43,36.13-3.91,9.12-10.46,16.89-18.99,21.61-7.54,4.17-16.77,5.49-27.24-.64-13.77-8.95-25.59-25.55-31.28-46.28-1.76-6.41-2.81-12.77-3.2-18.95Z"/><path fill="#ed8f75" d="M576.28,783.06c4.97-4.33,21.91-21.82,22.24-25.41,.05,0,1.09,.99,2.34,2.24,0,0,0,0,0-.01,0,.02,.02,.03,.03,.05,.34,.34,.7,.7,1.06,1.06-1.41,1.44-2.57,3.16-3.06,5.07-3.76,5.47-7.99,10.63-12.86,15.14-3,2.78-6.23,5.31-9.7,7.48-2.85,1.78-5.84,3.32-8.83,4.86-4.12,2.12-8.24,4.24-12.36,6.35-5.84,3-14.31,7.09-20.78,9,12.79-7.61,29.52-15.03,41.9-25.82Z"/><path fill="#4a2c28" d="M574.11,797.53c1.83-.69,3.74-1.4,5.7-1.22,1.95,.18,3.95,1.52,4.19,3.47-1.75,1.37-4.18,1.23-6.4,1.26-5.04,.07-9.39,1.62-14.01,3.37-3.24-4.03,7.78-5.84,10.52-6.87Z"/><path fill="#4a2c28" d="M610.65,797.22c-1.55-.33-3.17-.66-4.71-.28-1.54,.38-2.98,1.7-2.93,3.29,1.57,.88,3.5,.47,5.28,.23,4.04-.56,7.72,.16,11.63,.99,2.1-3.63-6.95-3.73-9.27-4.22Z"/><path fill="#fff" d="M580.04,845.57l18.45,1.75c.41,.04,.6,.6,.35,1-2.51,3.88-12.81,17.93-19.34-1.87-.14-.43,.15-.91,.54-.88Z"/><path fill="#e8856a" d="M594.74,836.17c1.11-.31,1.94-.83,2.5-1.57,1.77-2.37,.25-5.93-1.22-9.38-.49-1.15-.95-2.24-1.25-3.18-.18-.58-.77-.92-1.38-.73-.58,.18-.91,.8-.73,1.38,.33,1.05,.81,2.19,1.32,3.39,1.11,2.61,2.49,5.85,1.48,7.2-.48,.64-1.86,1.32-5.72,.87-.6-.07-1.15,.36-1.22,.97-.07,.6,.36,1.15,.97,1.22,2.17,.25,3.91,.2,5.24-.17Z"/><path fill="#e58376" d="M569.07,832.23c.56,.62,1.11,1.28,1.38,2.08,.65,1.88-.49,4.01-2.15,5.1-1.67,1.08-3.73,1.34-5.71,1.42-1.17,.05-2.37,.05-3.49-.33-1.32-.45-2.4-1.38-3.37-2.38-1.27-1.3-2.42-2.76-3.11-4.45-.69-1.68-.89-3.62-.29-5.33,.24-.67,.6-1.31,1.16-1.74,.49-.38,1.1-.59,1.7-.73,5.6-1.38,10.32,2.46,13.87,6.37Z"/><path fill="#e58376" d="M615.74,835.37c1.6-2.18,3.51-4.36,5.76-5.87-.48,3.47-1.12,6.92-1.96,10.32-.28,1.05-.58,2.1-.9,3.14-.48-.13-.95-.3-1.4-.53-1.77-.91-3.11-2.91-2.66-4.85,.19-.82,.67-1.53,1.16-2.21Z"/><path fill="#4a2c28" d="M573.44,817.66c-.11,3.26,1.51,5.97,3.62,6.06,2.11,.09,3.92-2.49,4.03-5.75,.11-3.26-1.51-5.97-3.62-6.06-2.11-.09-3.92,2.49-4.03,5.75Z"/><path fill="#4a2c28" d="M612.91,811.82c2.64,0,4.77,.73,6.25,2.18,.34,.33,.35,.87,.01,1.21-.33,.34-.87,.35-1.21,.01-1.99-1.94-5.24-1.86-7.63-1.45-2.93,.5-5.64,1.49-8.28,3.01-.4,.24-.93,.1-1.17-.31-.24-.41-.1-.93,.31-1.17,2.82-1.63,5.71-2.69,8.84-3.22,1.01-.17,1.97-.26,2.87-.26Z"/><path fill="#4a2c28" d="M577.96,811.1c2.64,0,4.77,.73,6.25,2.18,.34,.33,.35,.87,.01,1.21-.33,.34-.87,.35-1.21,.01-1.99-1.94-5.24-1.86-7.63-1.45-2.93,.5-5.64,1.49-8.28,3.01-.4,.24-.93,.1-1.17-.31-.24-.41-.1-.93,.31-1.17,2.82-1.63,5.71-2.69,8.84-3.22,1.01-.17,1.97-.26,2.87-.26Z"/><path fill="#4a2c28" d="M607.51,818c-.11,3.26,1.51,5.97,3.62,6.06,2.11,.09,3.92-2.49,4.03-5.75,.11-3.26-1.51-5.97-3.62-6.06-2.11-.09-3.92,2.49-4.03,5.75Z"/><path fill="#bf3f2e" d="M544.64,991.11c-.41-3.15,.61-6.3,1.68-9.16,1.11-2.9,2.33-5.64,3.03-8.69,.27,3.16-.81,6.26-1.87,9.12-1.11,2.89-2.27,5.65-2.83,8.73Z"/><path fill="#bf3f2e" d="M634.32,1022.95c1.89-.74,3.98-.81,5.97-.5,1.99,.35,3.94,1.1,5.48,2.42-1.97-.43-3.8-.89-5.69-1.18-1.88-.34-3.76-.5-5.77-.74Z"/><path fill="#ed8f75" d="M544.51,1054.86c-.88-.11-1.54-.54-2.15-1.02-.57-.52-1.09-1.12-1.33-1.98,.92,.15,1.56,.55,2.15,1.02,.55,.51,1.04,1.09,1.33,1.98Z"/><path fill="#ed8f75" d="M530.55,1051.82c-.38-1.48-.46-3.06-.04-4.62,.37-1.56,1.52-3.03,3.03-3.75,1.5-.71,3.19-.86,4.73-.59,1.55,.25,2.98,.8,4.36,1.47-1.52-.17-3-.47-4.45-.51-1.44-.04-2.87,.15-4.09,.75-1.23,.57-2.12,1.63-2.67,2.94-.55,1.31-.74,2.8-.87,4.31Z"/><path fill="#ed8f75" d="M526.63,1047.84c-.29-2.01-.45-4.05-.13-6.13,.29-2.07,1.28-4.14,2.96-5.57,.84-.7,1.87-1.23,2.98-1.42,1.1-.18,2.21-.07,3.22,.23,2.03,.59,3.79,1.55,5.6,2.48-1.98-.44-3.91-1.18-5.81-1.53-1.91-.36-3.79-.05-5.18,1.21-1.42,1.19-2.33,2.93-2.82,4.81-.5,1.89-.59,3.91-.82,5.93Z"/><path fill="#fba287" d="M588.74,945.21c.95-23.63,3.79-29.47,6.46-34.36,2.84-5.19,8.15-13.86,10.74-20.54,2.59-6.68-5.08-6.47-5.08-6.47-.12-4.47-4.81-4.35-4.81-4.35-2.08-6.13-5.18-2.2-11.36-2.46-6.19-.26-3.89-9.91,3.42-7.34s-.17-6.18-.17-6.18c-12.23-10.75-23.72,21.53-23.87,47.54-.06,11.24-2.8,23.67-5.89,34.16h30.55Z"/><g><path fill="#ed8f75" d="M572.47,871.41c1.35-3.17,3.05-6.32,5.81-8.65,1.34-1.18,3.17-1.98,5.08-1.91,1.92,.05,3.66,1.01,5.01,2.19l.04,.03,.02,.03c1.09,1.35,2.11,2.71,2.91,4.3,.19,.4,.37,.82,.48,1.31,.11,.42,.15,1.26-.53,1.71-1.24,.55-2.05,.06-2.89-.16-1.54-.64-3.16-.9-4.64-.27-1.48,.58-2.55,2.12-2.62,3.81-.21-1.7,.76-3.5,2.36-4.35,1.61-.87,3.61-.64,5.19-.09,.73,.22,1.7,.37,2.02,.17,.22-.01,.02-.99-.37-1.63-.74-1.41-1.79-2.75-2.84-4l.06,.06c-1.22-1.09-2.68-1.93-4.25-1.99-1.57-.11-3.11,.56-4.44,1.53-2.68,2-4.59,4.97-6.39,7.9Z"/><path fill="#ed8f75" d="M590.7,883.12c.32-.9,.93-1.51,1.6-2,.7-.46,2.39-1.46,3.35-1.44-.48,.82-2.19,1.83-2.84,2.31-.67,.44-1.17,.97-2.11,1.13Z"/><path fill="#ed8f75" d="M596.19,887.85c.02-1,.57-1.85,1.26-2.48,.71-.6,2-1.4,3-1.29-.62,.78-1.86,1.5-2.46,2.05-.63,.52-.95,1.21-1.8,1.72Z"/></g><path fill="#e65440" d="M563.98,914.46c-1.27,25.34-14.51,54.97-14.51,54.97-3.76-6.39-7.52-12.5-11.23-18.27-8.44,2.51-18.72,1.29-26.54,.13-11.76-1.74-23.33-4.99-34.55-8.89,5.4,37.32,39.49,81.25,74.2,96.05,41.84,17.84,36.5-61.1,37.25-88.62,.22-8.03,.63-14.25,1.18-19.16-11.13,.65-19.51-7-25.78-16.2Z"/><path fill="#fff" d="M560.88,930.51l2.49-17.03s15.75,16.77,29.67,3.84l-1.66,18.05s-16.55,15.13-30.5-4.86Z"/><g><path fill="#bf3f2e" d="M553.74,959.78c-1.06,2.8-2.18,5.59-3.37,8.33-5.92-9.99-12.05-19.93-18.83-29.39-.3,.17-.61,.32-.93,.44,6.81,9.94,13.11,20.25,19.33,30.57l.6,1.01s.46-1.07,.46-1.07c5.32-12.55,9.43-25.62,11.82-39.02-2.36,9.91-5.43,19.63-9.09,29.13Z"/><path fill="#bf3f2e" d="M580.54,1030.64c.65-1.43,1.69-3.23,2.23-4.67,.51-1.45,1.36-3.4,1.72-4.87,6.71-23.35,4.92-47.97,6.28-71.98,0,0,.22,10.37,.22,10.37,.15,21.56,1.14,52.48-10.44,71.14h0Z"/><path fill="#bf3f2e" d="M482.8,971.67c10.03,17.34,22.93,33,38.05,46.14,1.61,1.41,4.93,4.18,6.61,5.51-1.19-.8-2.38-1.61-3.55-2.44-17.36-12.73-31.83-29.75-41.1-49.2h0Z"/></g></g><path fill="#efedea" d="M674.36,514.29c-.11-4.66-3.41-8.09-8.1-8.38-2.91-.18-5.84-.07-8.76-.09-.53,0-1.05,.11-1.29-.63-.62-1.9-1.39-3.75-2.29-5.54-.29-.58-.06-.9,.33-1.28,1.87-1.85,3.73-3.71,5.58-5.58,3.7-3.74,4-8.5,.48-12.4-3.02-3.34-6.23-6.53-9.57-9.55-3.81-3.45-8.52-3.19-12.21,.39-1.92,1.86-3.8,3.77-5.67,5.68-.47,.48-.84,.62-1.5,.29-1.63-.82-3.31-1.58-5.07-2.11-.8-.24-.99-.68-.98-1.46,.04-2.72,.02-5.43,0-8.15,0-.87-.05-1.75-.33-2.59-1.18-3.51-3.71-5.41-7.25-6.1h-15.04c-5.23,.95-7.91,4.96-7.62,9.7,.14,2.29-.02,4.6,.05,6.89,.03,.97-.2,1.48-1.22,1.8-1.54,.48-3.05,1.13-4.48,1.88-.93,.48-1.45,.31-2.12-.41-1.75-1.85-3.56-3.64-5.39-5.42-3.81-3.7-8.77-3.77-12.61-.1-3.02,2.89-5.97,5.85-8.86,8.86-3.61,3.76-3.72,8.41-.26,12.33,1.8,2.03,3.76,3.92,5.75,5.75,.79,.73,.79,1.33,.35,2.14-.79,1.43-1.37,2.95-1.87,4.5-.27,.83-.64,1.16-1.58,1.13-3.01-.09-6.01-.13-9.02,.07-3.71,.25-7.13,3.21-7.52,6.88-.56,5.28-.46,10.61-.08,15.88,.3,4.17,3.69,7.11,7.87,7.34,2.92,.16,5.84,.12,8.77,.08,.84,0,1.28,.17,1.53,1.03,.5,1.68,1.19,3.29,2.01,4.84,.37,.69,.32,1.15-.27,1.71-1.9,1.82-3.75,3.7-5.59,5.57-3.56,3.62-3.89,8.32-.53,12.1,2.85,3.21,5.99,6.17,9.05,9.2,4.01,3.97,9.06,3.95,13.06-.02,1.81-1.79,3.62-3.59,5.4-5.42,.54-.55,.98-.7,1.72-.31,1.58,.83,3.24,1.51,4.95,2.05,.72,.23,.96,.61,.95,1.36-.04,2.72-.02,5.43,0,8.15,.04,5.01,3.52,8.66,8.51,8.76,4.38,.09,8.77,.09,13.16,0,5.01-.1,8.5-3.73,8.55-8.73,.02-2.72,.04-5.43,0-8.15,0-.73,.18-1.16,.92-1.39,1.71-.53,3.37-1.23,4.96-2.05,.77-.39,1.24-.23,1.82,.36,2.14,2.17,4.24,4.39,6.53,6.39,2.96,2.57,7.48,2.62,10.48,.1,3.78-3.17,7.23-6.71,10.49-10.39,3.2-3.62,2.97-8.21-.33-11.74-1.91-2.04-3.92-3.99-5.94-5.94-.52-.5-.57-.9-.26-1.5,.84-1.63,1.56-3.32,2.1-5.07,.22-.72,.59-.95,1.35-.93,2.63,.06,5.26,0,7.89,.04,5.56,.07,8.97-4.13,9.03-8.43,.07-4.47,.09-8.94-.01-13.41Zm-42.82,6.72c.03,11.73-9.52,21.27-21.31,21.31-11.69,.04-21.33-9.51-21.36-21.14-.03-11.97,9.42-21.54,21.31-21.58,11.78-.04,21.34,9.54,21.36,21.4Z"/><path fill="#efedea" d="M961.58,1059.7c-.11-4.66-3.41-8.09-8.1-8.38-2.91-.18-5.84-.07-8.76-.09-.53,0-1.05,.11-1.29-.63-.62-1.9-1.39-3.75-2.29-5.54-.29-.58-.06-.9,.33-1.28,1.87-1.85,3.73-3.71,5.58-5.58,3.7-3.74,4-8.5,.48-12.4-3.02-3.34-6.23-6.53-9.57-9.55-3.81-3.45-8.52-3.19-12.21,.39-1.92,1.86-3.8,3.77-5.67,5.68-.47,.48-.84,.62-1.5,.29-1.63-.82-3.31-1.58-5.07-2.11-.8-.24-.99-.68-.98-1.46,.04-2.72,.02-5.43,0-8.15,0-.87-.05-1.75-.33-2.59-1.18-3.51-3.71-5.41-7.25-6.1h-15.04c-5.23,.95-7.91,4.96-7.62,9.7,.14,2.29-.02,4.6,.05,6.89,.03,.97-.2,1.48-1.22,1.8-1.54,.48-3.05,1.13-4.48,1.88-.93,.48-1.45,.31-2.12-.41-1.75-1.85-3.56-3.64-5.39-5.42-3.81-3.7-8.77-3.77-12.61-.1-3.02,2.89-5.97,5.85-8.86,8.86-3.61,3.76-3.72,8.41-.26,12.33,1.8,2.03,3.76,3.92,5.75,5.75,.79,.73,.79,1.33,.35,2.14-.79,1.43-1.37,2.95-1.87,4.5-.27,.83-.64,1.16-1.58,1.13-3.01-.09-6.01-.13-9.02,.07-3.71,.25-7.13,3.21-7.52,6.88-.56,5.28-.46,10.61-.08,15.88,.3,4.17,3.69,7.11,7.87,7.34,2.92,.16,5.84,.12,8.77,.08,.84,0,1.28,.17,1.53,1.03,.5,1.68,1.19,3.29,2.01,4.84,.37,.69,.32,1.15-.27,1.71-1.9,1.82-3.75,3.7-5.59,5.57-3.56,3.62-3.89,8.32-.53,12.1,2.85,3.21,5.99,6.17,9.05,9.2,4.01,3.97,9.06,3.95,13.06-.02,1.81-1.79,3.62-3.59,5.4-5.42,.54-.55,.98-.7,1.72-.31,1.58,.83,3.24,1.51,4.95,2.05,.72,.23,.96,.61,.95,1.36-.04,2.72-.02,5.43,0,8.15,.04,5.01,3.52,8.66,8.51,8.76,4.38,.09,8.77,.09,13.16,0,5.01-.1,8.5-3.73,8.55-8.73,.02-2.72,.04-5.43,0-8.15,0-.73,.18-1.16,.92-1.39,1.71-.53,3.37-1.23,4.96-2.05,.77-.39,1.24-.23,1.82,.36,2.14,2.17,4.24,4.39,6.53,6.39,2.96,2.57,7.48,2.62,10.48,.1,3.78-3.17,7.23-6.71,10.49-10.39,3.2-3.62,2.97-8.21-.33-11.74-1.91-2.04-3.92-3.99-5.94-5.94-.52-.5-.57-.9-.26-1.5,.84-1.63,1.56-3.32,2.1-5.07,.22-.72,.59-.95,1.35-.93,2.63,.06,5.26,0,7.89,.04,5.56,.07,8.97-4.13,9.03-8.43,.07-4.47,.09-8.94-.01-13.41Zm-42.82,6.72c.03,11.73-9.52,21.27-21.31,21.31-11.69,.04-21.33-9.51-21.36-21.14-.03-11.97,9.42-21.54,21.31-21.58,11.78-.04,21.34,9.54,21.36,21.4Z"/><path fill="#efedea" d="M1456.24,382.29c-.11-4.66-3.41-8.09-8.1-8.38-2.91-.18-5.84-.07-8.76-.09-.53,0-1.05,.11-1.29-.63-.62-1.9-1.39-3.75-2.29-5.54-.29-.58-.06-.9,.33-1.28,1.87-1.85,3.73-3.71,5.58-5.58,3.7-3.74,4-8.5,.48-12.4-3.02-3.34-6.23-6.53-9.57-9.55-3.81-3.45-8.52-3.19-12.21,.39-1.92,1.86-3.8,3.77-5.67,5.68-.47,.48-.84,.62-1.5,.29-1.63-.82-3.31-1.58-5.07-2.11-.8-.24-.99-.68-.98-1.46,.04-2.72,.02-5.43,0-8.15,0-.87-.05-1.75-.33-2.59-1.18-3.51-3.71-5.41-7.25-6.1h-15.04c-5.23,.95-7.91,4.96-7.62,9.7,.14,2.29-.02,4.6,.05,6.89,.03,.97-.2,1.48-1.22,1.8-1.54,.48-3.05,1.13-4.48,1.88-.93,.48-1.45,.31-2.12-.41-1.75-1.85-3.56-3.64-5.39-5.42-3.81-3.7-8.77-3.77-12.61-.1-3.02,2.89-5.97,5.85-8.86,8.86-3.61,3.76-3.72,8.41-.26,12.33,1.8,2.03,3.76,3.92,5.75,5.75,.79,.73,.79,1.33,.35,2.14-.79,1.43-1.37,2.95-1.87,4.5-.27,.83-.64,1.16-1.58,1.13-3.01-.09-6.01-.13-9.02,.07-3.71,.25-7.13,3.21-7.52,6.88-.56,5.28-.46,10.61-.08,15.88,.3,4.17,3.69,7.11,7.87,7.34,2.92,.16,5.84,.12,8.77,.08,.84,0,1.28,.17,1.53,1.03,.5,1.68,1.19,3.29,2.01,4.84,.37,.69,.32,1.15-.27,1.71-1.9,1.82-3.75,3.7-5.59,5.57-3.56,3.62-3.89,8.32-.53,12.1,2.85,3.21,5.99,6.17,9.05,9.2,4.01,3.97,9.06,3.95,13.06-.02,1.81-1.79,3.62-3.59,5.4-5.42,.54-.55,.98-.7,1.72-.31,1.58,.83,3.24,1.51,4.95,2.05,.72,.23,.96,.61,.95,1.36-.04,2.72-.02,5.43,0,8.15,.04,5.01,3.52,8.66,8.51,8.76,4.38,.09,8.77,.09,13.16,0,5.01-.1,8.5-3.73,8.55-8.73,.02-2.72,.04-5.43,0-8.15,0-.73,.18-1.16,.92-1.39,1.71-.53,3.37-1.23,4.96-2.05,.77-.39,1.24-.23,1.82,.36,2.14,2.17,4.24,4.39,6.53,6.39,2.96,2.57,7.48,2.62,10.48,.1,3.78-3.17,7.23-6.71,10.49-10.39,3.2-3.62,2.97-8.21-.33-11.74-1.91-2.04-3.92-3.99-5.94-5.94-.52-.5-.57-.9-.26-1.5,.84-1.63,1.56-3.32,2.1-5.07,.22-.72,.59-.95,1.35-.93,2.63,.06,5.26,0,7.89,.04,5.56,.07,8.97-4.13,9.03-8.43,.07-4.47,.09-8.94-.01-13.41Zm-42.82,6.72c.03,11.73-9.52,21.27-21.31,21.31-11.69,.04-21.33-9.51-21.36-21.14-.03-11.97,9.42-21.54,21.31-21.58,11.78-.04,21.34,9.54,21.36,21.4Z"/><path fill="#efedea" d="M1079.11,301.77c-16.27,0-26.34-15.5-26.54-40.86,.2,25.36-9.62,40.86-25.9,40.86,16.27,0,26.1,15.5,25.9,40.86,.2-25.36,10.26-40.86,26.54-40.86Z"/><path fill="#efedea" d="M1701.27,896.75c-16.27,0-26.34-15.5-26.54-40.86,.2,25.36-9.62,40.86-25.9,40.86,16.27,0,26.1,15.5,25.9,40.86,.2-25.36,10.26-40.86,26.54-40.86Z"/><path fill="#efedea" d="M361.05,1138.7c-16.27,0-26.34-15.5-26.54-40.86,.2,25.36-9.62,40.86-25.9,40.86,16.27,0,26.1,15.5,25.9,40.86,.2-25.36,10.26-40.86,26.54-40.86Z"/><g><path fill="#f6c55a" d="M1602.04,457.16c-104.8,0-189.76,57.88-189.76,129.28,0,32.59,17.71,62.36,46.93,85.1l-25.58,60.19,73.71-33.24c27.87,10.96,60.22,17.23,94.71,17.23,104.8,0,189.76-57.88,189.76-129.28s-84.96-129.28-189.76-129.28Z"/><circle cx="1542.15" cy="586.44" r="15.42" fill="#fff"/><circle cx="1602.04" cy="586.44" r="15.42" fill="#fff"/><circle cx="1661.94" cy="586.44" r="15.42" fill="#fff"/></g></svg>